<svg width="353" height="231" viewBox="0 0 353 231" fill="none" xmlns="http://www.w3.org/2000/svg">
<path d="M58.1752 68.5822H62.912L64.491 65.452H68.1752L71.8594 62.8435L75.0173 61.2785L77.6488 57.6266V52.9313L78.7015 51.3662L80.8067 51.8879L82.912 53.9747L85.5436 51.8879L86.5962 51.3662L87.6488 51.8879L88.7015 52.9313L90.8067 50.3228L93.4383 49.2794L95.0173 47.1926L97.6488 46.1492H101.333L109.228 41.4539L112.386 42.4973H115.544L117.649 43.019L120.28 41.4539H122.386L124.491 38.3237H128.175L135.017 35.7153L141.859 33.6285L143.438 30.4983L148.175 28.9332L150.28 26.3247H157.123H163.438H167.123L169.754 23.1945H176.596L181.859 21.1077H187.123H190.807L195.017 17.4558H201.333H208.701H211.859L215.017 9.63037V7.54358L218.701 9.63037H220.28L222.386 12.2389H227.123L229.228 9.63037H231.333H234.491H238.701H240.807L246.07 7.54358L250.28 4.41339L252.912 7.54358V5.97848H258.175H262.386L263.965 2.3266H267.649L270.28 4.41339H273.965L276.596 7.54358H280.807L283.438 4.41339H288.701L293.438 7.54358V12.2389L298.175 17.4558L301.859 19.5426L306.596 23.1945L309.228 21.1077H315.544L319.228 23.1945L323.438 24.7596L321.333 28.9332L323.965 30.4983L326.07 34.1502V40.9322L323.438 44.5841L323.965 46.6709L326.07 49.2794L327.649 50.8445H330.28V52.9313L328.701 52.4096L327.123 53.9747L328.175 55.5398H329.754L330.28 57.6266L331.859 56.0615L333.438 54.4964L332.912 52.4096V50.3228L335.017 49.8011L336.596 50.8445V52.4096L337.123 53.9747L338.701 54.4964L339.754 56.0615L341.859 56.5832L342.912 58.1483L341.859 59.7134L340.28 60.2351L339.228 59.7134L337.649 58.67V57.6266H334.491L332.386 59.7134V65.452L334.491 68.5822V72.7558L332.386 75.3643L330.28 71.4636H328.175L326.07 77.4511L323.965 84.7549V89.9718L321.333 94.6671H315.544L311.859 99.8841L309.228 105.623L306.596 111.361L303.965 117.1L298.175 121.274L296.07 124.404H298.175L296.07 131.708L290.807 132.751L285.544 134.316H280.807L273.965 135.881L267.649 137.968L263.965 143.707L258.175 145.272V146.837L255.017 145.272L250.28 148.402L242.386 152.054H236.596L231.333 154.141L227.123 152.054L224.491 151.532L220.28 152.054L218.701 154.141H215.017L212.386 158.314L206.07 163.01L204.491 167.183H199.228L196.07 168.748L193.438 167.183L190.807 165.618H185.017L183.965 168.227L181.859 167.183L178.701 164.575V168.227L174.491 168.748L169.228 167.183H165.017L163.438 170.313L159.228 171.357L153.438 171.878L150.28 173.443H146.596L141.859 171.878L140.28 168.748L136.596 167.705L129.228 168.748L124.491 170.313L120.28 165.618L115.544 167.705L109.228 170.313H103.438L98.7015 168.748L95.0173 170.313L92.3857 168.748H87.1225L86.0699 167.183L80.2804 170.313L75.5436 175.009H72.3857L71.3331 180.747V182.834L72.3857 186.486L71.3331 190.138L68.7015 189.094L67.1225 186.486L64.491 189.094L59.7541 188.573L58.7015 184.921V181.791H54.491L52.3857 178.139L47.6488 171.357L42.912 167.183L39.2278 165.618H35.5436L28.7015 159.879L25.5436 158.314L21.8594 152.054L19.2278 146.837L15.5436 142.142V137.968L18.7015 135.881L16.5962 132.751V130.664L18.7015 125.969L16.5962 123.36V118.144L17.6488 115.535L18.7015 115.013H20.8067L24.491 110.318V106.666L27.6488 106.144L32.3857 102.493L34.491 99.8841L38.1752 97.7973L40.2804 92.5803L44.491 89.9718H46.0699L51.8594 84.7549L57.1225 79.0162L58.1752 72.7558V68.5822Z" fill="white"/>
<path d="M338.701 35.7153L340.28 39.3671L342.912 40.4851L346.596 40.9322L349.228 39.3671L350.807 38.3237L349.228 32.5851L351.859 30.4983L349.228 28.9332H346.596V24.7596H340.28V28.9332L337.123 30.4983L338.701 35.7153Z" fill="white"/>
<path d="M8.17516 131.708L12.3857 130.664V127.012H8.17516H1.85938L4.49095 131.708L6.0699 134.316L8.17516 131.708Z" fill="white"/>
<path d="M39.2278 84.7549L42.3857 88.9284L43.4383 86.3199L45.5436 83.1898L44.491 80.0596H43.4383L39.2278 79.0162V84.7549Z" fill="white"/>
<path d="M57.6488 205.267L61.3331 208.397H62.912L65.5436 205.789L67.1225 201.615H62.912L61.3331 200.05L57.6488 201.615V205.267Z" fill="white"/>
<path d="M58.7015 223.526L59.7541 229.265L61.3331 226.657V223.526V219.875H59.7541L58.7015 223.526Z" fill="white"/>
<path d="M82.912 21.1077L85.5436 22.1511V21.1077V19.0209V16.9341L83.9646 14.8473H87.6488L90.8067 13.2823L89.7541 10.1521L90.8067 7.54358H88.7015H87.6488L83.9646 10.1521L81.3331 9.63037L79.7541 10.1521H76.5962L75.0173 12.7606L79.7541 14.8473L82.912 21.1077Z" fill="white"/>
<path d="M68.1752 8.58697L72.912 11.1955L74.491 10.1521L75.0173 7.54358L74.491 5.45679L71.8594 2.8483H68.1752V1.2832H64.491V2.8483L68.1752 4.93509L65.5436 6.50018L68.1752 8.58697Z" fill="white"/>
<path d="M68.1752 65.452H64.491L62.912 68.5822H58.1752V72.7558L57.1225 79.0162L51.8594 84.7549L46.0699 89.9718H44.491L40.2804 92.5803L38.1752 97.7973L34.491 99.8841M68.1752 65.452L69.2278 68.5822V71.7124V77.9728L71.8594 82.1464V86.3199L78.1752 91.5369L78.7015 96.7539L99.7541 110.318M68.1752 65.452L71.8594 62.8435L75.0173 61.2785L77.6488 57.6266V52.9313L78.7015 51.3662L80.8067 51.8879L82.912 53.9747L85.5436 51.8879L86.5962 51.3662L87.6488 51.8879L88.7015 52.9313L90.8067 50.3228L93.4383 49.2794L95.0173 47.1926L97.6488 46.1492H101.333L109.228 41.4539L112.386 42.4973H115.544L117.649 43.019M99.7541 110.318L105.544 112.405L113.438 111.361L115.544 112.405L124.491 113.448M99.7541 110.318L97.6488 112.405H89.7541L85.5436 112.927L80.2804 121.274L76.0699 119.187L67.4273 121.203M124.491 113.448L125.544 115.013L122.386 118.144L120.28 127.012L118.175 130.664L113.965 131.708L112.386 135.881L109.228 138.49L106.596 135.881L103.438 132.751L99.2278 137.968V145.272L100.28 154.141L98.7015 158.314L97.6488 164.575L98.7015 168.748M124.491 113.448L126.596 110.318L128.175 107.71L129.228 105.623H130.807L135.017 105.101H138.701H141.859H146.596H150.28L154.491 104.058H157.123L160.807 105.101L163.965 103.536M98.7015 168.748L95.0173 170.313L92.3857 168.748H87.1225L86.0699 167.183L80.2804 170.313L75.5436 175.009H72.3857M98.7015 168.748L103.438 170.313H109.228L115.544 167.705L120.28 165.618L124.491 170.313L129.228 168.748L136.596 167.705L140.28 168.748L141.859 171.878L146.596 173.443H150.28L153.438 171.878L159.228 171.357L163.438 170.313L165.017 167.183H169.228M72.3857 175.009L71.3331 180.747V182.834L72.3857 186.486L71.3331 190.138L68.7015 189.094L67.1225 186.486L64.491 189.094L59.7541 188.573L58.7015 184.921V181.791H54.491L52.3857 178.139L47.6488 171.357L42.912 167.183L39.2278 165.618H35.5436L28.7015 159.879L25.5436 158.314L21.8594 152.054L19.2278 146.837L15.5436 142.142V137.968L18.7015 135.881M72.3857 175.009L70.2804 173.443L64.491 171.357V167.183L62.912 163.01L64.491 159.879L67.1225 155.706L67.4273 151.532V148.402L70.2804 145.272L69.2278 142.142L66.5962 139.533L66.0699 136.403L61.8594 131.708M18.7015 135.881L16.5962 132.751V130.664L18.7015 125.969L16.5962 123.36V118.144L17.6488 115.535L18.7015 115.013H20.8067L24.491 110.318V106.666L27.6488 106.144L32.3857 102.493L34.491 99.8841M18.7015 135.881H20.8067L22.912 134.316L26.0699 133.794L29.2278 135.36L33.4383 137.968L36.5962 139.011L40.2804 142.142L46.0699 145.272V139.011L50.8067 136.925L57.1225 134.316L61.8594 131.708M34.491 99.8841L36.5962 104.058L41.8594 109.796L46.0699 110.318L47.6488 112.405L52.912 111.361L55.5436 113.448L58.1752 111.361L62.912 113.448L65.5436 118.144L67.1225 121.274L67.4273 121.203M67.4273 121.203L61.8594 131.708M117.649 43.019V49.2794L120.28 50.3228H123.438L126.596 49.2794L127.123 50.3228L128.175 55.0181L129.228 59.7134L130.807 63.8869L129.228 68.5822L130.807 72.7558V75.3643L131.333 79.5379L132.912 82.1464L135.017 84.7549L137.649 88.4067L140.28 89.9718L143.438 91.5369L146.596 90.4935L150.28 91.5369L155.544 93.102L159.228 94.6671L161.333 96.7539L163.438 99.8841L163.965 103.536M117.649 43.019L120.28 41.4539H122.386L124.491 38.3237H128.175L135.017 35.7153L141.859 33.6285L143.438 30.4983L148.175 28.9332L150.28 26.3247H157.123H163.438H167.123L169.754 23.1945H176.596L181.859 21.1077H187.123H190.807L195.017 17.4558M163.965 103.536V107.71L163.438 113.448L165.017 119.709L163.438 124.404V127.012L163.965 130.664V136.403L165.017 145.272V149.967L167.123 155.706L169.228 161.444L169.754 165.618L169.228 167.183M163.965 103.536H169.228M169.228 167.183L174.491 168.748L178.701 168.227V164.575L181.859 167.183L183.965 168.227L185.017 165.618H190.807L193.438 167.183L196.07 168.748L199.228 167.183H204.491L206.07 163.01M169.228 103.536H174.491L178.701 105.101L181.859 110.318L187.123 115.013L190.807 117.1V121.274L195.017 124.404V129.621L196.07 135.881L201.333 142.142L204.491 143.707L206.07 148.402V151.532V163.01M169.228 103.536L171.859 101.449L177.123 97.7973M206.07 163.01L212.386 158.314L215.017 154.141H218.701L220.28 152.054L224.491 151.532L227.123 152.054L231.333 154.141L236.596 152.054H242.386L250.28 148.402L255.017 145.272L258.175 146.837V145.272L263.965 143.707L267.649 137.968L273.965 135.881M195.017 17.4558L193.438 23.1945L195.017 28.9332L201.333 30.4983V35.7153L204.491 38.3237V40.9322L207.123 44.5841L209.228 48.236L210.28 55.0181L212.386 60.7568L211.859 65.452V69.6256L208.701 72.7558L204.491 77.4511L202.386 82.1464L199.228 87.3633L195.017 88.4067L190.28 89.9718L185.544 94.1454L180.807 95.7105L177.123 97.7973M195.017 17.4558H201.333H208.701H211.859L215.017 9.63037V7.54358L218.701 9.63037H220.28L222.386 12.2389H227.123L229.228 9.63037H231.333H234.491H238.701M177.123 97.7973L188.701 98.8407L193.438 97.7973L197.123 94.6671L203.438 95.1888L208.701 89.4501L215.017 87.3633L218.701 88.4067M218.701 88.4067L224.491 92.5803L227.123 95.7105L231.333 97.7973H238.701H242.386L246.07 99.8841L250.28 101.449L252.912 104.058L255.017 107.71L258.175 111.361L262.386 117.1L263.965 121.274L262.386 123.36L267.649 127.012H270.28L273.965 135.881M218.701 88.4067L220.28 84.7549L228.25 82.1464L234.491 77.4511L243.965 72.7558L250.28 71.4636M273.965 135.881L280.807 134.316H285.544L290.807 132.751L296.07 131.708L298.175 124.404H296.07L298.175 121.274M238.701 9.63037L236.596 15.8907L238.701 21.1077H240.807L243.965 26.3247L248.175 30.4983L250.28 35.7153V43.019L248.175 49.2794V55.0181V59.7134L246.07 60.7568L248.175 67.0171L250.28 71.4636M238.701 9.63037H240.807L246.07 7.54358L250.28 4.41339L252.912 7.54358V5.97848H258.175H262.386L263.965 2.3266H267.649L270.28 4.41339H273.965L276.596 7.54358H280.807L283.438 4.41339H288.701L293.438 7.54358V12.2389L298.175 17.4558L301.859 19.5426L306.596 23.1945L309.228 21.1077H315.544L319.228 23.1945L323.438 24.7596L321.333 28.9332L323.965 30.4983L326.07 34.1502V40.9322L323.438 44.5841M250.28 71.4636L255.017 75.3643H259.754L263.965 72.7558L270.28 69.6256L273.965 67.0171L280.807 65.452H283.438M283.438 65.452L286.596 68.5822L288.701 75.3643L286.596 79.5379L285.544 86.3199L283.438 90.4935L280.807 95.7105L285.544 96.7539L286.596 98.8407L290.807 101.449L296.07 105.623L298.175 111.361L300.28 113.448V117.1L298.175 121.274M283.438 65.452L286.596 62.3218H290.807L296.07 57.6266L300.28 56.5832L303.965 52.9313L306.596 52.4096H309.228L311.859 48.236L317.123 46.6709L323.438 44.5841M298.175 121.274L303.965 117.1L306.596 111.361L309.228 105.623L311.859 99.8841L315.544 94.6671H321.333L323.965 89.9718V84.7549L326.07 77.4511L328.175 71.4636H330.28L332.386 75.3643L334.491 72.7558V68.5822L332.386 65.452V59.7134L334.491 57.6266H337.649V58.67L339.228 59.7134L340.28 60.2351L341.859 59.7134L342.912 58.1483L341.859 56.5832L339.754 56.0615L338.701 54.4964L337.123 53.9747L336.596 52.4096V50.8445L335.017 49.8011L332.912 50.3228V52.4096L333.438 54.4964L331.859 56.0615L330.28 57.6266L329.754 55.5398H328.175L327.123 53.9747L328.701 52.4096L330.28 52.9313V50.8445H327.649L326.07 49.2794L323.965 46.6709L323.438 44.5841M343.965 40.9322L342.912 40.4851M342.912 40.4851L340.28 39.3671L338.701 35.7153L337.123 30.4983L340.28 28.9332V24.7596H346.596V28.9332H349.228L351.859 30.4983L349.228 32.5851L350.807 38.3237L349.228 39.3671L346.596 40.9322L342.912 40.4851ZM12.3857 130.664L8.17516 131.708L6.0699 134.316L4.49095 131.708L1.85938 127.012H8.17516H12.3857V130.664ZM42.3857 88.9284L39.2278 84.7549V79.0162L43.4383 80.0596H44.491L45.5436 83.1898L43.4383 86.3199L42.3857 88.9284ZM61.3331 208.397L57.6488 205.267V201.615L61.3331 200.05L62.912 201.615H67.1225L65.5436 205.789L62.912 208.397H61.3331ZM59.7541 229.265L58.7015 223.526L59.7541 219.875H61.3331V223.526V226.657L59.7541 229.265ZM85.5436 22.1511L82.912 21.1077L79.7541 14.8473L75.0173 12.7606L76.5962 10.1521H79.7541L81.3331 9.63037L83.9646 10.1521L87.6488 7.54358H88.7015H90.8067L89.7541 10.1521L90.8067 13.2823L87.6488 14.8473H83.9646L85.5436 16.9341V19.0209V21.1077V22.1511ZM72.912 11.1955L68.1752 8.58697L65.5436 6.50018L68.1752 4.93509L64.491 2.8483V1.2832H68.1752V2.8483H71.8594L74.491 5.45679L75.0173 7.54358L74.491 10.1521L72.912 11.1955Z" stroke="#2D67F6" stroke-width="1.06061" stroke-dasharray="2.12 2.12"/>
<path d="M240.807 21.1073H238.701L236.622 15.8864L238.701 9.62994H240.807L246.07 7.54315L250.28 4.41296L252.912 7.54315V5.97806H258.175H262.386L263.965 2.32617H267.649L270.28 4.41296H273.965L276.596 7.54315H280.807L283.438 4.41296H288.701L293.438 7.54315V12.2384L298.175 17.4554L301.859 19.5422L306.596 23.1941L309.228 21.1073H315.544L319.228 23.1941L323.438 24.7592L321.333 28.9328L323.965 30.4979L326.07 34.1497V40.9318L323.438 44.5837L317.122 46.6705L311.859 48.2356L309.228 52.4092H306.596L303.965 52.9309L300.28 56.5827L296.07 57.6261L290.807 62.3214H286.596L283.438 65.4516H280.807L273.965 67.0167L270.28 69.6252L263.965 72.7554L259.754 75.3639H255.017L250.28 71.4632L248.175 67.0167L246.07 60.7563L248.175 59.7129V55.0177V49.279L250.28 43.0186V35.7148L248.175 30.4979L243.965 26.3243L240.807 21.1073Z" fill="#2D67F6" fill-opacity="0.2"/>
<path d="M338.701 35.7148L340.28 39.3667L342.912 40.4846L346.596 40.9318L349.228 39.3667L350.807 38.3233L349.228 32.5846L351.859 30.4979L349.228 28.9328H346.596V24.7592H340.28V28.9328L337.122 30.4979L338.701 35.7148Z" fill="#2D67F6" fill-opacity="0.2"/>
<path d="M343.965 40.9318L342.912 40.4846M342.912 40.4846L340.28 39.3667L338.701 35.7148L337.122 30.4979L340.28 28.9328V24.7592H346.596V28.9328H349.228L351.859 30.4979L349.228 32.5846L350.807 38.3233L349.228 39.3667L346.596 40.9318L342.912 40.4846ZM238.701 9.62994H240.807L246.07 7.54315L250.28 4.41296L252.912 7.54315V5.97806H258.175H262.386L263.965 2.32617H267.649L270.28 4.41296H273.965L276.596 7.54315H280.807L283.438 4.41296H288.701L293.438 7.54315V12.2384L298.175 17.4554L301.859 19.5422L306.596 23.1941L309.228 21.1073H315.544L319.228 23.1941L323.438 24.7592L321.333 28.9328L323.965 30.4979L326.07 34.1497V40.9318L323.438 44.5837L317.122 46.6705L311.859 48.2356L309.228 52.4092H306.596L303.965 52.9309L300.28 56.5827L296.07 57.6261L290.807 62.3214H286.596L283.438 65.4516H280.807L273.965 67.0167L270.28 69.6252L263.965 72.7554L259.754 75.3639H255.017L250.28 71.4632L248.175 67.0167L246.07 60.7563L248.175 59.7129V55.0177V49.279L250.28 43.0186V35.7148L248.175 30.4979L243.965 26.3243L240.807 21.1073H238.701L236.622 15.8864L238.701 9.62994Z" stroke="#2D67F6"/>
<path d="M163.072 54.9021V63.9421H163.872V54.9021H163.072ZM159.782 58.1421V58.8321H161.512V58.1421H159.782ZM161.262 55.1121V63.4821H162.042V55.1121H161.262ZM158.042 56.3021V57.4521C158.042 59.1121 157.342 60.7621 156.082 61.5221L156.592 62.1421C157.922 61.3021 158.682 59.4321 158.682 57.4521V56.3021H158.042ZM158.212 56.3021V57.4521C158.212 59.3421 158.942 61.1221 160.262 61.9221L160.772 61.3121C159.532 60.5921 158.852 59.0221 158.852 57.4521V56.3021H158.212ZM156.332 55.9521V56.6421H160.462V55.9521H156.332ZM169.021 55.7921V56.1721C169.021 57.3621 167.471 58.4021 165.881 58.6321L166.201 59.2921C168.021 58.9821 169.741 57.7921 169.741 56.1721V55.7921H169.021ZM169.231 55.7921V56.1721C169.231 57.7921 170.941 58.9821 172.771 59.2921L173.081 58.6321C171.501 58.4021 169.941 57.3621 169.941 56.1721V55.7921H169.231ZM169.051 60.4921V63.9421H169.871V60.4921H169.051ZM165.401 60.0521V60.7321H173.571V60.0521H165.401ZM166.161 55.4621V56.1321H172.781V55.4621H166.161ZM176.981 55.6821V57.3021C176.981 59.0121 175.891 60.7421 174.551 61.3821L175.061 62.0621C176.541 61.3121 177.661 59.3821 177.661 57.3021V55.6821H176.981ZM177.121 55.6821V57.3021C177.121 59.3121 178.251 61.1721 179.721 61.8921L180.221 61.2321C178.881 60.6121 177.801 58.9521 177.801 57.3021V55.6821H177.121ZM181.161 54.8921V63.9521H181.991V54.8921H181.161Z" fill="#2D67F6"/>
<path d="M175.197 145.915V146.595H177.717V145.915H175.197ZM173.017 143.635V145.245C173.017 146.925 171.997 148.665 170.667 149.325L171.197 149.985C172.627 149.215 173.697 147.275 173.697 145.245V143.635H173.017ZM173.177 143.635V145.245C173.177 147.225 174.227 149.085 175.687 149.825L176.177 149.155C174.867 148.535 173.847 146.895 173.847 145.245V143.635H173.177ZM177.307 142.845V151.905H178.127V142.845H177.307ZM182.336 147.605V151.375H183.176V147.605H182.336ZM186.536 142.855V151.895H187.356V142.855H186.536ZM179.936 147.865C181.726 147.855 183.926 147.815 185.956 147.535L185.886 146.915C183.896 147.125 181.656 147.155 179.826 147.165L179.936 147.865ZM180.616 143.545V144.235H184.356V143.545H180.616ZM184.036 143.545V143.915C184.036 144.535 184.036 145.625 183.736 147.215L184.556 147.285C184.856 145.675 184.856 144.545 184.856 143.915V143.545H184.036ZM189.085 150.085V150.775H197.275V150.085H189.085ZM192.735 147.745V150.395H193.565V147.745H192.735ZM189.795 143.715V144.395H196.505V143.715H189.795ZM189.815 147.355V148.025H196.495V147.355H189.815ZM191.205 144.265V147.475H192.035V144.265H191.205ZM194.285 144.265V147.475H195.105V144.265H194.285Z" fill="#2D67F6"/>
<path d="M54.9202 92.3828V99.1628H55.7502V92.3828H54.9202ZM55.4902 95.3428V96.0428H57.0902V95.3428H55.4902ZM48.7602 93.4728V94.1428H54.1002V93.4728H48.7602ZM51.4302 94.6428C50.1402 94.6428 49.2602 95.3128 49.2602 96.3328C49.2602 97.3428 50.1402 98.0128 51.4302 98.0128C52.7102 98.0128 53.5902 97.3428 53.5902 96.3328C53.5902 95.3128 52.7102 94.6428 51.4302 94.6428ZM51.4302 95.2928C52.2402 95.2928 52.8002 95.7028 52.8002 96.3328C52.8002 96.9528 52.2402 97.3628 51.4302 97.3628C50.6102 97.3628 50.0502 96.9528 50.0502 96.3328C50.0502 95.7028 50.6102 95.2928 51.4302 95.2928ZM51.0102 92.3728V93.8228H51.8402V92.3728H51.0102ZM50.1202 100.533V101.213H56.1602V100.533H50.1202ZM50.1202 98.6228V100.823H50.9502V98.6228H50.1202ZM64.5095 92.3728V97.7328H65.3495V92.3728H64.5095ZM58.3995 96.6228V97.3128H59.1295C60.8095 97.3128 62.0295 97.2628 63.5195 97.0128L63.4295 96.3428C61.9795 96.5728 60.7695 96.6228 59.1295 96.6228H58.3995ZM58.3795 92.9128V93.5928H61.6695V94.7428H58.3995V97.0328H59.2095V95.3828H62.4795V92.9128H58.3795ZM59.5095 98.2328V101.293H65.3495V98.2328H59.5095ZM64.5295 98.8928V100.623H60.3195V98.8928H64.5295ZM71.2187 92.5328C69.2487 92.5328 68.0387 93.1628 68.0387 94.2128C68.0387 95.2628 69.2487 95.8828 71.2187 95.8828C73.1787 95.8828 74.3987 95.2628 74.3987 94.2128C74.3987 93.1628 73.1787 92.5328 71.2187 92.5328ZM71.2187 93.1828C72.6587 93.1828 73.5487 93.5628 73.5487 94.2128C73.5487 94.8628 72.6587 95.2428 71.2187 95.2428C69.7687 95.2428 68.8887 94.8628 68.8887 94.2128C68.8887 93.5628 69.7687 93.1828 71.2187 93.1828ZM68.1687 97.8628V101.293H74.2587V97.8628H73.4387V98.8528H68.9887V97.8628H68.1687ZM68.9887 99.4928H73.4387V100.623H68.9887V99.4928ZM67.1287 96.5928V97.2628H75.2987V96.5928H67.1287Z" fill="#2D67F6"/>
<path d="M76.1966 151.316V157.976H77.0266V151.316H76.1966ZM76.7666 154.066V154.756H78.3666V154.066H76.7666ZM71.3966 159.486V160.166H77.4366V159.486H71.3966ZM71.3966 157.296V159.756H72.2266V157.296H71.3966ZM72.5366 151.956C71.1866 151.956 70.1766 152.886 70.1766 154.186C70.1766 155.496 71.1866 156.416 72.5366 156.416C73.8866 156.416 74.8966 155.496 74.8966 154.186C74.8966 152.886 73.8866 151.956 72.5366 151.956ZM72.5366 152.686C73.4166 152.686 74.0866 153.306 74.0866 154.186C74.0866 155.076 73.4166 155.686 72.5366 155.686C71.6566 155.686 70.9866 155.076 70.9866 154.186C70.9866 153.306 71.6566 152.686 72.5366 152.686ZM79.7058 155.626V156.316H80.3758C82.1758 156.316 83.2058 156.256 84.4058 156.016L84.3058 155.346C83.1458 155.586 82.1458 155.626 80.3758 155.626H79.7058ZM79.7058 151.956V155.846H80.5158V152.626H83.8158V151.956H79.7058ZM80.6158 157.196V157.876H85.8158V160.366H86.6458V157.196H80.6158ZM85.8158 151.326V156.736H86.6458V151.326H85.8158ZM83.2858 153.666V154.336H86.0458V153.666H83.2858ZM92.745 152.916V153.596H95.275V152.916H92.745ZM92.745 154.846V155.536H95.295V154.846H92.745ZM88.825 152.106V156.346H92.955V152.106H88.825ZM92.135 152.776V155.676H89.635V152.776H92.135ZM95.015 151.336V157.936H95.845V151.336H95.015ZM90.035 159.486V160.166H96.065V159.486H90.035ZM90.035 157.336V159.796H90.865V157.336H90.035Z" fill="#2D67F6"/>
<path d="M31.056 118.543V125.323H31.886V118.543H31.056ZM31.626 121.503V122.203H33.226V121.503H31.626ZM24.896 119.633V120.303H30.236V119.633H24.896ZM27.566 120.803C26.276 120.803 25.396 121.473 25.396 122.493C25.396 123.503 26.276 124.173 27.566 124.173C28.846 124.173 29.726 123.503 29.726 122.493C29.726 121.473 28.846 120.803 27.566 120.803ZM27.566 121.453C28.376 121.453 28.936 121.863 28.936 122.493C28.936 123.113 28.376 123.523 27.566 123.523C26.746 123.523 26.186 123.113 26.186 122.493C26.186 121.863 26.746 121.453 27.566 121.453ZM27.146 118.533V119.983H27.976V118.533H27.146ZM26.256 126.693V127.373H32.296V126.693H26.256ZM26.256 124.783V126.983H27.086V124.783H26.256ZM38.3952 120.193V120.873H40.8152V120.193H38.3952ZM38.3152 122.073V122.753H40.7552V122.073H38.3152ZM40.6752 118.533V123.953H41.5052V118.533H40.6752ZM37.8452 119.213V119.573C37.8452 121.283 36.4952 122.613 34.1852 123.283L34.5252 123.953C37.1252 123.173 38.7352 121.543 38.7352 119.213H37.8452ZM34.6552 119.213V119.893H38.4152V119.213H34.6552ZM38.5652 124.053C36.7352 124.053 35.5752 124.703 35.5752 125.793C35.5752 126.883 36.7352 127.533 38.5652 127.533C40.3952 127.533 41.5552 126.883 41.5552 125.793C41.5552 124.703 40.3952 124.053 38.5652 124.053ZM38.5652 124.703C39.8952 124.703 40.7452 125.113 40.7452 125.793C40.7452 126.473 39.8952 126.873 38.5652 126.873C37.2452 126.873 36.3952 126.473 36.3952 125.793C36.3952 125.113 37.2452 124.703 38.5652 124.703ZM47.6044 120.123V120.803H50.1344V120.123H47.6044ZM47.6044 122.053V122.743H50.1544V122.053H47.6044ZM43.6844 119.313V123.553H47.8144V119.313H43.6844ZM46.9944 119.983V122.883H44.4944V119.983H46.9944ZM49.8744 118.543V125.143H50.7044V118.543H49.8744ZM44.8944 126.693V127.373H50.9244V126.693H44.8944ZM44.8944 124.543V127.003H45.7244V124.543H44.8944Z" fill="#2D67F6"/>
<path d="M38.5165 151.06V160.1H39.3165V151.06H38.5165ZM36.9865 154.68V155.37H38.7265V154.68H36.9865ZM36.4665 151.26V159.64H37.2465V151.26H36.4665ZM31.9665 157.18V157.87H32.5565C33.9165 157.87 34.8265 157.83 35.9065 157.6L35.8265 156.91C34.7765 157.13 33.8765 157.18 32.5565 157.18H31.9665ZM31.9665 152.16V157.49H32.7865V152.84H35.3265V152.16H31.9665ZM45.6657 153.4V154.09H47.7057V153.4H45.6657ZM47.4457 151.06V156.45H48.2757V151.06H47.4457ZM45.3057 156.72C43.4357 156.72 42.2857 157.35 42.2857 158.41C42.2857 159.48 43.4357 160.09 45.3057 160.09C47.1657 160.09 48.3157 159.48 48.3157 158.41C48.3157 157.35 47.1657 156.72 45.3057 156.72ZM45.3057 157.37C46.6657 157.37 47.4957 157.75 47.4957 158.41C47.4957 159.06 46.6657 159.44 45.3057 159.44C43.9457 159.44 43.1157 159.06 43.1157 158.41C43.1157 157.75 43.9457 157.37 45.3057 157.37ZM43.1457 151.97V152.7C43.1457 154 42.2157 155.21 40.8757 155.7L41.3057 156.36C42.8057 155.8 43.8257 154.37 43.8257 152.7V151.97H43.1457ZM43.3057 151.97V152.7C43.3057 154.22 44.2757 155.58 45.7457 156.11L46.1657 155.45C44.8557 154.99 43.9757 153.87 43.9757 152.7V151.97H43.3057ZM41.1257 151.72V152.4H45.9557V151.72H41.1257ZM54.1249 151.22C52.1549 151.22 50.9449 151.85 50.9449 152.9C50.9449 153.95 52.1549 154.57 54.1249 154.57C56.0849 154.57 57.3049 153.95 57.3049 152.9C57.3049 151.85 56.0849 151.22 54.1249 151.22ZM54.1249 151.87C55.5649 151.87 56.4549 152.25 56.4549 152.9C56.4549 153.55 55.5649 153.93 54.1249 153.93C52.6749 153.93 51.7949 153.55 51.7949 152.9C51.7949 152.25 52.6749 151.87 54.1249 151.87ZM51.0749 156.55V159.98H57.1649V156.55H56.3449V157.54H51.8949V156.55H51.0749ZM51.8949 158.18H56.3449V159.31H51.8949V158.18ZM50.0349 155.28V155.95H58.2049V155.28H50.0349Z" fill="#2D67F6"/>
<path d="M218.361 45.1195V45.8095H226.551V45.1195H218.361ZM222.041 42.9295V45.3495H222.861V42.9295H222.041ZM222.021 39.0695V39.6295C222.021 41.0595 220.311 42.3295 218.751 42.5895L219.091 43.2495C220.871 42.8795 222.721 41.4795 222.721 39.6295V39.0695H222.021ZM222.171 39.0695V39.6295C222.171 41.4795 224.031 42.8595 225.841 43.2195L226.171 42.5595C224.591 42.2995 222.871 41.0595 222.871 39.6295V39.0695H222.171ZM219.031 38.7495V39.4295H225.861V38.7495H219.031ZM229.811 39.6295V40.0795C229.811 41.3495 228.921 42.4695 227.581 42.9295L227.991 43.5795C229.501 43.0495 230.491 41.7095 230.491 40.0795V39.6295H229.811ZM229.951 39.6295V40.0795C229.951 41.6395 230.981 42.9195 232.491 43.4195L232.901 42.7595C231.561 42.3395 230.641 41.2795 230.641 40.0795V39.6295H229.951ZM227.811 39.1395V39.8095H232.631V39.1395H227.811ZM229.811 37.9895V39.3895H230.641V37.9895H229.811ZM232.331 40.7095V41.3995H234.611V40.7095H232.331ZM234.161 37.9395V44.6795H234.991V37.9395H234.161ZM229.221 46.0895V46.7695H235.241V46.0895H229.221ZM229.221 44.0795V46.4595H230.051V44.0795H229.221ZM240.84 38.0895C238.87 38.0895 237.66 38.7195 237.66 39.7695C237.66 40.8195 238.87 41.4395 240.84 41.4395C242.8 41.4395 244.02 40.8195 244.02 39.7695C244.02 38.7195 242.8 38.0895 240.84 38.0895ZM240.84 38.7395C242.28 38.7395 243.17 39.1195 243.17 39.7695C243.17 40.4195 242.28 40.7995 240.84 40.7995C239.39 40.7995 238.51 40.4195 238.51 39.7695C238.51 39.1195 239.39 38.7395 240.84 38.7395ZM237.79 43.4195V46.8495H243.88V43.4195H243.06V44.4095H238.61V43.4195H237.79ZM238.61 45.0495H243.06V46.1795H238.61V45.0495ZM236.75 42.1495V42.8195H244.92V42.1495H236.75Z" fill="#2D67F6"/>
<path d="M223.36 121.533V126.643H224.19V121.533H223.36ZM223.97 123.603V124.293H225.53V123.603H223.97ZM218.49 127.133V130.453H224.19V127.133H218.49ZM223.38 127.803V129.773H219.31V127.803H223.38ZM217.61 121.983V125.603H218.44V121.983H217.61ZM217.61 125.263V125.963H218.32C219.67 125.963 221.02 125.873 222.55 125.553L222.45 124.873C220.97 125.173 219.62 125.263 218.32 125.263H217.61ZM228.939 126.083V128.093H229.769V126.083H228.939ZM232.949 121.533V128.413H233.779V121.533H232.949ZM227.609 129.693V130.373H233.999V129.693H227.609ZM227.609 127.743V129.883H228.439V127.743H227.609ZM226.439 126.393C228.079 126.393 230.269 126.363 232.219 126.053L232.159 125.443C230.239 125.693 227.999 125.713 226.329 125.713L226.439 126.393ZM231.109 126.873V127.483H233.159V126.873H231.109ZM229.269 121.903C227.939 121.903 227.039 122.523 227.039 123.473C227.039 124.433 227.939 125.053 229.269 125.053C230.589 125.053 231.489 124.433 231.489 123.473C231.489 122.523 230.589 121.903 229.269 121.903ZM229.269 122.523C230.109 122.523 230.699 122.893 230.699 123.473C230.699 124.053 230.109 124.423 229.269 124.423C228.419 124.423 227.829 124.053 227.829 123.473C227.829 122.893 228.419 122.523 229.269 122.523ZM239.658 121.693C237.688 121.693 236.478 122.323 236.478 123.373C236.478 124.423 237.688 125.043 239.658 125.043C241.618 125.043 242.838 124.423 242.838 123.373C242.838 122.323 241.618 121.693 239.658 121.693ZM239.658 122.343C241.098 122.343 241.988 122.723 241.988 123.373C241.988 124.023 241.098 124.403 239.658 124.403C238.208 124.403 237.328 124.023 237.328 123.373C237.328 122.723 238.208 122.343 239.658 122.343ZM236.608 127.023V130.453H242.698V127.023H241.878V128.013H237.428V127.023H236.608ZM237.428 128.653H241.878V129.783H237.428V128.653ZM235.568 125.753V126.423H243.738V125.753H235.568Z" fill="#2D67F6"/>
<path d="M91.1404 76.1502C89.9704 76.1502 89.2204 77.3602 89.2204 79.3002C89.2204 81.2402 89.9704 82.4502 91.1404 82.4502C92.3104 82.4502 93.0704 81.2402 93.0704 79.3002C93.0704 77.3602 92.3104 76.1502 91.1404 76.1502ZM91.1404 76.9202C91.8504 76.9202 92.3004 77.8402 92.3004 79.3002C92.3004 80.7602 91.8504 81.6802 91.1404 81.6802C90.4304 81.6802 89.9804 80.7602 89.9804 79.3002C89.9804 77.8402 90.4304 76.9202 91.1404 76.9202ZM95.9904 75.4002V84.4402H96.7904V75.4002H95.9904ZM94.5604 78.9802V79.6602H96.2904V78.9802H94.5604ZM93.9904 75.5902V83.9902H94.7804V75.5902H93.9904ZM100.73 79.1402V80.7502H101.56V79.1402H100.73ZM104.88 75.4002V80.7202H105.71V75.4002H104.88ZM98.3796 79.4202C100.07 79.4202 102.23 79.4002 104.21 79.1102L104.16 78.5702C102.23 78.7902 100.02 78.8002 98.2796 78.8002L98.3796 79.4202ZM99.6496 81.0502V81.6502H104.89V82.3802H99.6696V83.9502H100.48V82.9302H105.71V81.0502H99.6496ZM99.6696 83.7402V84.3402H106.01V83.7402H99.6696ZM103.08 79.7002V80.2402H105.14V79.7002H103.08ZM101.2 75.5702C99.8496 75.5702 98.9696 76.0902 98.9696 76.9302C98.9696 77.7702 99.8496 78.2902 101.2 78.2902C102.54 78.2902 103.42 77.7702 103.42 76.9302C103.42 76.0902 102.54 75.5702 101.2 75.5702ZM101.2 76.1502C102.07 76.1502 102.64 76.4502 102.64 76.9302C102.64 77.4102 102.07 77.7102 101.2 77.7102C100.31 77.7102 99.7396 77.4102 99.7396 76.9302C99.7396 76.4502 100.31 76.1502 101.2 76.1502ZM111.589 75.5602C109.619 75.5602 108.409 76.1902 108.409 77.2402C108.409 78.2902 109.619 78.9102 111.589 78.9102C113.549 78.9102 114.769 78.2902 114.769 77.2402C114.769 76.1902 113.549 75.5602 111.589 75.5602ZM111.589 76.2102C113.029 76.2102 113.919 76.5902 113.919 77.2402C113.919 77.8902 113.029 78.2702 111.589 78.2702C110.139 78.2702 109.259 77.8902 109.259 77.2402C109.259 76.5902 110.139 76.2102 111.589 76.2102ZM108.539 80.8902V84.3202H114.629V80.8902H113.809V81.8802H109.359V80.8902H108.539ZM109.359 82.5202H113.809V83.6502H109.359V82.5202ZM107.499 79.6202V80.2902H115.669V79.6202H107.499Z" fill="#2D67F6"/>
<path d="M132.286 152.151V153.731H133.116V152.151H132.286ZM128.616 151.861V152.531H136.786V151.861H128.616ZM132.696 153.481C130.756 153.481 129.596 154.051 129.596 155.071C129.596 156.081 130.756 156.651 132.696 156.651C134.636 156.651 135.796 156.081 135.796 155.071C135.796 154.051 134.636 153.481 132.696 153.481ZM132.696 154.121C134.116 154.121 134.956 154.461 134.956 155.071C134.956 155.671 134.116 156.011 132.696 156.011C131.286 156.011 130.436 155.671 130.436 155.071C130.436 154.461 131.286 154.121 132.696 154.121ZM132.166 148.371V148.641C132.166 149.671 130.696 150.481 129.076 150.651L129.376 151.311C131.246 151.081 132.906 150.101 132.906 148.641V148.371H132.166ZM132.516 148.371V148.641C132.516 150.101 134.166 151.081 136.036 151.311L136.336 150.651C134.716 150.481 133.246 149.671 133.246 148.641V148.371H132.516ZM129.366 148.041V148.711H136.056V148.041H129.366ZM137.815 152.251V152.931H146.005V152.251H137.815ZM141.555 152.671V154.751H142.385V152.671H141.555ZM138.865 148.051V151.231H144.945V148.051H138.865ZM144.125 148.721V150.561H139.675V148.721H144.125ZM138.855 155.791V156.471H145.095V155.791H138.855ZM138.855 153.881V156.031H139.675V153.881H138.855Z" fill="#2D67F6"/>
<path d="M268.624 30.0292V30.6992H274.274V30.0292H268.624ZM267.604 33.9092V34.5892H275.774V33.9092H267.604ZM271.254 34.3592V38.4892H272.084V34.3592H271.254ZM273.884 30.0292V30.8092C273.884 31.7192 273.884 32.7692 273.534 34.2292L274.354 34.3392C274.694 32.8092 274.694 31.7492 274.694 30.8092V30.0292H273.884ZM279.123 30.5192V31.0492C279.123 32.2792 278.183 33.3492 276.843 33.7792L277.253 34.4292C278.763 33.9292 279.803 32.6392 279.803 31.0492V30.5192H279.123ZM279.273 30.5192V31.0492C279.273 32.5592 280.283 33.7992 281.783 34.2792L282.173 33.6292C280.853 33.2192 279.953 32.1992 279.953 31.0492V30.5192H279.273ZM277.113 30.2692V30.9592H281.953V30.2692H277.113ZM279.123 34.0492V36.1492H279.953V34.0492H279.123ZM283.503 33.1892V33.8892H285.173V33.1892H283.503ZM282.913 29.4392V38.4792H283.743V29.4392H282.913ZM276.803 36.5892C278.363 36.5992 280.483 36.5892 282.413 36.2492L282.343 35.6292C280.483 35.8992 278.283 35.8992 276.693 35.8992L276.803 36.5892ZM290.082 29.5992C288.112 29.5992 286.902 30.2292 286.902 31.2792C286.902 32.3292 288.112 32.9492 290.082 32.9492C292.042 32.9492 293.262 32.3292 293.262 31.2792C293.262 30.2292 292.042 29.5992 290.082 29.5992ZM290.082 30.2492C291.522 30.2492 292.412 30.6292 292.412 31.2792C292.412 31.9292 291.522 32.3092 290.082 32.3092C288.632 32.3092 287.752 31.9292 287.752 31.2792C287.752 30.6292 288.632 30.2492 290.082 30.2492ZM287.032 34.9292V38.3592H293.122V34.9292H292.302V35.9192H287.852V34.9292H287.032ZM287.852 36.5592H292.302V37.6892H287.852V36.5592ZM285.992 33.6592V34.3292H294.162V33.6592H285.992Z" fill="#2D67F6"/>
<path d="M263.76 108.158V110.738H264.59V108.158H263.76ZM266.55 108.158V110.738H267.37V108.158H266.55ZM261.5 110.518V111.208H269.69V110.518H261.5ZM262.21 104.088V104.768H268.92V104.088H262.21ZM262.23 107.708V108.378H268.91V107.708H262.23ZM263.62 104.638V107.848H264.45V104.638H263.62ZM266.7 104.638V107.848H267.52V104.638H266.7ZM275.329 105.388V106.078H277.609V105.388H275.329ZM272.959 103.808V104.918C272.959 106.298 272.049 107.578 270.709 108.078L271.139 108.738C272.649 108.128 273.629 106.668 273.629 104.918V103.808H272.959ZM273.119 103.808V104.948C273.119 106.558 274.089 107.958 275.529 108.518L275.979 107.878C274.669 107.398 273.789 106.208 273.789 104.948V103.808H273.119ZM277.299 103.268V110.028H278.129V103.268H277.299ZM272.319 111.418V112.098H278.349V111.418H272.319ZM272.319 109.278V111.738H273.149V109.278H272.319ZM284.228 104.848V105.528H286.758V104.848H284.228ZM284.228 106.778V107.468H286.778V106.778H284.228ZM280.308 104.038V108.278H284.438V104.038H280.308ZM283.618 104.708V107.608H281.118V104.708H283.618ZM286.498 103.268V109.868H287.328V103.268H286.498ZM281.518 111.418V112.098H287.548V111.418H281.518ZM281.518 109.268V111.728H282.348V109.268H281.518Z" fill="#2D67F6"/>
<path d="M295.166 72.7246V73.6546C295.166 75.0346 294.266 76.2446 292.886 76.7346L293.316 77.4146C294.866 76.8346 295.856 75.4046 295.856 73.6546V72.7246H295.166ZM295.316 72.7246V73.6246C295.316 75.2646 296.286 76.5946 297.746 77.1446L298.196 76.4946C296.876 76.0346 295.996 74.9046 295.996 73.6246V72.7246H295.316ZM299.496 72.2146V77.5646H300.326V72.2146H299.496ZM297.356 77.8246C295.486 77.8246 294.336 78.4546 294.336 79.5346C294.336 80.6146 295.486 81.2346 297.356 81.2346C299.216 81.2346 300.366 80.6146 300.366 79.5346C300.366 78.4546 299.216 77.8246 297.356 77.8246ZM297.356 78.4846C298.716 78.4846 299.546 78.8746 299.546 79.5346C299.546 80.1946 298.716 80.5846 297.356 80.5846C295.996 80.5846 295.166 80.1946 295.166 79.5346C295.166 78.8746 295.996 78.4846 297.356 78.4846ZM297.536 74.1246V74.8146H299.676V74.1246H297.536ZM304.316 72.7646V73.8746C304.316 75.2746 303.436 76.4946 302.056 76.9846L302.496 77.6446C304.016 77.0546 304.996 75.6446 304.996 73.8746V72.7646H304.316ZM304.456 72.7646V73.9046C304.456 75.4946 305.456 76.8746 306.946 77.4146L307.356 76.7646C306.036 76.2946 305.136 75.1346 305.136 73.9046V72.7646H304.456ZM308.276 72.2046V78.8846H309.106V72.2046H308.276ZM308.846 74.9846V75.6746H310.446V74.9846H308.846ZM303.496 80.3746V81.0546H309.506V80.3746H303.496ZM303.496 78.2546V80.7046H304.326V78.2546H303.496ZM315.375 72.3746C313.405 72.3746 312.195 73.0046 312.195 74.0546C312.195 75.1046 313.405 75.7246 315.375 75.7246C317.335 75.7246 318.555 75.1046 318.555 74.0546C318.555 73.0046 317.335 72.3746 315.375 72.3746ZM315.375 73.0246C316.815 73.0246 317.705 73.4046 317.705 74.0546C317.705 74.7046 316.815 75.0846 315.375 75.0846C313.925 75.0846 313.045 74.7046 313.045 74.0546C313.045 73.4046 313.925 73.0246 315.375 73.0246ZM312.325 77.7046V81.1346H318.415V77.7046H317.595V78.6946H313.145V77.7046H312.325ZM313.145 79.3346H317.595V80.4646H313.145V79.3346ZM311.285 76.4346V77.1046H319.455V76.4346H311.285Z" fill="#2D67F6"/>
</svg>
