<svg width="105" height="66" viewBox="0 0 105 66" fill="none" xmlns="http://www.w3.org/2000/svg">
<path d="M26.8909 21.692C29.1943 18.5013 31.5594 15.8957 35.074 15.6899C41.3887 14.9518 47.7446 12.6285 54.0962 13.1623C57.6342 13.8813 60.5917 16.8177 64.0975 17.722C66.7183 18.3984 69.6773 17.9661 71.8748 19.7658C73.5138 21.1083 78.5188 27.7148 79.9123 29.5072C88.3217 40.3219 89.5226 43.0686 97.5087 48.5826C100.512 50.6559 97.1824 52.9438 93.6413 55.4288C79.9123 55.4288 81.8985 52.6629 69.926 55.4288C55.4811 59.7811 58.3887 60.9368 42.7723 60.0781C37.0808 59.7649 27.0472 52.7693 21.3484 52.6046C-4.80886 55.4288 6.97063 48.9973 26.888 21.6906L26.8909 21.692Z" fill="#74BE71"/>
<path d="M99.0712 46.3196C92.97 42.1071 91.2177 39.7991 86.2532 33.2605C85.077 31.7113 83.7205 29.9247 82.0832 27.8191C81.9185 27.6072 81.6961 27.3186 81.4301 26.9734C80.6104 25.9098 79.3763 24.3083 78.1353 22.7527C77.3107 21.7192 76.463 20.6804 75.7082 19.8057C74.9996 18.9844 74.2362 18.1453 73.6174 17.6384L73.6172 17.6383C71.9429 16.267 70.0606 15.8294 68.5531 15.6031C68.0497 15.5275 67.4998 15.4652 67.0152 15.4102C66.8092 15.3868 66.615 15.3648 66.4412 15.3437C65.7948 15.2651 65.2617 15.1823 64.7847 15.0592L64.7843 15.0591C63.4754 14.7215 62.2114 13.9904 60.5072 13.0046L60.4859 12.9922C58.9166 12.0845 56.9195 10.9298 54.6438 10.4674C54.539 10.4461 54.433 10.4309 54.3264 10.4219C50.7641 10.1226 47.2859 10.6305 44.055 11.248C43.0523 11.4397 42.0882 11.6381 41.1483 11.8315C38.9708 12.2795 36.923 12.7009 34.8263 12.9501C30.0012 13.2732 26.9923 16.8662 24.7411 19.972C24.7155 20.0039 24.6906 20.0366 24.6662 20.07C20.3674 25.9636 16.4547 30.872 13.1971 34.9584C12.7128 35.5659 12.2431 36.1552 11.7887 36.7269C8.37927 41.0161 5.59873 44.5872 4.34543 47.2897C3.73509 48.6058 3.16381 50.3679 3.74274 52.1249C4.39434 54.1024 6.10718 55.0264 7.6377 55.4542C9.16446 55.8809 11.097 55.9991 13.3122 55.9566C15.5254 55.9141 18.2255 55.7043 21.4352 55.3611C22.3834 55.4202 23.6802 55.7549 25.3375 56.3739C27.0572 57.0162 28.9307 57.8718 30.914 58.784L31.1361 58.8862C33.0115 59.749 34.9828 60.656 36.8397 61.3687C38.7357 62.0965 40.7567 62.7213 42.6212 62.8239L42.6214 62.8239C50.406 63.252 53.9588 63.2128 57.4288 62.382C59.0556 61.9925 60.628 61.4373 62.5026 60.7753L62.7008 60.7053C64.6751 60.0083 67.1299 59.1454 70.6327 58.088C76.3351 56.7762 78.4828 56.8275 80.7777 57.1196C81.2722 57.1825 81.7884 57.26 82.3494 57.3443C84.7257 57.7012 87.9051 58.1788 93.6413 58.1788C94.2067 58.1788 94.7583 58.0045 95.221 57.6798L95.3606 57.5818C96.1869 57.0022 97.0685 56.3837 97.855 55.7692C98.6698 55.1325 99.5322 54.387 100.189 53.5532C100.823 52.7491 101.565 51.4828 101.405 49.9021C101.238 48.2423 100.175 47.0815 99.0712 46.3196ZM99.0712 46.3196L97.5087 48.5826L99.0712 46.3196Z" stroke="#404047" stroke-opacity="0.1" stroke-width="5.5" stroke-linejoin="round"/>
<path d="M75.6417 19.9909C76.5695 21.9458 80.6554 27.7406 79.0033 29.1365C77.005 30.8271 74.003 28.6368 71.4064 28.9634C67.4903 29.4555 68.1163 33.5005 64.2958 32.5056C62.8396 32.1259 59.0506 32.8094 57.933 31.8008C55.18 29.3173 50.8493 24.9118 47.5664 26.6358C46.1178 27.3968 39.356 31.8008 39.356 31.8008C32.6459 30.6327 38.0745 29.0484 28.0328 31.8008C10.5901 31.7522 45.6744 -1.21087 63.0928 7.49735C68.7278 9.77884 75.6417 19.9909 75.6417 19.9909Z" fill="#3DA95E"/>
<path d="M77.9189 18.4492L75.6417 19.9909C77.9189 18.4492 77.9186 18.4489 77.9184 18.4485L77.9177 18.4475L77.916 18.4449L77.9105 18.4369L77.8921 18.4098C77.8765 18.387 77.8543 18.3547 77.8258 18.3135C77.7689 18.231 77.6866 18.1126 77.581 17.9628C77.3699 17.6635 77.065 17.2378 76.6825 16.7218C75.9191 15.6922 74.8378 14.291 73.5683 12.81C72.3036 11.3346 70.8218 9.74425 69.256 8.35496C67.7482 7.01715 66.0226 5.73879 64.2276 4.9906C58.9393 2.39179 52.6627 3.05239 46.9248 5.01169C41.0874 7.0049 35.3317 10.4951 30.7508 14.235C26.2643 17.8978 22.4983 22.132 21.1274 25.7942C20.4444 27.6186 20.1017 30.0428 21.6279 32.0499C23.0965 33.9813 25.5759 34.544 28.0252 34.5508C28.2733 34.5515 28.5204 34.5186 28.7598 34.453C31.3011 33.7564 32.7614 33.3631 33.6819 33.162C33.9665 33.0998 34.1608 33.0661 34.2855 33.0476C34.4547 33.1406 34.7155 33.281 35.027 33.4231C35.8833 33.8136 37.0389 34.1888 38.8844 34.51C39.5694 34.6293 40.2742 34.4846 40.8568 34.1051L39.356 31.8008L40.8569 34.1051L40.8571 34.105L40.8579 34.1044L40.8614 34.1022L40.8756 34.0929L40.9317 34.0564L41.1471 33.9164C41.3337 33.7952 41.6022 33.6211 41.929 33.4097C42.5828 32.9867 43.4688 32.4153 44.3989 31.8209C46.3261 30.5891 48.2516 29.3823 48.845 29.0705L77.9189 18.4492ZM77.9189 18.4492C77.997 18.5647 78.0663 18.6859 78.1261 18.8118C78.2829 19.1422 78.5928 19.6758 79.0586 20.4776C79.0944 20.5393 79.1312 20.6026 79.1689 20.6675C79.6558 21.5061 80.2422 22.5256 80.7511 23.5465C81.2427 24.5326 81.7546 25.6992 81.9943 26.8166C82.1884 27.7214 82.4621 29.8131 80.7795 31.236L77.9189 18.4492ZM71.7493 31.6919L71.7496 31.6919C71.9756 31.6634 72.3183 31.679 72.8783 31.7889C73.259 31.8636 73.535 31.9326 73.8589 32.0136C74.1232 32.0797 74.4195 32.1538 74.8307 32.2455C76.1532 32.5405 78.6663 33.0227 80.7782 31.2371L71.7493 31.6919ZM71.7493 31.6919C71.011 31.7847 70.8142 32.0151 69.9866 32.9842C69.9603 33.015 69.9333 33.0465 69.9057 33.0788C69.4947 33.5598 68.7538 34.4193 67.6122 34.9417C66.359 35.5151 65.0059 35.5322 63.6027 35.1668L63.6019 35.1666M71.7493 31.6919L63.6019 35.1666M63.6019 35.1666C63.6019 35.1666 63.6016 35.1666 63.601 35.1665M63.6019 35.1666L63.601 35.1665M63.601 35.1665C63.5858 35.1641 63.3795 35.1319 62.8202 35.127M63.601 35.1665L62.8202 35.127M62.8202 35.127C62.475 35.124 62.2272 35.1276 61.9524 35.1317M62.8202 35.127L61.9524 35.1317M61.9524 35.1317C61.6897 35.1356 61.4023 35.1399 60.9817 35.139M61.9524 35.1317L60.9817 35.139M60.9817 35.139C60.3193 35.1376 59.5216 35.1177 58.769 35M60.9817 35.139L58.769 35M58.769 35C58.1061 34.8963 56.9875 34.6515 56.091 33.8427L58.769 35ZM56.0906 33.8423C55.8252 33.6029 55.5584 33.3588 55.2903 33.1135C54.0433 31.9722 52.7661 30.8034 51.4478 29.945C49.7142 28.8161 49.0377 28.9696 48.8453 29.0703L56.0906 33.8423Z" stroke="#404047" stroke-opacity="0.1" stroke-width="5.5" stroke-linejoin="round"/>
<path d="M64.1583 15.062C64.1583 16.428 64.6028 17.6926 56.4272 17.6926C53.6373 17.6926 46.1782 17.9161 43.9498 17.6926C32.6506 16.3854 41.1858 13.2847 49.9982 10.6647C52.8425 10.5633 58.7002 9.4899 60.4779 10.6647L64.1583 15.062Z" fill="#95D5FF"/>
<path d="M66.9083 15.062C66.9083 14.4167 66.6813 13.7919 66.2671 13.297L62.5868 8.89974C62.4159 8.69556 62.2163 8.51728 61.9941 8.37048C60.9286 7.66632 59.6224 7.48171 58.6953 7.41248C57.6614 7.33527 56.5247 7.37195 55.4578 7.44205C54.4606 7.50757 53.4386 7.6088 52.5289 7.69891C52.457 7.70604 52.3857 7.7131 52.3152 7.72006C51.3164 7.81877 50.5081 7.89481 49.9002 7.9165C49.6678 7.92478 49.4375 7.96251 49.2146 8.02877C46.9952 8.68859 44.7462 9.39237 42.8041 10.1008C40.9354 10.7825 39.0947 11.5571 37.8635 12.4123C37.3254 12.7859 36.3919 13.511 35.9824 14.6669C35.7399 15.3515 35.6944 16.1582 35.9903 16.9616C36.2672 17.7132 36.7577 18.2317 37.1818 18.5676C37.9709 19.1922 38.9893 19.5454 39.9152 19.785C40.9153 20.0439 42.1551 20.2533 43.6338 20.4244C43.6477 20.426 43.6615 20.4275 43.6754 20.4289C44.9779 20.5595 47.5805 20.5534 50.0088 20.5262C51.0846 20.5142 52.1493 20.4974 53.1245 20.482C54.4609 20.461 55.6291 20.4426 56.4272 20.4426C58.5269 20.4426 60.1598 20.3622 61.4287 20.202C62.6546 20.0472 63.7586 19.794 64.655 19.3148C65.6981 18.7572 66.4413 17.8983 66.7502 16.7836C66.9606 16.024 66.9117 15.1251 66.9084 15.0652C66.9083 15.0633 66.9083 15.0622 66.9083 15.062Z" stroke="#404047" stroke-opacity="0.1" stroke-width="5.5" stroke-linejoin="round"/>
<path d="M66.3389 29.5272C68.3319 36.8519 70.5736 44.107 73.0613 51.2781C73.1964 51.6692 73.8218 51.5014 73.6854 51.106C71.1977 43.9349 68.9545 36.6784 66.9629 29.3551C66.8535 28.9541 66.2294 29.1233 66.3389 29.5272Z" fill="#3DA95E"/>
<path d="M63.6853 30.2492L63.6846 30.2466C63.4544 29.3971 63.5904 28.483 64.0956 27.7348C64.5589 27.0486 65.2236 26.6562 65.8435 26.4867C66.463 26.3173 67.2343 26.3168 67.9817 26.6711C68.7975 27.0578 69.3827 27.7768 69.6159 28.631L69.6165 28.6335C71.5916 35.8961 73.8163 43.0927 76.2835 50.2048L76.2848 50.2087C76.5732 51.044 76.5072 52.0109 75.9835 52.8326C75.5096 53.5762 74.809 53.9741 74.1969 54.1406C73.0137 54.4624 71.1197 54.074 70.4632 52.1794L63.6853 30.2492ZM63.6853 30.2492C65.6946 37.6337 67.9547 44.9482 70.4628 52.1783L63.6853 30.2492Z" stroke="#404047" stroke-opacity="0.1" stroke-width="5.5" stroke-linejoin="round"/>
<path d="M73.3259 38.6531C73.741 39.1593 77.1257 50.588 77.437 47.8833C77.0233 47.3771 73.6372 35.9485 73.3259 38.6531Z" fill="#3DA95E"/>
<path d="M70.5939 38.3387C70.5271 38.9196 70.6474 39.5023 70.9308 40.0045C70.954 40.0613 70.9876 40.1472 71.0329 40.2685C71.1525 40.5888 71.31 41.0369 71.5006 41.5881C71.5827 41.8254 71.6702 42.0796 71.7618 42.346C72.0862 43.289 72.4626 44.3832 72.8352 45.4103C73.2966 46.6818 73.8201 48.044 74.2877 48.9332C74.4091 49.1641 74.566 49.4397 74.7563 49.7005L74.7612 49.7072C74.8788 49.8685 75.3094 50.459 76.0726 50.7976C76.5529 51.0108 77.2991 51.1789 78.1337 50.9039C78.9381 50.639 79.4113 50.0973 79.6512 49.7274C80.0623 49.0937 80.1423 48.4296 80.1689 48.1978C80.2357 47.6176 80.1157 47.0356 79.8331 46.5337C79.8099 46.4768 79.7761 46.3904 79.7306 46.2686C79.611 45.948 79.4535 45.4997 79.2629 44.9485C79.1817 44.7137 79.0953 44.4624 79.0047 44.1992C78.6796 43.2541 78.302 42.1564 77.9281 41.126C77.4666 39.8544 76.943 38.4921 76.4752 37.6029C76.3538 37.372 76.1968 37.0964 76.0064 36.8356C76.0049 36.8335 76.0033 36.8313 76.0016 36.829C75.8839 36.6676 75.4533 36.0772 74.69 35.7387C74.2098 35.5256 73.4638 35.3576 72.6294 35.6324C71.8252 35.8973 71.3519 36.4388 71.1118 36.8088C70.7006 37.4425 70.6206 38.1067 70.5939 38.3387Z" stroke="#404047" stroke-opacity="0.1" stroke-width="5.5" stroke-linejoin="round"/>
<path d="M38.1014 29.6683C35.5398 34.7476 32.8659 39.7744 30.5246 44.9619C30.3497 45.6786 28.1279 49.5976 28.9112 49.7384C29.0945 49.7881 29.2452 49.6758 29.3092 49.5123C31.3434 44.2949 33.9192 39.3165 36.4538 34.331C37.1888 32.8862 37.9237 31.4401 38.6601 29.9953C38.8491 29.6242 38.2905 29.2971 38.1014 29.6683Z" fill="#3DA95E"/>
<path d="M35.651 28.42L35.651 28.42C36.0536 27.6297 36.7944 27.0129 37.7377 26.8177C38.5927 26.6407 39.3627 26.8587 39.9119 27.1802C40.9835 27.8076 42.0243 29.4496 41.1104 31.2436L41.1102 31.2441C40.562 32.3195 40.0149 33.3954 39.4673 34.4721C39.28 34.8404 39.0927 35.2088 38.9052 35.5773L35.651 28.42ZM35.651 28.42L35.646 28.43M35.651 28.42L35.646 28.43M35.646 28.43C35.0174 29.6763 34.3763 30.9304 33.7312 32.1922C31.7843 36.0007 29.8011 39.88 28.0181 43.8306C27.966 43.946 27.922 44.0647 27.8863 44.1861M35.646 28.43L27.8863 44.1861M27.8863 44.1861C27.8786 44.2052 27.8663 44.2352 27.848 44.2775C27.7904 44.4109 27.7082 44.5898 27.5989 44.8229C27.5557 44.9149 27.5087 45.0145 27.4589 45.12C27.2715 45.5171 27.0454 45.9962 26.8425 46.4563C26.5988 47.0088 26.3047 47.7173 26.1424 48.3584C26.0724 48.6346 25.944 49.1991 26.016 49.8326C26.0543 50.1694 26.1712 50.7344 26.5767 51.2902C27.0034 51.8751 27.6115 52.2583 28.2721 52.4134C30.1567 52.8778 31.4625 51.5563 31.8702 50.5141L31.8713 50.5112C33.7252 45.7564 36.0471 41.1939 38.4378 36.4961C38.5933 36.1906 38.749 35.8845 38.9049 35.5778L27.8863 44.1861ZM31.4741 49.7085C31.4742 49.7082 31.4742 49.7078 31.4743 49.7075C31.4668 49.7507 31.4625 49.7544 31.4741 49.7085Z" stroke="#404047" stroke-opacity="0.1" stroke-width="5.5" stroke-linejoin="round"/>
<path d="M39.4591 39.5808C38.4299 42.5172 37.4022 45.4551 36.373 48.3915C36.0816 49.2234 35.7901 50.0552 35.4987 50.8871C35.3608 51.281 35.9863 51.4502 36.1228 51.0592C37.152 48.1228 38.1797 45.1849 39.2089 42.2485L40.0832 39.7529C40.2211 39.359 39.5956 39.1897 39.4591 39.5808Z" fill="#3DA95E"/>
<path d="M33.7778 47.4819L33.7776 47.4823L33.3405 48.7301L32.9034 49.9779L32.9032 49.9785C32.6104 50.8148 32.6737 51.7848 33.1976 52.6096C33.6712 53.3552 34.3723 53.7534 34.9833 53.9203C36.1646 54.243 38.0563 53.8588 38.718 51.9688C39.2328 50.5001 39.7471 49.0312 40.2613 47.5627L40.2629 47.5581C40.7767 46.091 41.2902 44.6243 41.8042 43.1581L41.8043 43.1577L42.6785 40.6621L42.6787 40.6615C42.9715 39.8252 42.9083 38.8552 42.3843 38.0303C41.9108 37.2848 41.2096 36.8865 40.5986 36.7196C39.4174 36.397 37.5257 36.7812 36.8639 38.6712C36.3492 40.1399 35.8348 41.6088 35.3206 43.0773C34.8063 44.5459 34.2922 46.0141 33.7778 47.4819Z" stroke="#404047" stroke-opacity="0.1" stroke-width="5.5" stroke-linejoin="round"/>
<path d="M51.2595 45.8375C51.5111 46.4177 51.5353 57.6629 52.5886 55.2284C52.337 54.6483 52.3128 43.4031 51.2595 45.8375Z" fill="#3DA95E"/>
<path d="M48.7356 44.7455C48.4994 45.2914 48.4482 45.8949 48.5822 46.4657C48.5877 46.52 48.5949 46.6006 48.6033 46.7126C48.6272 47.0319 48.6514 47.4773 48.6785 48.0274C48.6899 48.2576 48.7016 48.5039 48.7139 48.7619C48.7589 49.7064 48.8113 50.8071 48.8793 51.8434C48.9623 53.1099 49.0804 54.4995 49.2829 55.4454C49.3356 55.6918 49.4128 56.0005 49.5316 56.3077L49.5346 56.3156C49.6073 56.5036 49.8863 57.2262 50.6011 57.7564C51.0575 58.0949 51.7458 58.39 52.5808 58.31C53.3638 58.2349 53.9153 57.8633 54.2215 57.5933C54.759 57.1194 55.0164 56.5425 55.1125 56.3205C55.3487 55.7745 55.3999 55.1711 55.2659 54.6003C55.2604 54.546 55.2532 54.4654 55.2448 54.3534C55.2209 54.0341 55.1967 53.5887 55.1696 53.0386C55.1582 52.8084 55.1465 52.5621 55.1342 52.3041C55.0892 51.3596 55.0368 50.2589 54.9688 49.2225C54.8858 47.9561 54.7677 46.5665 54.5652 45.6206C54.5125 45.3742 54.4353 45.0655 54.3165 44.7583C54.3155 44.7558 54.3145 44.7531 54.3135 44.7504C54.2409 44.5624 53.9618 43.8398 53.247 43.3096C52.7906 42.9711 52.1023 42.676 51.2673 42.756C50.4843 42.831 49.9328 43.2027 49.6266 43.4727C49.0891 43.9465 48.8317 44.5235 48.7356 44.7455Z" stroke="#404047" stroke-opacity="0.1" stroke-width="5.5" stroke-linejoin="round"/>
<path d="M83.3522 40.2976C85.2528 43.5255 87.3254 46.6525 89.5643 49.6557C89.6681 49.7951 89.8444 49.8676 90.0064 49.7723C90.1443 49.6913 90.2282 49.4709 90.123 49.3301C88.383 46.9923 86.7397 44.5806 85.2016 42.1049C84.7638 41.3996 84.3331 40.6872 83.9123 39.9719C83.7005 39.6136 83.1418 39.9392 83.3536 40.299L83.3522 40.2976Z" fill="#3DA95E"/>
<path d="M80.898 41.5384C80.5232 40.8099 80.4459 39.9544 80.7205 39.1536C80.9902 38.3673 81.5327 37.8154 82.087 37.4916C82.6416 37.1677 83.3842 36.9687 84.1946 37.115C85.0784 37.2746 85.8298 37.8115 86.2797 38.5726L86.2826 38.5775L86.2826 38.5775C86.692 39.2735 87.1112 39.967 87.5375 40.6537L80.898 41.5384ZM80.898 41.5384C80.9243 41.5904 80.9525 41.642 80.9825 41.6928C82.9323 45.0044 85.0595 48.214 87.3587 51.2982L80.898 41.5384ZM90.123 49.3301L92.3259 47.684C93.0401 48.6398 92.9904 49.7008 92.7881 50.3697C92.5919 51.0186 92.1462 51.7044 91.4 52.1431C89.6393 53.1781 88.0012 52.1599 87.3596 51.2994L90.0795 49.2717C90.0796 49.2717 90.0797 49.2718 90.0797 49.2719C90.0941 49.2913 90.1086 49.3107 90.123 49.3301ZM90.123 49.3301L92.329 47.6882C90.6349 45.412 89.0352 43.0642 87.5381 40.6545L90.123 49.3301ZM85.7234 38.9038C85.7238 38.9044 85.7242 38.9051 85.7246 38.9058L85.7234 38.9038Z" stroke="#404047" stroke-opacity="0.1" stroke-width="5.5" stroke-linejoin="round"/>
<path d="M11.4705 50.0582C14.8367 45.9998 18.2626 41.9898 21.7482 38.0324C22.0225 37.7209 21.5662 37.2616 21.2905 37.5745C17.8063 41.5319 14.3789 45.5405 11.0127 49.6003C10.7227 49.8961 11.1776 50.3611 11.4705 50.0582Z" fill="#3DA95E"/>
<path d="M13.5871 51.8139C13.5426 51.8676 13.496 51.9195 13.4475 51.9697C12.8347 52.6035 11.9668 52.9649 11.0401 52.8992C10.1945 52.8392 9.51787 52.4427 9.06765 51.9874C8.61654 51.5312 8.24427 50.8677 8.17951 50.0587C8.11341 49.2331 8.38581 48.4223 8.93376 47.7993C12.3054 43.7338 15.7378 39.7198 19.2264 35.7573L19.2276 35.756C19.8134 35.0914 20.6871 34.6744 21.6567 34.7238C22.5343 34.7685 23.2254 35.1785 23.6735 35.6281C24.5434 36.501 25.1388 38.3435 23.8119 39.85L13.5871 51.8139ZM13.5871 51.8139C16.9362 47.7761 20.3444 43.7868 23.8116 39.8502L13.5871 51.8139Z" stroke="#404047" stroke-opacity="0.1" stroke-width="5.5" stroke-linejoin="round"/>
<path d="M25.6218 33.1603C26.6368 31.4212 27.9418 29.8727 29.4813 28.573C29.7997 28.3042 29.3406 27.8477 29.0236 28.1151C28.5204 28.2672 23.3374 34.0605 25.6218 33.1603Z" fill="#3DA95E"/>
<path d="M27.9969 34.5465C27.6858 35.0796 27.2043 35.4926 26.63 35.7189C26.3743 35.8196 25.9723 35.957 25.4969 35.995C25.0619 36.0297 24.0487 36.0156 23.1914 35.1963C22.3075 34.3515 22.2666 33.3057 22.3022 32.835C22.3391 32.3457 22.4848 31.9476 22.576 31.726C22.9149 30.9031 23.6026 29.9802 24.1216 29.3249C24.7133 28.5779 25.3906 27.8067 25.9612 27.2038C26.2449 26.9042 26.5261 26.6206 26.7736 26.3921C26.8942 26.2807 27.0382 26.1533 27.1895 26.0356C27.2645 25.9773 27.3714 25.8978 27.4997 25.8172C27.5153 25.8074 27.536 25.7945 27.5612 25.7793C29.0018 24.8208 30.6276 25.393 31.4326 26.1958C31.8796 26.6415 32.2986 27.3399 32.3363 28.2347C32.3781 29.2274 31.9322 30.1028 31.2553 30.6743L27.9969 34.5465ZM27.9969 34.5465C28.8525 33.0805 29.9534 31.7734 31.2551 30.6745L27.9969 34.5465ZM30.7965 30.2173C30.7457 30.2601 30.6946 30.3001 30.6432 30.3376C30.6956 30.2994 30.7467 30.2593 30.7965 30.2173Z" stroke="#404047" stroke-opacity="0.1" stroke-width="5.5" stroke-linejoin="round"/>
<path d="M54.3055 10.6711C54.4024 10.6792 54.4987 10.693 54.594 10.7124C56.8237 11.1655 58.7868 12.2982 60.3607 13.2086L60.4061 13.2349C62.0902 14.2091 63.3796 14.955 64.7219 15.3012L64.7222 15.3013C65.2154 15.4286 65.7615 15.5129 66.4111 15.5919C66.5889 15.6135 66.7856 15.6358 66.9931 15.6593C67.4758 15.7141 68.0172 15.7755 68.516 15.8503C70.0084 16.0743 71.8368 16.5032 73.4588 17.8317L73.459 17.8318C74.0588 18.3231 74.8091 19.1464 75.5189 19.969C76.2706 20.8402 77.1161 21.8761 77.9399 22.9086C79.1794 24.4623 80.411 26.0606 81.2308 27.1243C81.4973 27.4702 81.7203 27.7596 81.8859 27.9726L54.3055 10.6711ZM54.3055 10.6711C50.7783 10.3747 47.3275 10.877 44.1019 11.4936C43.1074 11.6837 42.1477 11.8811 41.2099 12.0741C39.0253 12.5236 36.9595 12.9487 34.8493 13.1991C30.1439 13.5113 27.1938 17.0137 24.94 20.1236C24.9154 20.1541 24.8915 20.1854 24.8682 20.2173C20.566 26.1156 16.6499 31.0282 13.3923 35.1146C12.9082 35.7219 12.4385 36.3111 11.9844 36.8824C8.56706 41.1816 5.81 44.7258 4.57222 47.3949C3.96817 48.6974 3.43235 50.384 3.98019 52.0467C4.59409 53.9098 6.21076 54.7958 7.705 55.2134C9.19582 55.6301 11.0988 55.749 13.3074 55.7066C15.5148 55.6643 18.2136 55.4545 21.4294 55.1103C22.4183 55.1681 23.7499 55.5141 25.4249 56.1397C27.1547 56.7858 29.0368 57.6454 31.0184 58.5569C31.0914 58.5904 31.1644 58.6241 31.2376 58.6578C33.1154 59.5217 35.0801 60.4256 36.9293 61.1353C38.8193 61.8608 40.8106 62.4739 42.635 62.5743L42.6351 62.5743C50.4218 63.0025 53.9406 62.9601 57.3706 62.1389C58.9844 61.7525 60.5455 61.2012 62.4254 60.5374L62.6176 60.4695C64.5945 59.7717 67.0558 58.9065 70.5685 57.8462C76.2969 56.5279 78.4762 56.5746 80.8093 56.8716C81.3073 56.935 81.8258 57.0128 82.3883 57.0973C84.764 57.4541 87.9251 57.9288 93.6413 57.9288C94.1553 57.9288 94.6567 57.7704 95.0774 57.4751M54.3055 10.6711L95.0774 57.4751M95.0774 57.4751L95.2157 57.3781C96.0433 56.7976 96.9199 56.1825 97.7011 55.5722C98.5112 54.9391 99.3546 54.2084 99.9927 53.3985C100.61 52.6156 101.306 51.4137 101.157 49.9271C101 48.3688 100.001 47.2651 98.9291 46.5253M95.0774 57.4751L98.9291 46.5253M98.9291 46.5253C92.7934 42.2889 91.0176 39.9499 86.0474 33.4032M98.9291 46.5253L86.0474 33.4032M86.0474 33.4032C84.8722 31.8552 83.5183 30.072 81.886 27.9727L86.0474 33.4032Z" fill="#74BE71" stroke="white" stroke-width="5" stroke-linejoin="round"/>
<path d="M77.7119 18.5894L75.6417 19.9909C77.7119 18.5894 77.7117 18.589 77.7114 18.5887L77.7108 18.5878L77.7091 18.5853L77.7038 18.5775L77.6857 18.5509C77.6703 18.5284 77.6484 18.4964 77.6201 18.4555C77.5636 18.3736 77.4818 18.2559 77.3767 18.1069C77.1666 17.809 76.8629 17.385 76.4816 16.8707C75.7208 15.8445 74.6432 14.4481 73.3785 12.9727C72.1182 11.5024 70.6445 9.92115 69.0901 8.54196C67.5888 7.20989 65.8846 5.95064 64.1243 5.21839C58.9207 2.65791 52.7184 3.29756 47.0055 5.24827C41.202 7.22997 35.4719 10.7033 30.9089 14.4287C26.4317 18.0839 22.7085 22.2834 21.3615 25.8818C20.6903 27.675 20.378 29.9931 21.8269 31.8986C23.2234 33.7352 25.601 34.294 28.0259 34.3008C28.2515 34.3014 28.4761 34.2715 28.6937 34.2119C31.2322 33.5161 32.7 33.1206 33.6285 32.9177C33.9861 32.8396 34.2081 32.8046 34.3333 32.7885C34.3367 32.7904 34.3402 32.7923 34.3437 32.7942C34.5076 32.8847 34.7868 33.0388 35.1307 33.1956C35.963 33.5751 37.0971 33.9452 38.9273 34.2638C39.55 34.3722 40.1907 34.2406 40.7204 33.8957L39.356 31.8008L40.7204 33.8956L40.7206 33.8955L40.7215 33.8949L40.725 33.8927L40.7392 33.8834L40.7954 33.8469L41.011 33.7068C41.1977 33.5855 41.4662 33.4113 41.7932 33.1998C42.4473 32.7766 43.3336 32.205 44.2643 31.6102C46.1864 30.3817 48.1235 29.1672 48.7287 28.8492L77.7119 18.5894ZM77.7119 18.5894C77.7829 18.6943 77.8459 18.8045 77.9002 18.919M77.7119 18.5894L77.9002 18.919M77.9002 18.919C78.0617 19.2593 78.3768 19.8016 78.8377 20.5951M77.9002 18.919L78.8377 20.5951M71.7181 31.4439L71.7184 31.4438C71.9828 31.4106 72.3557 31.4316 72.9265 31.5436C73.3092 31.6187 73.5954 31.6902 73.9266 31.7728C74.1927 31.8393 74.4877 31.9129 74.8851 32.0015C76.2078 32.2965 78.6061 32.7463 80.6168 31.0461L71.7181 31.4439ZM71.7181 31.4439C70.8828 31.5488 70.6251 31.8508 69.8203 32.7939M71.7181 31.4439L69.8203 32.7939M78.8377 20.5951C78.8751 20.6594 78.9134 20.7254 78.9527 20.793M78.8377 20.5951L78.9527 20.793M78.9527 20.793C79.4396 21.6317 80.0225 22.6451 80.5274 23.658M78.9527 20.793L80.5274 23.658M80.5274 23.658C81.0166 24.6394 81.5169 25.7832 81.7499 26.8691M80.5274 23.658L81.7499 26.8691M81.7499 26.8691C81.9414 27.7616 82.1852 29.7199 80.618 31.0451L81.7499 26.8691ZM69.8203 32.7939C69.7864 32.8336 69.7516 32.8744 69.7157 32.9164M69.8203 32.7939L69.7157 32.9164M69.7157 32.9164C69.3051 33.3967 68.595 34.217 67.5081 34.7143M69.7157 32.9164L67.5081 34.7143M67.5081 34.7143C66.3198 35.2581 65.0282 35.2797 63.6657 34.9249M67.5081 34.7143L63.6657 34.9249M63.6657 34.9249C63.6668 34.9252 63.6674 34.9253 63.6674 34.9254M63.6657 34.9249L63.6674 34.9254M63.6674 34.9254C63.6673 34.9256 63.6048 34.912 63.4507 34.8997M63.6674 34.9254L63.4507 34.8997M63.4507 34.8997C63.2887 34.8867 63.0825 34.8793 62.8224 34.877M63.4507 34.8997L62.8224 34.877M62.8224 34.877C62.4804 34.874 62.2261 34.8777 61.9458 34.8818M62.8224 34.877L61.9458 34.8818M61.9458 34.8818C61.6801 34.8857 61.3911 34.8899 60.9822 34.889M61.9458 34.8818L60.9822 34.889M60.9822 34.889C60.3224 34.8876 59.5404 34.8676 58.8076 34.753M60.9822 34.889L58.8076 34.753M58.8076 34.753C58.1563 34.6511 57.0988 34.4153 56.2584 33.6571M58.8076 34.753L56.2584 33.6571M56.2584 33.6571C55.9961 33.4204 55.7314 33.1782 55.4646 32.9339M56.2584 33.6571L55.4646 32.9339M55.4646 32.9339C54.2171 31.7921 52.9214 30.6062 51.5842 29.7355M55.4646 32.9339L51.5842 29.7355M51.5842 29.7355C49.8408 28.6002 49.0529 28.6792 48.7291 28.849L51.5842 29.7355Z" fill="#3DA95E" stroke="white" stroke-width="5" stroke-linejoin="round"/>
<path d="M66.6583 15.062C66.6583 14.4754 66.4519 13.9074 66.0754 13.4575L62.3951 9.06019C62.2397 8.87458 62.0582 8.71251 61.8563 8.57905C60.8472 7.9122 59.5962 7.73045 58.6766 7.66178C57.6601 7.58587 56.5369 7.62168 55.4741 7.69151C54.4813 7.75674 53.4633 7.85758 52.5529 7.94775C52.4812 7.95486 52.4101 7.9619 52.3398 7.96885C51.3429 8.06736 50.5264 8.14432 49.9091 8.16634C49.6979 8.17387 49.4884 8.20817 49.2858 8.26841C47.0679 8.92778 44.8247 9.62986 42.8897 10.3357C41.0216 11.0172 39.2082 11.7827 38.0061 12.6176C37.4755 12.9861 36.5997 13.6731 36.218 14.7504C35.9929 15.386 35.9513 16.1323 36.2249 16.8752C36.4812 17.571 36.9366 18.0545 37.337 18.3715C38.0839 18.9629 39.0606 19.3057 39.9778 19.543C40.9625 19.7979 42.1898 20.0056 43.6625 20.176L43.7004 20.1801C44.9858 20.309 47.5719 20.3035 50.006 20.2762C51.0783 20.2642 52.1418 20.2475 53.1169 20.2321C54.4556 20.211 55.6277 20.1926 56.4272 20.1926C58.5219 20.1926 60.1431 20.1123 61.3974 19.954C62.6125 19.8005 63.6808 19.5521 64.5372 19.0943C65.5268 18.5653 66.2206 17.7585 66.5092 16.7168C66.6993 16.0306 66.6652 15.2268 66.6591 15.0834C66.6586 15.0719 66.6583 15.0647 66.6583 15.062Z" fill="#95D5FF" stroke="white" stroke-width="5" stroke-linejoin="round"/>
<path d="M63.9259 30.1812L63.9266 30.1836C65.9343 37.5626 68.1927 44.8715 70.6989 52.0961C71.3015 53.8374 73.0412 54.1958 74.1313 53.8993C74.6949 53.746 75.3381 53.3802 75.7727 52.6983C76.2525 51.9453 76.3138 51.0586 76.0485 50.2903L76.0473 50.2867C73.5782 43.1692 71.3519 35.9672 69.3753 28.6991L69.3747 28.6968C69.1602 27.9112 68.6228 27.2516 67.8746 26.897C67.1886 26.5718 66.4797 26.5719 65.9094 26.7279C65.3388 26.8839 64.7281 27.2448 64.3028 27.8747C63.8395 28.5609 63.7141 29.3997 63.9259 30.1812ZM75.4244 50.462L75.4232 50.4587L75.4244 50.462Z" fill="#3DA95E" stroke="white" stroke-width="5" stroke-linejoin="round"/>
<path d="M70.8423 38.3672C70.7809 38.9004 70.8931 39.4353 71.1561 39.8949C71.1809 39.9552 71.2175 40.0483 71.2671 40.181C71.3879 40.5045 71.5463 40.9553 71.7369 41.5064C71.8192 41.7444 71.9069 41.9992 71.9986 42.2659C72.3229 43.2087 72.6984 44.3001 73.0703 45.325C73.5323 46.5983 74.0504 47.945 74.5089 48.8169C74.6277 49.0427 74.7781 49.3063 74.9582 49.5531L74.9618 49.558C75.0742 49.7121 75.4723 50.2578 76.174 50.5691C76.6134 50.7641 77.2944 50.9172 78.0555 50.6665C78.7891 50.4248 79.2215 49.9306 79.4415 49.5914C79.819 49.0094 79.8945 48.3953 79.9206 48.1692C79.9819 47.6367 79.8701 47.1025 79.6078 46.6432C79.5828 46.5828 79.5462 46.4893 79.4964 46.356C79.3756 46.0323 79.2172 45.5813 79.0266 45.0302C78.9452 44.7947 78.8586 44.5428 78.7679 44.2793C78.4429 43.3344 78.0662 42.2395 77.6931 41.2113C77.231 39.9379 76.7126 38.5912 76.254 37.7193C76.1352 37.4935 75.9847 37.2298 75.8045 36.983C75.8034 36.9814 75.8022 36.9798 75.801 36.9781C75.6885 36.8241 75.2904 36.2785 74.5887 35.9672C74.1493 35.7723 73.4685 35.6193 72.7076 35.8699C71.9741 36.1114 71.5417 36.6055 71.3215 36.9448C70.9439 37.5269 70.8683 38.141 70.8423 38.3672Z" fill="#3DA95E" stroke="white" stroke-width="5" stroke-linejoin="round"/>
<path d="M35.8738 28.5335L35.8738 28.5335C36.2441 27.8066 36.9239 27.2414 37.7884 27.0625C38.5725 26.9002 39.28 27.1 39.7856 27.396C40.7724 27.9737 41.7271 29.4823 40.8877 31.1301L40.8874 31.1306C40.3391 32.2065 39.7916 33.2829 39.2438 34.3601C39.0567 34.7279 38.8696 35.0959 38.6824 35.464L35.8738 28.5335ZM35.8738 28.5335L35.8692 28.5425M35.8738 28.5335L35.8692 28.5425M35.8692 28.5425C35.2393 29.7916 34.5973 31.0474 33.9517 32.3103C32.0054 36.1174 30.0262 39.9889 28.2459 43.9334C28.197 44.0417 28.156 44.1534 28.123 44.2674M35.8692 28.5425L28.123 44.2674M28.123 44.2674C28.1154 44.2866 28.1011 44.322 28.0775 44.3766C28.0183 44.5139 27.9346 44.6958 27.8252 44.9291C27.7816 45.022 27.7343 45.1224 27.6843 45.2283C27.4969 45.6253 27.2727 46.1004 27.0712 46.5572C26.8279 47.1088 26.5415 47.8007 26.3847 48.4198C26.3165 48.689 26.1977 49.2173 26.2644 49.8043C26.2998 50.1161 26.4076 50.6343 26.7786 51.1428C27.1693 51.6784 27.7261 52.029 28.3316 52.1706C30.0609 52.5963 31.2611 51.385 31.6374 50.423L31.6384 50.4204C33.497 45.6536 35.8242 41.0807 38.2136 36.3855C38.3695 36.079 38.5257 35.7721 38.6821 35.4645L28.123 44.2674ZM31.2231 49.6874C31.2226 49.6878 31.2242 49.678 31.2293 49.6567C31.2261 49.6764 31.2236 49.687 31.2231 49.6874Z" fill="#3DA95E" stroke="white" stroke-width="5" stroke-linejoin="round"/>
<path d="M34.0137 47.5646L34.0136 47.565L33.5764 48.8128L33.1393 50.0606L33.1391 50.0611C32.8698 50.8303 32.9286 51.7198 33.4086 52.4756C33.8429 53.1593 34.4866 53.5255 35.0492 53.6792C36.1372 53.9764 37.8743 53.622 38.4821 51.8861C38.9966 50.418 39.5108 48.9495 40.0249 47.4815L40.0254 47.48C40.5397 46.0114 41.0538 44.5432 41.5682 43.0754L41.5684 43.075L42.4426 40.5794L42.4428 40.5789C42.7121 39.8096 42.6534 38.9201 42.1733 38.1644C41.739 37.4807 41.0953 37.1145 40.5327 36.9608C39.4447 36.6636 37.7076 37.0179 37.0998 38.7539C36.5851 40.2225 36.0708 41.6914 35.5565 43.1599L35.5565 43.1599L35.5561 43.161C35.042 44.6293 34.528 46.0972 34.0137 47.5646ZM33.7635 50.2323C33.7638 50.2315 33.7641 50.2307 33.7643 50.2299L33.7635 50.2323Z" fill="#3DA95E" stroke="white" stroke-width="5" stroke-linejoin="round"/>
<path d="M48.965 44.8448C48.7482 45.3459 48.7029 45.9003 48.8291 46.4236C48.8353 46.4818 48.8433 46.5699 48.8526 46.694C48.8767 47.0168 48.9011 47.4651 48.9282 48.0151C48.9396 48.246 48.9514 48.4929 48.9637 48.7513C49.0087 49.6957 49.061 50.7932 49.1288 51.8271C49.212 53.0957 49.3292 54.4676 49.5273 55.393C49.5788 55.6335 49.6527 55.9278 49.7647 56.2175L49.7671 56.2235C49.8362 56.4023 50.0937 57.0688 50.75 57.5556C51.1672 57.8651 51.7954 58.1341 52.5569 58.0611C53.2712 57.9927 53.7752 57.6535 54.0562 57.4058C54.5501 56.9703 54.7897 56.4369 54.8831 56.2212C55.0999 55.7201 55.1452 55.1657 55.019 54.6424C55.0128 54.5842 55.0048 54.4961 54.9955 54.372C54.9714 54.0492 54.947 53.6009 54.9199 53.0509C54.9085 52.8199 54.8967 52.5731 54.8844 52.3147C54.8394 51.3703 54.7871 50.2727 54.7193 49.2389C54.6362 47.9703 54.5189 46.5984 54.3208 45.673C54.2693 45.4325 54.1954 45.1382 54.0834 44.8485C54.0826 44.8466 54.0818 44.8445 54.081 44.8424C54.0119 44.6637 53.7544 43.9972 53.0981 43.5104C52.6809 43.2009 52.0527 42.9319 51.2912 43.0049C50.5769 43.0733 50.0729 43.4125 49.7919 43.6602C49.298 44.0956 49.0584 44.6291 48.965 44.8448Z" fill="#3DA95E" stroke="white" stroke-width="5" stroke-linejoin="round"/>
<path d="M81.1212 41.4258C80.7757 40.7556 80.7049 39.9697 80.957 39.2347C81.2045 38.513 81.7028 38.0056 82.2131 37.7075C82.7236 37.4093 83.4063 37.2267 84.1502 37.361C84.9608 37.5074 85.6507 37.9998 86.0645 38.6998L86.0671 38.7043L86.0671 38.7043C86.4775 39.402 86.8978 40.0972 87.3252 40.7856L81.1212 41.4258ZM81.1212 41.4258C81.1451 41.473 81.1707 41.5198 81.1979 41.566C83.1432 44.87 85.2655 48.0721 87.5592 51.1489L81.1212 41.4258ZM87.56 51.1499C88.1527 51.9449 89.6579 52.8772 91.2733 51.9276L87.56 51.1499ZM92.1274 47.836C90.4295 45.5547 88.8262 43.2015 87.3257 40.7864L91.2735 51.9275C91.958 51.525 92.3681 50.8947 92.5488 50.2974C92.7348 49.6823 92.7796 48.7107 92.1274 47.836ZM85.508 39.0306C85.5084 39.0313 85.5087 39.0319 85.5091 39.0325L85.508 39.0306Z" fill="#3DA95E" stroke="white" stroke-width="5" stroke-linejoin="round"/>
<path d="M13.3947 51.6543C13.3542 51.7031 13.3119 51.7503 13.2678 51.7959C12.704 52.379 11.9074 52.71 11.0578 52.6498C10.2819 52.5948 9.65989 52.2308 9.24541 51.8116C8.83013 51.3917 8.48817 50.7815 8.42871 50.0387C8.36798 49.2802 8.6185 48.5348 9.12383 47.9617C12.4947 43.8972 15.9262 39.8841 19.4141 35.9225L19.4151 35.9213C19.954 35.31 20.7555 34.9283 21.644 34.9735C22.4488 35.0144 23.0839 35.3906 23.4964 35.8046C24.2976 36.6085 24.8431 38.3011 23.6243 39.6848L13.3947 51.6543ZM13.3947 51.6543C16.7453 47.6146 20.1551 43.6235 23.6241 39.685L13.3947 51.6543Z" fill="#3DA95E" stroke="white" stroke-width="5" stroke-linejoin="round"/>
<path d="M27.781 34.4205C27.4982 34.9052 27.0604 35.2806 26.5383 35.4863C26.2929 35.583 25.9171 35.7106 25.477 35.7458C25.0736 35.778 24.147 35.7637 23.3642 35.0155C22.5571 34.2442 22.5186 33.2884 22.5515 32.8538C22.5855 32.4023 22.7203 32.0322 22.8072 31.8212C23.131 31.035 23.797 30.1374 24.3176 29.4801C24.9042 28.7394 25.5767 27.9738 26.1428 27.3757C26.4243 27.0782 26.7014 26.7991 26.9432 26.5757C27.0613 26.4667 27.1995 26.3445 27.3429 26.233C27.414 26.1777 27.5139 26.1036 27.6327 26.0289C27.649 26.0186 27.671 26.0049 27.6981 25.9888C29.0213 25.109 30.5147 25.6335 31.2561 26.3728C31.6676 26.7832 32.0519 27.4248 32.0865 28.2452C32.1248 29.1546 31.7166 29.9576 31.094 30.4833L27.781 34.4205ZM27.781 34.4205C28.6511 32.9297 29.7706 31.6006 31.0938 30.4834L27.781 34.4205Z" fill="#3DA95E" stroke="white" stroke-width="5" stroke-linejoin="round"/>
<path d="M26.8909 21.692C29.1943 18.5013 31.5594 15.8957 35.074 15.6899C41.3887 14.9518 47.7446 12.6285 54.0962 13.1623C57.6342 13.8813 60.5917 16.8177 64.0975 17.722C66.7183 18.3984 69.6773 17.9661 71.8748 19.7658C73.5138 21.1083 78.5188 27.7148 79.9123 29.5072C88.3217 40.3219 89.5226 43.0686 97.5087 48.5826C100.512 50.6559 97.1824 52.9438 93.6413 55.4288C79.9123 55.4288 81.8985 52.6629 69.926 55.4288C55.4811 59.7811 58.3887 60.9368 42.7723 60.0781C37.0808 59.7649 27.0472 52.7693 21.3484 52.6046C-4.80886 55.4288 6.97063 48.9973 26.888 21.6906L26.8909 21.692Z" fill="#74BE71"/>
<path d="M75.6417 19.9909C76.5695 21.9458 80.6554 27.7406 79.0033 29.1365C77.005 30.8271 74.003 28.6368 71.4064 28.9634C67.4903 29.4555 68.1163 33.5005 64.2958 32.5056C62.8396 32.1259 59.0506 32.8094 57.933 31.8008C55.18 29.3173 50.8493 24.9118 47.5664 26.6358C46.1178 27.3968 39.356 31.8008 39.356 31.8008C32.6459 30.6327 38.0745 29.0484 28.0328 31.8008C10.5901 31.7522 45.6744 -1.21087 63.0928 7.49735C68.7278 9.77884 75.6417 19.9909 75.6417 19.9909Z" fill="#3DA95E"/>
<path d="M64.1583 15.062C64.1583 16.428 64.6028 17.6926 56.4272 17.6926C53.6373 17.6926 46.1782 17.9161 43.9498 17.6926C32.6506 16.3854 41.1858 13.2847 49.9982 10.6647C52.8425 10.5633 58.7002 9.4899 60.4779 10.6647L64.1583 15.062Z" fill="#95D5FF"/>
<path d="M66.3389 29.5272C68.3319 36.8519 70.5736 44.107 73.0613 51.2781C73.1964 51.6692 73.8218 51.5014 73.6854 51.106C71.1977 43.9349 68.9545 36.6784 66.9629 29.3551C66.8535 28.9541 66.2294 29.1233 66.3389 29.5272Z" fill="#3DA95E"/>
<path d="M73.3259 38.6531C73.741 39.1593 77.1257 50.588 77.437 47.8833C77.0233 47.3771 73.6372 35.9485 73.3259 38.6531Z" fill="#3DA95E"/>
<path d="M38.1014 29.6683C35.5398 34.7476 32.8659 39.7744 30.5246 44.9619C30.3497 45.6786 28.1279 49.5976 28.9112 49.7384C29.0945 49.7881 29.2452 49.6758 29.3092 49.5123C31.3434 44.2949 33.9192 39.3165 36.4538 34.331C37.1888 32.8862 37.9237 31.4401 38.6601 29.9953C38.8491 29.6242 38.2905 29.2971 38.1014 29.6683Z" fill="#3DA95E"/>
<path d="M39.4591 39.5808C38.4299 42.5172 37.4022 45.4551 36.373 48.3915C36.0816 49.2234 35.7901 50.0552 35.4987 50.8871C35.3608 51.281 35.9863 51.4502 36.1228 51.0592C37.152 48.1228 38.1797 45.1849 39.2089 42.2485L40.0832 39.7529C40.2211 39.359 39.5956 39.1897 39.4591 39.5808Z" fill="#3DA95E"/>
<path d="M51.2595 45.8375C51.5111 46.4177 51.5353 57.6629 52.5886 55.2284C52.337 54.6483 52.3128 43.4031 51.2595 45.8375Z" fill="#3DA95E"/>
<path d="M83.3522 40.2976C85.2528 43.5255 87.3254 46.6525 89.5643 49.6557C89.6681 49.7951 89.8444 49.8676 90.0064 49.7723C90.1443 49.6913 90.2282 49.4709 90.123 49.3301C88.383 46.9923 86.7397 44.5806 85.2016 42.1049C84.7638 41.3996 84.3331 40.6872 83.9123 39.9719C83.7005 39.6136 83.1418 39.9392 83.3536 40.299L83.3522 40.2976Z" fill="#3DA95E"/>
<path d="M11.4705 50.0582C14.8367 45.9998 18.2626 41.9898 21.7482 38.0324C22.0225 37.7209 21.5662 37.2616 21.2905 37.5745C17.8063 41.5319 14.3789 45.5405 11.0127 49.6003C10.7227 49.8961 11.1776 50.3611 11.4705 50.0582Z" fill="#3DA95E"/>
<path d="M25.6218 33.1603C26.6368 31.4212 27.9418 29.8727 29.4813 28.573C29.7997 28.3042 29.3406 27.8477 29.0236 28.1151C28.5204 28.2672 23.3374 34.0605 25.6218 33.1603Z" fill="#3DA95E"/>
</svg>
