<svg width="353" height="231" viewBox="0 0 353 231" fill="none" xmlns="http://www.w3.org/2000/svg">
<path d="M58.1752 68.3869H62.912L64.491 65.2567H68.1752L71.8594 62.6482L75.0173 61.0831L77.6488 57.4313V52.736L78.7015 51.1709L80.8067 51.6926L82.912 53.7794L85.5436 51.6926L86.5962 51.1709L87.6488 51.6926L88.7015 52.736L90.8067 50.1275L93.4383 49.0841L95.0173 46.9973L97.6488 45.9539H101.333L109.228 41.2586L112.386 42.302H115.544L117.649 42.8237L120.28 41.2586H122.386L124.491 38.1284H128.175L135.017 35.5199L141.859 33.4332L143.438 30.303L148.175 28.7379L150.28 26.1294H157.123H163.438H167.123L169.754 22.9992H176.596L181.859 20.9124H187.123H190.807L195.017 17.2605H201.333H208.701H211.859L215.017 9.43506V7.34827L218.701 9.43506H220.28L222.386 12.0435H227.123L229.228 9.43506H231.333H234.491H238.701H240.807L246.07 7.34827L250.28 4.21808L252.912 7.34827V5.78317H258.175H262.386L263.965 2.13129H267.649L270.28 4.21808H273.965L276.596 7.34827H280.807L283.438 4.21808H288.701L293.438 7.34827V12.0435L298.175 17.2605L301.859 19.3473L306.596 22.9992L309.228 20.9124H315.544L319.228 22.9992L323.438 24.5643L321.333 28.7379L323.965 30.303L326.07 33.9549V40.7369L323.438 44.3888L323.965 46.4756L326.07 49.0841L327.649 50.6492H330.28V52.736L328.701 52.2143L327.123 53.7794L328.175 55.3445H329.754L330.28 57.4313L331.859 55.8662L333.438 54.3011L332.912 52.2143V50.1275L335.017 49.6058L336.596 50.6492V52.2143L337.123 53.7794L338.701 54.3011L339.754 55.8662L341.859 56.3879L342.912 57.953L341.859 59.518L340.28 60.0397L339.228 59.518L337.649 58.4747V57.4313H334.491L332.386 59.518V65.2567L334.491 68.3869V72.5605L332.386 75.169L330.28 71.2683H328.175L326.07 77.2558L323.965 84.5595V89.7765L321.333 94.4718H315.544L311.859 99.6888L309.228 105.427L306.596 111.166L303.965 116.905L298.175 121.078L296.07 124.209H298.175L296.07 131.512L290.807 132.556L285.544 134.121H280.807L273.965 135.686L267.649 137.773L263.965 143.511L258.175 145.076V146.642L255.017 145.076L250.28 148.207L242.386 151.859H236.596L231.333 153.945L227.123 151.859L224.491 151.337L220.28 151.859L218.701 153.945H215.017L212.386 158.119L206.07 162.814L204.491 166.988H199.228L196.07 168.553L193.438 166.988L190.807 165.423H185.017L183.965 168.031L181.859 166.988L178.701 164.379V168.031L174.491 168.553L169.228 166.988H165.017L163.438 170.118L159.228 171.161L153.438 171.683L150.28 173.248H146.596L141.859 171.683L140.28 168.553L136.596 167.509L129.228 168.553L124.491 170.118L120.28 165.423L115.544 167.509L109.228 170.118H103.438L98.7015 168.553L95.0173 170.118L92.3857 168.553H87.1225L86.0699 166.988L80.2804 170.118L75.5436 174.813H72.3857L71.3331 180.552V182.639L72.3857 186.291L71.3331 189.943L68.7015 188.899L67.1225 186.291L64.491 188.899L59.7541 188.377L58.7015 184.726V181.595H54.491L52.3857 177.943L47.6488 171.161L42.912 166.988L39.2278 165.423H35.5436L28.7015 159.684L25.5436 158.119L21.8594 151.859L19.2278 146.642L15.5436 141.946V137.773L18.7015 135.686L16.5962 132.556V130.469L18.7015 125.774L16.5962 123.165V117.948L17.6488 115.34L18.7015 114.818H20.8067L24.491 110.123V106.471L27.6488 105.949L32.3857 102.297L34.491 99.6888L38.1752 97.602L40.2804 92.385L44.491 89.7765H46.0699L51.8594 84.5595L57.1225 78.8209L58.1752 72.5605V68.3869Z" fill="white"/>
<path d="M338.701 35.5199L340.28 39.1718L342.912 40.2898L346.596 40.7369L349.228 39.1718L350.807 38.1284L349.228 32.3898L351.859 30.303L349.228 28.7379H346.596V24.5643H340.28V28.7379L337.123 30.303L338.701 35.5199Z" fill="white"/>
<path d="M8.17516 131.512L12.3857 130.469V126.817H8.17516H1.85938L4.49095 131.512L6.0699 134.121L8.17516 131.512Z" fill="white"/>
<path d="M39.2278 84.5595L42.3857 88.7331L43.4383 86.1246L45.5436 82.9945L44.491 79.8643H43.4383L39.2278 78.8209V84.5595Z" fill="white"/>
<path d="M57.6488 205.072L61.3331 208.202H62.912L65.5436 205.593L67.1225 201.42H62.912L61.3331 199.855L57.6488 201.42V205.072Z" fill="white"/>
<path d="M58.7015 223.331L59.7541 229.07L61.3331 226.461V223.331V219.679H59.7541L58.7015 223.331Z" fill="white"/>
<path d="M82.912 20.9124L85.5436 21.9558V20.9124V18.8256V16.7388L83.9646 14.652H87.6488L90.8067 13.0869L89.7541 9.95675L90.8067 7.34827H88.7015H87.6488L83.9646 9.95675L81.3331 9.43506L79.7541 9.95675H76.5962L75.0173 12.5652L79.7541 14.652L82.912 20.9124Z" fill="white"/>
<path d="M68.1752 8.39166L72.912 11.0001L74.491 9.95675L75.0173 7.34827L74.491 5.26147L71.8594 2.65298H68.1752V1.08789H64.491V2.65298L68.1752 4.73978L65.5436 6.30487L68.1752 8.39166Z" fill="white"/>
<path d="M68.1752 65.2567H64.491L62.912 68.3869H58.1752V72.5605L57.1225 78.8209L51.8594 84.5595L46.0699 89.7765H44.491L40.2804 92.385L38.1752 97.602L34.491 99.6888M68.1752 65.2567L69.2278 68.3869V71.5171V77.7775L71.8594 81.9511V86.1246L78.1752 91.3416L78.7015 96.5586L99.7541 110.123M68.1752 65.2567L71.8594 62.6482L75.0173 61.0831L77.6488 57.4313V52.736L78.7015 51.1709L80.8067 51.6926L82.912 53.7794L85.5436 51.6926L86.5962 51.1709L87.6488 51.6926L88.7015 52.736L90.8067 50.1275L93.4383 49.0841L95.0173 46.9973L97.6489 45.9539H101.333L109.228 41.2586L112.386 42.302H115.544L117.649 42.8237M99.7541 110.123L105.544 112.21L113.438 111.166L115.544 112.21L124.491 113.253M99.7541 110.123L97.6489 112.21H89.7541L85.5436 112.731L80.2804 121.078L76.0699 118.992L67.4273 121.007M124.491 113.253L125.544 114.818L122.386 117.948L120.28 126.817L118.175 130.469L113.965 131.512L112.386 135.686L109.228 138.294L106.596 135.686L103.438 132.556L99.2278 137.773V145.076L100.28 153.945L98.7015 158.119L97.6489 164.379L98.7015 168.553M124.491 113.253L126.596 110.123L128.175 107.514L129.228 105.427H130.807L135.017 104.906H138.701H141.859H146.596H150.28L154.491 103.862H157.123L160.807 104.906L163.965 103.341M98.7015 168.553L95.0173 170.118L92.3857 168.553H87.1225L86.0699 166.988L80.2804 170.118L75.5436 174.813H72.3857M98.7015 168.553L103.438 170.118H109.228L115.544 167.509L120.28 165.423L124.491 170.118L129.228 168.553L136.596 167.509L140.28 168.553L141.859 171.683L146.596 173.248H150.28L153.438 171.683L159.228 171.161L163.438 170.118L165.017 166.988H169.228M72.3857 174.813L71.3331 180.552V182.639L72.3857 186.291L71.3331 189.943L68.7015 188.899L67.1225 186.291L64.491 188.899L59.7541 188.377L58.7015 184.726V181.595H54.491L52.3857 177.943L47.6488 171.161L42.912 166.988L39.2278 165.423H35.5436L28.7015 159.684L25.5436 158.119L21.8594 151.859L19.2278 146.642L15.5436 141.946V137.773L18.7015 135.686M72.3857 174.813L70.2804 173.248L64.491 171.161V166.988L62.912 162.814L64.491 159.684L67.1225 155.51L67.4273 151.337V148.207L70.2804 145.076L69.2278 141.946L66.5962 139.338L66.0699 136.208L61.8594 131.512M18.7015 135.686L16.5962 132.556V130.469L18.7015 125.774L16.5962 123.165V117.948L17.6488 115.34L18.7015 114.818H20.8067L24.491 110.123V106.471L27.6488 105.949L32.3857 102.297L34.491 99.6888M18.7015 135.686H20.8067L22.912 134.121L26.0699 133.599L29.2278 135.164L33.4383 137.773L36.5962 138.816L40.2804 141.946L46.0699 145.076V138.816L50.8067 136.729L57.1225 134.121L61.8594 131.512M34.491 99.6888L36.5962 103.862L41.8594 109.601L46.0699 110.123L47.6488 112.21L52.912 111.166L55.5436 113.253L58.1752 111.166L62.912 113.253L65.5436 117.948L67.1225 121.078L67.4273 121.007M67.4273 121.007L61.8594 131.512M117.649 42.8237V49.0841L120.28 50.1275H123.438L126.596 49.0841L127.123 50.1275L128.175 54.8228L129.228 59.518L130.807 63.6916L129.228 68.3869L130.807 72.5605V75.169L131.333 79.3426L132.912 81.9511L135.017 84.5595L137.649 88.2114L140.28 89.7765L143.438 91.3416L146.596 90.2982L150.28 91.3416L155.544 92.9067L159.228 94.4718L161.333 96.5586L163.438 99.6888L163.965 103.341M117.649 42.8237L120.28 41.2586H122.386L124.491 38.1284H128.175L135.017 35.5199L141.859 33.4332L143.438 30.303L148.175 28.7379L150.28 26.1294H157.123H163.438H167.123L169.754 22.9992H176.596L181.859 20.9124H187.123H190.807L195.017 17.2605M163.965 103.341V107.514L163.438 113.253L165.017 119.513L163.438 124.209V126.817L163.965 130.469V136.208L165.017 145.076V149.772L167.123 155.51L169.228 161.249L169.754 165.423L169.228 166.988M163.965 103.341H169.228M169.228 166.988L174.491 168.553L178.701 168.031V164.379L181.859 166.988L183.965 168.031L185.017 165.423H190.807L193.438 166.988L196.07 168.553L199.228 166.988H204.491L206.07 162.814M169.228 103.341H174.491L178.701 104.906L181.859 110.123L187.123 114.818L190.807 116.905V121.078L195.017 124.209V129.426L196.07 135.686L201.333 141.946L204.491 143.511L206.07 148.207V151.337V162.814M169.228 103.341L171.859 101.254L177.123 97.602M206.07 162.814L212.386 158.119L215.017 153.945H218.701L220.28 151.859L224.491 151.337L227.123 151.859L231.333 153.945L236.596 151.859H242.386L250.28 148.207L255.017 145.076L258.175 146.642V145.076L263.965 143.511L267.649 137.773L273.965 135.686M195.017 17.2605L193.438 22.9992L195.017 28.7379L201.333 30.303V35.5199L204.491 38.1284V40.7369L207.123 44.3888L209.228 48.0407L210.28 54.8228L212.386 60.5614L211.859 65.2567V69.4303L208.701 72.5605L204.491 77.2558L202.386 81.9511L199.228 87.168L195.017 88.2114L190.28 89.7765L185.544 93.9501L180.807 95.5152L177.123 97.602M195.017 17.2605H201.333H208.701H211.859L215.017 9.43506V7.34827L218.701 9.43506H220.28L222.386 12.0435H227.123L229.228 9.43506H231.333H234.491H238.701M177.123 97.602L188.701 98.6454L193.438 97.602L197.123 94.4718L203.438 94.9935L208.701 89.2548L215.017 87.168L218.701 88.2114M218.701 88.2114L224.491 92.385L227.123 95.5152L231.333 97.602H238.701H242.386L246.07 99.6888L250.28 101.254L252.912 103.862L255.017 107.514L258.175 111.166L262.386 116.905L263.965 121.078L262.386 123.165L267.649 126.817H270.28L273.965 135.686M218.701 88.2114L220.28 84.5595L228.25 81.9511L234.491 77.2558L243.965 72.5605L250.28 71.2683M273.965 135.686L280.807 134.121H285.544L290.807 132.556L296.07 131.512L298.175 124.209H296.07L298.175 121.078M238.701 9.43506L236.596 15.6954L238.701 20.9124H240.807L243.965 26.1294L248.175 30.303L250.28 35.5199V42.8237L248.175 49.0841V54.8228V59.518L246.07 60.5614L248.175 66.8218L250.28 71.2683M238.701 9.43506H240.807L246.07 7.34827L250.28 4.21808L252.912 7.34827V5.78317H258.175H262.386L263.965 2.13129H267.649L270.28 4.21808H273.965L276.596 7.34827H280.807L283.438 4.21808H288.701L293.438 7.34827V12.0435L298.175 17.2605L301.859 19.3473L306.596 22.9992L309.228 20.9124H315.544L319.228 22.9992L323.438 24.5643L321.333 28.7379L323.965 30.303L326.07 33.9549V40.7369L323.438 44.3888M250.28 71.2683L255.017 75.169H259.754L263.965 72.5605L270.28 69.4303L273.965 66.8218L280.807 65.2567H283.438M283.438 65.2567L286.596 68.3869L288.701 75.169L286.596 79.3426L285.544 86.1246L283.438 90.2982L280.807 95.5152L285.544 96.5586L286.596 98.6454L290.807 101.254L296.07 105.427L298.175 111.166L300.28 113.253V116.905L298.175 121.078M283.438 65.2567L286.596 62.1265H290.807L296.07 57.4313L300.28 56.3879L303.965 52.736L306.596 52.2143H309.228L311.859 48.0407L317.123 46.4756L323.438 44.3888M298.175 121.078L303.965 116.905L306.596 111.166L309.228 105.427L311.859 99.6888L315.544 94.4718H321.333L323.965 89.7765V84.5595L326.07 77.2558L328.175 71.2683H330.28L332.386 75.169L334.491 72.5605V68.3869L332.386 65.2567V59.518L334.491 57.4313H337.649V58.4747L339.228 59.518L340.28 60.0397L341.859 59.518L342.912 57.953L341.859 56.3879L339.754 55.8662L338.701 54.3011L337.123 53.7794L336.596 52.2143V50.6492L335.017 49.6058L332.912 50.1275V52.2143L333.438 54.3011L331.859 55.8662L330.28 57.4313L329.754 55.3445H328.175L327.123 53.7794L328.701 52.2143L330.28 52.736V50.6492H327.649L326.07 49.0841L323.965 46.4756L323.438 44.3888M343.965 40.7369L342.912 40.2898M342.912 40.2898L340.28 39.1718L338.701 35.5199L337.123 30.303L340.28 28.7379V24.5643H346.596V28.7379H349.228L351.859 30.303L349.228 32.3898L350.807 38.1284L349.228 39.1718L346.596 40.7369L342.912 40.2898ZM12.3857 130.469L8.17516 131.512L6.0699 134.121L4.49095 131.512L1.85938 126.817H8.17516H12.3857V130.469ZM42.3857 88.7331L39.2278 84.5595V78.8209L43.4383 79.8643H44.491L45.5436 82.9945L43.4383 86.1246L42.3857 88.7331ZM61.3331 208.202L57.6488 205.072V201.42L61.3331 199.855L62.912 201.42H67.1225L65.5436 205.593L62.912 208.202H61.3331ZM59.7541 229.07L58.7015 223.331L59.7541 219.679H61.3331V223.331V226.461L59.7541 229.07ZM85.5436 21.9558L82.912 20.9124L79.7541 14.652L75.0173 12.5652L76.5962 9.95675H79.7541L81.3331 9.43506L83.9646 9.95675L87.6488 7.34827H88.7015H90.8067L89.7541 9.95675L90.8067 13.0869L87.6488 14.652H83.9646L85.5436 16.7388V18.8256V20.9124V21.9558ZM72.912 11.0001L68.1752 8.39166L65.5436 6.30487L68.1752 4.73978L64.491 2.65298V1.08789H68.1752V2.65298H71.8594L74.491 5.26147L75.0173 7.34827L74.491 9.95675L72.912 11.0001Z" stroke="#2D67F6" stroke-width="1.06061" stroke-dasharray="2.12 2.12"/>
<path d="M286.595 68.3863L283.438 65.2561L286.595 62.1259H290.806L296.069 57.4307L300.28 56.3873L303.964 52.7354L306.595 52.2137H309.227L311.859 48.0401L317.122 46.475L326.069 40.7363L323.438 44.3882L323.964 46.475L326.069 49.0835L327.648 50.6486H330.28V52.7354L328.701 52.2137L327.122 53.7788L328.174 55.3439H329.753L330.28 57.4307L331.859 55.8656L333.438 54.3005L332.911 52.2137V50.1269L335.016 49.6052L336.595 50.6486V52.2137L337.122 53.7788L338.701 54.3005L339.753 55.8656L341.859 56.3873L342.911 57.9524L341.859 59.5175L340.28 60.0391L339.227 59.5175L337.648 58.4741V57.4307H334.49L332.385 59.5175V65.2561L334.49 68.3863V72.5599L332.385 75.1684L330.28 71.2677H328.174L326.069 77.2552L323.964 84.5589V89.7759L321.332 94.4712H315.543L311.859 99.6882L309.227 105.427L306.595 111.166L303.964 116.904L298.174 121.078L300.28 116.904V113.252L298.174 111.166L296.069 105.427L290.806 101.253L286.595 98.6448L285.543 96.558L280.989 95.4101L283.438 90.2976L285.543 86.124L286.595 79.342L288.701 75.1684L286.595 68.3863Z" fill="#2D67F6" fill-opacity="0.2" stroke="#2D67F6" stroke-width="1.06061" stroke-linecap="round"/>
<path d="M163.072 54.6755V63.7155H163.872V54.6755H163.072ZM159.782 57.9155V58.6055H161.512V57.9155H159.782ZM161.262 54.8855V63.2555H162.042V54.8855H161.262ZM158.042 56.0755V57.2255C158.042 58.8855 157.342 60.5355 156.082 61.2955L156.592 61.9155C157.922 61.0755 158.682 59.2055 158.682 57.2255V56.0755H158.042ZM158.212 56.0755V57.2255C158.212 59.1155 158.942 60.8955 160.262 61.6955L160.772 61.0855C159.532 60.3655 158.852 58.7955 158.852 57.2255V56.0755H158.212ZM156.332 55.7255V56.4155H160.462V55.7255H156.332ZM169.021 55.5655V55.9455C169.021 57.1355 167.471 58.1755 165.881 58.4055L166.201 59.0655C168.021 58.7555 169.741 57.5655 169.741 55.9455V55.5655H169.021ZM169.231 55.5655V55.9455C169.231 57.5655 170.941 58.7555 172.771 59.0655L173.081 58.4055C171.501 58.1755 169.941 57.1355 169.941 55.9455V55.5655H169.231ZM169.051 60.2655V63.7155H169.871V60.2655H169.051ZM165.401 59.8255V60.5055H173.571V59.8255H165.401ZM166.161 55.2355V55.9055H172.781V55.2355H166.161ZM176.981 55.4555V57.0755C176.981 58.7855 175.891 60.5155 174.551 61.1555L175.061 61.8355C176.541 61.0855 177.661 59.1555 177.661 57.0755V55.4555H176.981ZM177.121 55.4555V57.0755C177.121 59.0855 178.251 60.9455 179.721 61.6655L180.221 61.0055C178.881 60.3855 177.801 58.7255 177.801 57.0755V55.4555H177.121ZM181.161 54.6655V63.7255H181.991V54.6655H181.161Z" fill="#2D67F6"/>
<path d="M175.197 145.689V146.369H177.717V145.689H175.197ZM173.017 143.409V145.019C173.017 146.699 171.997 148.439 170.667 149.099L171.197 149.759C172.627 148.989 173.697 147.049 173.697 145.019V143.409H173.017ZM173.177 143.409V145.019C173.177 146.999 174.227 148.859 175.687 149.599L176.177 148.929C174.867 148.309 173.847 146.669 173.847 145.019V143.409H173.177ZM177.307 142.619V151.679H178.127V142.619H177.307ZM182.336 147.379V151.149H183.176V147.379H182.336ZM186.536 142.629V151.669H187.356V142.629H186.536ZM179.936 147.639C181.726 147.629 183.926 147.589 185.956 147.309L185.886 146.689C183.896 146.899 181.656 146.929 179.826 146.939L179.936 147.639ZM180.616 143.319V144.009H184.356V143.319H180.616ZM184.036 143.319V143.689C184.036 144.309 184.036 145.399 183.736 146.989L184.556 147.059C184.856 145.449 184.856 144.319 184.856 143.689V143.319H184.036ZM189.085 149.859V150.549H197.275V149.859H189.085ZM192.735 147.519V150.169H193.565V147.519H192.735ZM189.795 143.489V144.169H196.505V143.489H189.795ZM189.815 147.129V147.799H196.495V147.129H189.815ZM191.205 144.039V147.249H192.035V144.039H191.205ZM194.285 144.039V147.249H195.105V144.039H194.285Z" fill="#2D67F6"/>
<path d="M54.9202 92.1562V98.9363H55.7502V92.1562H54.9202ZM55.4902 95.1162V95.8162H57.0902V95.1162H55.4902ZM48.7602 93.2462V93.9162H54.1002V93.2462H48.7602ZM51.4302 94.4162C50.1402 94.4162 49.2602 95.0862 49.2602 96.1062C49.2602 97.1162 50.1402 97.7862 51.4302 97.7862C52.7102 97.7862 53.5902 97.1162 53.5902 96.1062C53.5902 95.0862 52.7102 94.4162 51.4302 94.4162ZM51.4302 95.0662C52.2402 95.0662 52.8002 95.4762 52.8002 96.1062C52.8002 96.7262 52.2402 97.1362 51.4302 97.1362C50.6102 97.1362 50.0502 96.7262 50.0502 96.1062C50.0502 95.4762 50.6102 95.0662 51.4302 95.0662ZM51.0102 92.1462V93.5962H51.8402V92.1462H51.0102ZM50.1202 100.306V100.986H56.1602V100.306H50.1202ZM50.1202 98.3962V100.596H50.9502V98.3962H50.1202ZM64.5095 92.1462V97.5062H65.3495V92.1462H64.5095ZM58.3995 96.3962V97.0862H59.1295C60.8095 97.0862 62.0295 97.0362 63.5195 96.7862L63.4295 96.1162C61.9795 96.3462 60.7695 96.3962 59.1295 96.3962H58.3995ZM58.3795 92.6862V93.3662H61.6695V94.5162H58.3995V96.8062H59.2095V95.1562H62.4795V92.6862H58.3795ZM59.5095 98.0062V101.066H65.3495V98.0062H59.5095ZM64.5295 98.6662V100.396H60.3195V98.6662H64.5295ZM71.2187 92.3062C69.2487 92.3062 68.0387 92.9362 68.0387 93.9862C68.0387 95.0362 69.2487 95.6562 71.2187 95.6562C73.1787 95.6562 74.3987 95.0362 74.3987 93.9862C74.3987 92.9362 73.1787 92.3062 71.2187 92.3062ZM71.2187 92.9562C72.6587 92.9562 73.5487 93.3362 73.5487 93.9862C73.5487 94.6362 72.6587 95.0162 71.2187 95.0162C69.7687 95.0162 68.8887 94.6362 68.8887 93.9862C68.8887 93.3362 69.7687 92.9562 71.2187 92.9562ZM68.1687 97.6362V101.066H74.2587V97.6362H73.4387V98.6262H68.9887V97.6362H68.1687ZM68.9887 99.2662H73.4387V100.396H68.9887V99.2662ZM67.1287 96.3662V97.0362H75.2987V96.3662H67.1287Z" fill="#2D67F6"/>
<path d="M76.1966 151.089V157.749H77.0266V151.089H76.1966ZM76.7666 153.839V154.529H78.3666V153.839H76.7666ZM71.3966 159.259V159.939H77.4366V159.259H71.3966ZM71.3966 157.069V159.529H72.2266V157.069H71.3966ZM72.5366 151.729C71.1866 151.729 70.1766 152.659 70.1766 153.959C70.1766 155.269 71.1866 156.189 72.5366 156.189C73.8866 156.189 74.8966 155.269 74.8966 153.959C74.8966 152.659 73.8866 151.729 72.5366 151.729ZM72.5366 152.459C73.4166 152.459 74.0866 153.079 74.0866 153.959C74.0866 154.849 73.4166 155.459 72.5366 155.459C71.6566 155.459 70.9866 154.849 70.9866 153.959C70.9866 153.079 71.6566 152.459 72.5366 152.459ZM79.7058 155.399V156.089H80.3758C82.1758 156.089 83.2058 156.029 84.4058 155.789L84.3058 155.119C83.1458 155.359 82.1458 155.399 80.3758 155.399H79.7058ZM79.7058 151.729V155.619H80.5158V152.399H83.8158V151.729H79.7058ZM80.6158 156.969V157.649H85.8158V160.139H86.6458V156.969H80.6158ZM85.8158 151.099V156.509H86.6458V151.099H85.8158ZM83.2858 153.439V154.109H86.0458V153.439H83.2858ZM92.745 152.689V153.369H95.275V152.689H92.745ZM92.745 154.619V155.309H95.295V154.619H92.745ZM88.825 151.879V156.119H92.955V151.879H88.825ZM92.135 152.549V155.449H89.635V152.549H92.135ZM95.015 151.109V157.709H95.845V151.109H95.015ZM90.035 159.259V159.939H96.065V159.259H90.035ZM90.035 157.109V159.569H90.865V157.109H90.035Z" fill="#2D67F6"/>
<path d="M31.056 118.316V125.096H31.886V118.316H31.056ZM31.626 121.276V121.976H33.226V121.276H31.626ZM24.896 119.406V120.076H30.236V119.406H24.896ZM27.566 120.576C26.276 120.576 25.396 121.246 25.396 122.266C25.396 123.276 26.276 123.946 27.566 123.946C28.846 123.946 29.726 123.276 29.726 122.266C29.726 121.246 28.846 120.576 27.566 120.576ZM27.566 121.226C28.376 121.226 28.936 121.636 28.936 122.266C28.936 122.886 28.376 123.296 27.566 123.296C26.746 123.296 26.186 122.886 26.186 122.266C26.186 121.636 26.746 121.226 27.566 121.226ZM27.146 118.306V119.756H27.976V118.306H27.146ZM26.256 126.466V127.146H32.296V126.466H26.256ZM26.256 124.556V126.756H27.086V124.556H26.256ZM38.3952 119.966V120.646H40.8152V119.966H38.3952ZM38.3152 121.846V122.526H40.7552V121.846H38.3152ZM40.6752 118.306V123.726H41.5052V118.306H40.6752ZM37.8452 118.986V119.346C37.8452 121.056 36.4952 122.386 34.1852 123.056L34.5252 123.726C37.1252 122.946 38.7352 121.316 38.7352 118.986H37.8452ZM34.6552 118.986V119.666H38.4152V118.986H34.6552ZM38.5652 123.826C36.7352 123.826 35.5752 124.476 35.5752 125.566C35.5752 126.656 36.7352 127.306 38.5652 127.306C40.3952 127.306 41.5552 126.656 41.5552 125.566C41.5552 124.476 40.3952 123.826 38.5652 123.826ZM38.5652 124.476C39.8952 124.476 40.7452 124.886 40.7452 125.566C40.7452 126.246 39.8952 126.646 38.5652 126.646C37.2452 126.646 36.3952 126.246 36.3952 125.566C36.3952 124.886 37.2452 124.476 38.5652 124.476ZM47.6044 119.896V120.576H50.1344V119.896H47.6044ZM47.6044 121.826V122.516H50.1544V121.826H47.6044ZM43.6844 119.086V123.326H47.8144V119.086H43.6844ZM46.9944 119.756V122.656H44.4944V119.756H46.9944ZM49.8744 118.316V124.916H50.7044V118.316H49.8744ZM44.8944 126.466V127.146H50.9244V126.466H44.8944ZM44.8944 124.316V126.776H45.7244V124.316H44.8944Z" fill="#2D67F6"/>
<path d="M38.5165 150.834V159.874H39.3165V150.834H38.5165ZM36.9865 154.454V155.144H38.7265V154.454H36.9865ZM36.4665 151.034V159.414H37.2465V151.034H36.4665ZM31.9665 156.954V157.644H32.5565C33.9165 157.644 34.8265 157.604 35.9065 157.374L35.8265 156.684C34.7765 156.904 33.8765 156.954 32.5565 156.954H31.9665ZM31.9665 151.934V157.264H32.7865V152.614H35.3265V151.934H31.9665ZM45.6657 153.174V153.864H47.7057V153.174H45.6657ZM47.4457 150.834V156.224H48.2757V150.834H47.4457ZM45.3057 156.494C43.4357 156.494 42.2857 157.124 42.2857 158.184C42.2857 159.254 43.4357 159.864 45.3057 159.864C47.1657 159.864 48.3157 159.254 48.3157 158.184C48.3157 157.124 47.1657 156.494 45.3057 156.494ZM45.3057 157.144C46.6657 157.144 47.4957 157.524 47.4957 158.184C47.4957 158.834 46.6657 159.214 45.3057 159.214C43.9457 159.214 43.1157 158.834 43.1157 158.184C43.1157 157.524 43.9457 157.144 45.3057 157.144ZM43.1457 151.744V152.474C43.1457 153.774 42.2157 154.984 40.8757 155.474L41.3057 156.134C42.8057 155.574 43.8257 154.144 43.8257 152.474V151.744H43.1457ZM43.3057 151.744V152.474C43.3057 153.994 44.2757 155.354 45.7457 155.884L46.1657 155.224C44.8557 154.764 43.9757 153.644 43.9757 152.474V151.744H43.3057ZM41.1257 151.494V152.174H45.9557V151.494H41.1257ZM54.1249 150.994C52.1549 150.994 50.9449 151.624 50.9449 152.674C50.9449 153.724 52.1549 154.344 54.1249 154.344C56.0849 154.344 57.3049 153.724 57.3049 152.674C57.3049 151.624 56.0849 150.994 54.1249 150.994ZM54.1249 151.644C55.5649 151.644 56.4549 152.024 56.4549 152.674C56.4549 153.324 55.5649 153.704 54.1249 153.704C52.6749 153.704 51.7949 153.324 51.7949 152.674C51.7949 152.024 52.6749 151.644 54.1249 151.644ZM51.0749 156.324V159.754H57.1649V156.324H56.3449V157.314H51.8949V156.324H51.0749ZM51.8949 157.954H56.3449V159.084H51.8949V157.954ZM50.0349 155.054V155.724H58.2049V155.054H50.0349Z" fill="#2D67F6"/>
<path d="M218.361 44.8929V45.5829H226.551V44.8929H218.361ZM222.041 42.7029V45.1229H222.861V42.7029H222.041ZM222.021 38.8429V39.4029C222.021 40.8329 220.311 42.1029 218.751 42.3629L219.091 43.0229C220.871 42.6529 222.721 41.2529 222.721 39.4029V38.8429H222.021ZM222.171 38.8429V39.4029C222.171 41.2529 224.031 42.6329 225.841 42.9929L226.171 42.3329C224.591 42.0729 222.871 40.8329 222.871 39.4029V38.8429H222.171ZM219.031 38.5229V39.2029H225.861V38.5229H219.031ZM229.811 39.4029V39.8529C229.811 41.1229 228.921 42.2429 227.581 42.7029L227.991 43.3529C229.501 42.8229 230.491 41.4829 230.491 39.8529V39.4029H229.811ZM229.951 39.4029V39.8529C229.951 41.4129 230.981 42.6929 232.491 43.1929L232.901 42.5329C231.561 42.1129 230.641 41.0529 230.641 39.8529V39.4029H229.951ZM227.811 38.9129V39.5829H232.631V38.9129H227.811ZM229.811 37.7629V39.1629H230.641V37.7629H229.811ZM232.331 40.4829V41.1729H234.611V40.4829H232.331ZM234.161 37.7129V44.4529H234.991V37.7129H234.161ZM229.221 45.8629V46.5429H235.241V45.8629H229.221ZM229.221 43.8529V46.2329H230.051V43.8529H229.221ZM240.84 37.8629C238.87 37.8629 237.66 38.4929 237.66 39.5429C237.66 40.5929 238.87 41.2129 240.84 41.2129C242.8 41.2129 244.02 40.5929 244.02 39.5429C244.02 38.4929 242.8 37.8629 240.84 37.8629ZM240.84 38.5129C242.28 38.5129 243.17 38.8929 243.17 39.5429C243.17 40.1929 242.28 40.5729 240.84 40.5729C239.39 40.5729 238.51 40.1929 238.51 39.5429C238.51 38.8929 239.39 38.5129 240.84 38.5129ZM237.79 43.1929V46.6229H243.88V43.1929H243.06V44.1829H238.61V43.1929H237.79ZM238.61 44.8229H243.06V45.9529H238.61V44.8229ZM236.75 41.9229V42.5929H244.92V41.9229H236.75Z" fill="#2D67F6"/>
<path d="M223.36 121.306V126.416H224.19V121.306H223.36ZM223.97 123.376V124.066H225.53V123.376H223.97ZM218.49 126.906V130.226H224.19V126.906H218.49ZM223.38 127.576V129.546H219.31V127.576H223.38ZM217.61 121.756V125.376H218.44V121.756H217.61ZM217.61 125.036V125.736H218.32C219.67 125.736 221.02 125.646 222.55 125.326L222.45 124.646C220.97 124.946 219.62 125.036 218.32 125.036H217.61ZM228.939 125.856V127.866H229.769V125.856H228.939ZM232.949 121.306V128.186H233.779V121.306H232.949ZM227.609 129.466V130.146H233.999V129.466H227.609ZM227.609 127.516V129.656H228.439V127.516H227.609ZM226.439 126.166C228.079 126.166 230.269 126.136 232.219 125.826L232.159 125.216C230.239 125.466 227.999 125.486 226.329 125.486L226.439 126.166ZM231.109 126.646V127.256H233.159V126.646H231.109ZM229.269 121.676C227.939 121.676 227.039 122.296 227.039 123.246C227.039 124.206 227.939 124.826 229.269 124.826C230.589 124.826 231.489 124.206 231.489 123.246C231.489 122.296 230.589 121.676 229.269 121.676ZM229.269 122.296C230.109 122.296 230.699 122.666 230.699 123.246C230.699 123.826 230.109 124.196 229.269 124.196C228.419 124.196 227.829 123.826 227.829 123.246C227.829 122.666 228.419 122.296 229.269 122.296ZM239.658 121.466C237.688 121.466 236.478 122.096 236.478 123.146C236.478 124.196 237.688 124.816 239.658 124.816C241.618 124.816 242.838 124.196 242.838 123.146C242.838 122.096 241.618 121.466 239.658 121.466ZM239.658 122.116C241.098 122.116 241.988 122.496 241.988 123.146C241.988 123.796 241.098 124.176 239.658 124.176C238.208 124.176 237.328 123.796 237.328 123.146C237.328 122.496 238.208 122.116 239.658 122.116ZM236.608 126.796V130.226H242.698V126.796H241.878V127.786H237.428V126.796H236.608ZM237.428 128.426H241.878V129.556H237.428V128.426ZM235.568 125.526V126.196H243.738V125.526H235.568Z" fill="#2D67F6"/>
<path d="M91.1404 75.9236C89.9704 75.9236 89.2204 77.1336 89.2204 79.0736C89.2204 81.0136 89.9704 82.2236 91.1404 82.2236C92.3104 82.2236 93.0704 81.0136 93.0704 79.0736C93.0704 77.1336 92.3104 75.9236 91.1404 75.9236ZM91.1404 76.6936C91.8504 76.6936 92.3004 77.6136 92.3004 79.0736C92.3004 80.5336 91.8504 81.4536 91.1404 81.4536C90.4304 81.4536 89.9804 80.5336 89.9804 79.0736C89.9804 77.6136 90.4304 76.6936 91.1404 76.6936ZM95.9904 75.1736V84.2136H96.7904V75.1736H95.9904ZM94.5604 78.7536V79.4336H96.2904V78.7536H94.5604ZM93.9904 75.3636V83.7636H94.7804V75.3636H93.9904ZM100.73 78.9136V80.5236H101.56V78.9136H100.73ZM104.88 75.1736V80.4936H105.71V75.1736H104.88ZM98.3796 79.1936C100.07 79.1936 102.23 79.1736 104.21 78.8836L104.16 78.3436C102.23 78.5636 100.02 78.5736 98.2796 78.5736L98.3796 79.1936ZM99.6496 80.8236V81.4236H104.89V82.1536H99.6696V83.7236H100.48V82.7036H105.71V80.8236H99.6496ZM99.6696 83.5136V84.1136H106.01V83.5136H99.6696ZM103.08 79.4736V80.0136H105.14V79.4736H103.08ZM101.2 75.3436C99.8496 75.3436 98.9696 75.8636 98.9696 76.7036C98.9696 77.5436 99.8496 78.0636 101.2 78.0636C102.54 78.0636 103.42 77.5436 103.42 76.7036C103.42 75.8636 102.54 75.3436 101.2 75.3436ZM101.2 75.9236C102.07 75.9236 102.64 76.2236 102.64 76.7036C102.64 77.1836 102.07 77.4836 101.2 77.4836C100.31 77.4836 99.7396 77.1836 99.7396 76.7036C99.7396 76.2236 100.31 75.9236 101.2 75.9236ZM111.589 75.3336C109.619 75.3336 108.409 75.9636 108.409 77.0136C108.409 78.0636 109.619 78.6836 111.589 78.6836C113.549 78.6836 114.769 78.0636 114.769 77.0136C114.769 75.9636 113.549 75.3336 111.589 75.3336ZM111.589 75.9836C113.029 75.9836 113.919 76.3636 113.919 77.0136C113.919 77.6636 113.029 78.0436 111.589 78.0436C110.139 78.0436 109.259 77.6636 109.259 77.0136C109.259 76.3636 110.139 75.9836 111.589 75.9836ZM108.539 80.6636V84.0936H114.629V80.6636H113.809V81.6536H109.359V80.6636H108.539ZM109.359 82.2936H113.809V83.4236H109.359V82.2936ZM107.499 79.3936V80.0636H115.669V79.3936H107.499Z" fill="#2D67F6"/>
<path d="M132.286 151.924V153.504H133.116V151.924H132.286ZM128.616 151.634V152.304H136.786V151.634H128.616ZM132.696 153.254C130.756 153.254 129.596 153.824 129.596 154.844C129.596 155.854 130.756 156.424 132.696 156.424C134.636 156.424 135.796 155.854 135.796 154.844C135.796 153.824 134.636 153.254 132.696 153.254ZM132.696 153.894C134.116 153.894 134.956 154.234 134.956 154.844C134.956 155.444 134.116 155.784 132.696 155.784C131.286 155.784 130.436 155.444 130.436 154.844C130.436 154.234 131.286 153.894 132.696 153.894ZM132.166 148.144V148.414C132.166 149.444 130.696 150.254 129.076 150.424L129.376 151.084C131.246 150.854 132.906 149.874 132.906 148.414V148.144H132.166ZM132.516 148.144V148.414C132.516 149.874 134.166 150.854 136.036 151.084L136.336 150.424C134.716 150.254 133.246 149.444 133.246 148.414V148.144H132.516ZM129.366 147.814V148.484H136.056V147.814H129.366ZM137.815 152.024V152.704H146.005V152.024H137.815ZM141.555 152.444V154.524H142.385V152.444H141.555ZM138.865 147.824V151.004H144.945V147.824H138.865ZM144.125 148.494V150.334H139.675V148.494H144.125ZM138.855 155.564V156.244H145.095V155.564H138.855ZM138.855 153.654V155.804H139.675V153.654H138.855Z" fill="#2D67F6"/>
<path d="M268.624 29.8027V30.4727H274.274V29.8027H268.624ZM267.604 33.6827V34.3627H275.774V33.6827H267.604ZM271.254 34.1327V38.2627H272.084V34.1327H271.254ZM273.884 29.8027V30.5827C273.884 31.4927 273.884 32.5427 273.534 34.0027L274.354 34.1127C274.694 32.5827 274.694 31.5227 274.694 30.5827V29.8027H273.884ZM279.123 30.2927V30.8227C279.123 32.0527 278.183 33.1227 276.843 33.5527L277.253 34.2027C278.763 33.7027 279.803 32.4127 279.803 30.8227V30.2927H279.123ZM279.273 30.2927V30.8227C279.273 32.3327 280.283 33.5727 281.783 34.0527L282.173 33.4027C280.853 32.9927 279.953 31.9727 279.953 30.8227V30.2927H279.273ZM277.113 30.0427V30.7327H281.953V30.0427H277.113ZM279.123 33.8227V35.9227H279.953V33.8227H279.123ZM283.503 32.9627V33.6627H285.173V32.9627H283.503ZM282.913 29.2127V38.2527H283.743V29.2127H282.913ZM276.803 36.3627C278.363 36.3727 280.483 36.3627 282.413 36.0227L282.343 35.4027C280.483 35.6727 278.283 35.6727 276.693 35.6727L276.803 36.3627ZM290.082 29.3727C288.112 29.3727 286.902 30.0027 286.902 31.0527C286.902 32.1027 288.112 32.7227 290.082 32.7227C292.042 32.7227 293.262 32.1027 293.262 31.0527C293.262 30.0027 292.042 29.3727 290.082 29.3727ZM290.082 30.0227C291.522 30.0227 292.412 30.4027 292.412 31.0527C292.412 31.7027 291.522 32.0827 290.082 32.0827C288.632 32.0827 287.752 31.7027 287.752 31.0527C287.752 30.4027 288.632 30.0227 290.082 30.0227ZM287.032 34.7027V38.1327H293.122V34.7027H292.302V35.6927H287.852V34.7027H287.032ZM287.852 36.3327H292.302V37.4627H287.852V36.3327ZM285.992 33.4327V34.1027H294.162V33.4327H285.992Z" fill="#2D67F6"/>
<path d="M263.76 107.931V110.511H264.59V107.931H263.76ZM266.55 107.931V110.511H267.37V107.931H266.55ZM261.5 110.291V110.981H269.69V110.291H261.5ZM262.21 103.861V104.541H268.92V103.861H262.21ZM262.23 107.481V108.151H268.91V107.481H262.23ZM263.62 104.411V107.621H264.45V104.411H263.62ZM266.7 104.411V107.621H267.52V104.411H266.7ZM275.329 105.161V105.851H277.609V105.161H275.329ZM272.959 103.581V104.691C272.959 106.071 272.049 107.351 270.709 107.851L271.139 108.511C272.649 107.901 273.629 106.441 273.629 104.691V103.581H272.959ZM273.119 103.581V104.721C273.119 106.331 274.089 107.731 275.529 108.291L275.979 107.651C274.669 107.171 273.789 105.981 273.789 104.721V103.581H273.119ZM277.299 103.041V109.801H278.129V103.041H277.299ZM272.319 111.191V111.871H278.349V111.191H272.319ZM272.319 109.051V111.511H273.149V109.051H272.319ZM284.228 104.621V105.301H286.758V104.621H284.228ZM284.228 106.551V107.241H286.778V106.551H284.228ZM280.308 103.811V108.051H284.438V103.811H280.308ZM283.618 104.481V107.381H281.118V104.481H283.618ZM286.498 103.041V109.641H287.328V103.041H286.498ZM281.518 111.191V111.871H287.548V111.191H281.518ZM281.518 109.041V111.501H282.348V109.041H281.518Z" fill="#2D67F6"/>
<path d="M295.166 72.498V73.428C295.166 74.808 294.266 76.018 292.886 76.508L293.316 77.188C294.866 76.608 295.856 75.178 295.856 73.428V72.498H295.166ZM295.316 72.498V73.398C295.316 75.038 296.286 76.368 297.746 76.918L298.196 76.268C296.876 75.808 295.996 74.678 295.996 73.398V72.498H295.316ZM299.496 71.988V77.338H300.326V71.988H299.496ZM297.356 77.598C295.486 77.598 294.336 78.228 294.336 79.308C294.336 80.388 295.486 81.008 297.356 81.008C299.216 81.008 300.366 80.388 300.366 79.308C300.366 78.228 299.216 77.598 297.356 77.598ZM297.356 78.258C298.716 78.258 299.546 78.648 299.546 79.308C299.546 79.968 298.716 80.358 297.356 80.358C295.996 80.358 295.166 79.968 295.166 79.308C295.166 78.648 295.996 78.258 297.356 78.258ZM297.536 73.898V74.588H299.676V73.898H297.536ZM304.316 72.538V73.648C304.316 75.048 303.436 76.268 302.056 76.758L302.496 77.418C304.016 76.828 304.996 75.418 304.996 73.648V72.538H304.316ZM304.456 72.538V73.678C304.456 75.268 305.456 76.648 306.946 77.188L307.356 76.538C306.036 76.068 305.136 74.908 305.136 73.678V72.538H304.456ZM308.276 71.978V78.658H309.106V71.978H308.276ZM308.846 74.758V75.448H310.446V74.758H308.846ZM303.496 80.148V80.828H309.506V80.148H303.496ZM303.496 78.028V80.478H304.326V78.028H303.496ZM315.375 72.148C313.405 72.148 312.195 72.778 312.195 73.828C312.195 74.878 313.405 75.498 315.375 75.498C317.335 75.498 318.555 74.878 318.555 73.828C318.555 72.778 317.335 72.148 315.375 72.148ZM315.375 72.798C316.815 72.798 317.705 73.178 317.705 73.828C317.705 74.478 316.815 74.858 315.375 74.858C313.925 74.858 313.045 74.478 313.045 73.828C313.045 73.178 313.925 72.798 315.375 72.798ZM312.325 77.478V80.908H318.415V77.478H317.595V78.468H313.145V77.478H312.325ZM313.145 79.108H317.595V80.238H313.145V79.108ZM311.285 76.208V76.878H319.455V76.208H311.285Z" fill="#2D67F6"/>
</svg>
