<svg width="353" height="231" viewBox="0 0 353 231" fill="none" xmlns="http://www.w3.org/2000/svg">
<path d="M57.5013 68.6389H62.2382L63.8171 65.5087H67.5013L71.1856 62.9002L74.3434 61.3351L76.975 57.6832V52.9879L78.0276 51.4228L80.1329 51.9445L82.2382 54.0313L84.8698 51.9445L85.9224 51.4228L86.975 51.9445L88.0276 52.9879L90.1329 50.3794L92.7645 49.336L94.3434 47.2493L96.975 46.2059H100.659L108.554 41.5106L111.712 42.554H114.87L116.975 43.0757L119.607 41.5106H121.712L123.817 38.3804H127.501L134.343 35.7719L141.186 33.6851L142.765 30.5549L147.501 28.9898L149.607 26.3813H156.449H162.764H166.449L169.08 23.2512H175.922L181.186 21.1644H186.449H190.133L194.343 17.5125H200.659H208.028H211.186L214.343 9.68701V7.60022L218.028 9.68701H219.607L221.712 12.2955H226.449L228.554 9.68701H230.659H233.817H238.028H240.133L245.396 7.60022L249.607 4.47003L252.238 7.60022V6.03512H257.501H261.712L263.291 2.38324H266.975L269.607 4.47003H273.291L275.922 7.60022H280.133L282.764 4.47003H288.028L292.765 7.60022V12.2955L297.501 17.5125L301.186 19.5993L305.922 23.2512L308.554 21.1644H314.87L318.554 23.2512L322.764 24.8162L320.659 28.9898L323.291 30.5549L325.396 34.2068V40.9889L322.764 44.6408L323.291 46.7276L325.396 49.336L326.975 50.9011H329.607V52.9879L328.028 52.4662L326.449 54.0313L327.501 55.5964H329.08L329.607 57.6832L331.186 56.1181L332.764 54.553L332.238 52.4662V50.3794L334.343 49.8577L335.922 50.9011V52.4662L336.449 54.0313L338.028 54.553L339.08 56.1181L341.186 56.6398L342.238 58.2049L341.186 59.77L339.607 60.2917L338.554 59.77L336.975 58.7266V57.6832H333.817L331.712 59.77V65.5087L333.817 68.6389V72.8124L331.712 75.4209L329.607 71.5203H327.501L325.396 77.5077L323.291 84.8115V90.0285L320.659 94.7237H314.87L311.186 99.9407L308.554 105.679L305.922 111.418L303.291 117.157L297.501 121.33L295.396 124.461H297.501L295.396 131.764L290.133 132.808L284.87 134.373H280.133L273.291 135.938L266.975 138.025L263.291 143.763L257.501 145.328V146.894L254.343 145.328L249.607 148.459L241.712 152.111H235.922L230.659 154.197L226.449 152.111L223.817 151.589L219.607 152.111L218.028 154.197H214.343L211.712 158.371L205.396 163.066L203.817 167.24H198.554L195.396 168.805L192.764 167.24L190.133 165.675H184.343L183.291 168.283L181.186 167.24L178.028 164.631V168.283L173.817 168.805L168.554 167.24H164.343L162.764 170.37L158.554 171.413L152.764 171.935L149.607 173.5H145.922L141.186 171.935L139.607 168.805L135.922 167.761L128.554 168.805L123.817 170.37L119.607 165.675L114.87 167.761L108.554 170.37H102.764L98.0276 168.805L94.3434 170.37L91.7119 168.805H86.4487L85.3961 167.24L79.6066 170.37L74.8698 175.065H71.7119L70.6592 180.804V182.891L71.7119 186.543L70.6592 190.194L68.0276 189.151L66.4487 186.543L63.8171 189.151L59.0803 188.629L58.0276 184.977V181.847H53.8171L51.7119 178.195L46.975 171.413L42.2382 167.24L38.554 165.675H34.8698L28.0277 159.936L24.8698 158.371L21.1855 152.111L18.554 146.894L14.8698 142.198V138.025L18.0277 135.938L15.9224 132.808V130.721L18.0277 126.026L15.9224 123.417V118.2L16.975 115.592L18.0277 115.07H20.1329L23.8171 110.375V106.723L26.975 106.201L31.7119 102.549L33.8171 99.9407L37.5013 97.854L39.6066 92.637L43.8171 90.0285H45.3961L51.1855 84.8115L56.4487 79.0728L57.5013 72.8124V68.6389Z" fill="white"/>
<path d="M338.028 35.7719L339.607 39.4238L342.238 40.5417L345.922 40.9889L348.554 39.4238L350.133 38.3804L348.554 32.6417L351.186 30.5549L348.554 28.9898H345.922V24.8162H339.607V28.9898L336.449 30.5549L338.028 35.7719Z" fill="white"/>
<path d="M7.50134 131.764L11.7119 130.721V127.069H7.50134H1.18555L3.81713 131.764L5.39607 134.373L7.50134 131.764Z" fill="white"/>
<path d="M38.554 84.8115L41.7119 88.9851L42.7645 86.3766L44.8698 83.2464L43.8171 80.1162H42.7645L38.554 79.0728V84.8115Z" fill="white"/>
<path d="M56.975 205.324L60.6592 208.454H62.2382L64.8698 205.845L66.4487 201.672H62.2382L60.6592 200.107L56.975 201.672V205.324Z" fill="white"/>
<path d="M58.0276 223.583L59.0803 229.322L60.6592 226.713V223.583V219.931H59.0803L58.0276 223.583Z" fill="white"/>
<path d="M82.2382 21.1644L84.8698 22.2078V21.1644V19.0776V16.9908L83.2908 14.904H86.975L90.1329 13.3389L89.0803 10.2087L90.1329 7.60022H88.0276H86.975L83.2908 10.2087L80.6592 9.68701L79.0803 10.2087H75.9224L74.3434 12.8172L79.0803 14.904L82.2382 21.1644Z" fill="white"/>
<path d="M67.5013 8.64361L72.2382 11.2521L73.8171 10.2087L74.3434 7.60022L73.8171 5.51343L71.1856 2.90494H67.5013V1.33984H63.8171V2.90494L67.5013 4.99173L64.8698 6.55682L67.5013 8.64361Z" fill="white"/>
<path d="M67.5013 65.5087H63.8171L62.2382 68.6389H57.5013V72.8124L56.4487 79.0728L51.1855 84.8115L45.3961 90.0285H43.8171L39.6066 92.637L37.5013 97.8539L33.8171 99.9407M67.5013 65.5087L68.554 68.6389V71.7691V78.0294L71.1856 82.203V86.3766L77.5013 91.5936L78.0276 96.8106L99.0803 110.375M67.5013 65.5087L71.1856 62.9002L74.3434 61.3351L76.975 57.6832V52.9879L78.0276 51.4228L80.1329 51.9445L82.2382 54.0313L84.8698 51.9445L85.9224 51.4228L86.975 51.9445L88.0276 52.9879L90.1329 50.3794L92.7645 49.336L94.3434 47.2493L96.975 46.2059H100.659L108.554 41.5106L111.712 42.554H114.87L116.975 43.0757M99.0803 110.375L104.87 112.461L112.764 111.418L114.87 112.461L123.817 113.505M99.0803 110.375L96.975 112.461H89.0803L84.8698 112.983L79.6066 121.33L75.3961 119.244L66.7535 121.259M123.817 113.505L124.87 115.07L121.712 118.2L119.607 127.069L117.501 130.721L113.291 131.764L111.712 135.938L108.554 138.546L105.922 135.938L102.764 132.808L98.554 138.025V145.328L99.6066 154.197L98.0276 158.371L96.975 164.631L98.0276 168.805M123.817 113.505L125.922 110.375L127.501 107.766L128.554 105.679H130.133L134.343 105.158H138.028H141.186H145.922H149.607L153.817 104.114H156.449L160.133 105.158L163.291 103.593M98.0276 168.805L94.3434 170.37L91.7119 168.805H86.4487L85.3961 167.24L79.6066 170.37L74.8698 175.065H71.7119M98.0276 168.805L102.764 170.37H108.554L114.87 167.761L119.607 165.675L123.817 170.37L128.554 168.805L135.922 167.761L139.607 168.805L141.186 171.935L145.922 173.5H149.607L152.764 171.935L158.554 171.413L162.764 170.37L164.343 167.24H168.554M71.7119 175.065L70.6592 180.804V182.891L71.7119 186.543L70.6592 190.194L68.0276 189.151L66.4487 186.543L63.8171 189.151L59.0803 188.629L58.0277 184.977V181.847H53.8171L51.7119 178.195L46.975 171.413L42.2382 167.24L38.554 165.675H34.8698L28.0277 159.936L24.8698 158.371L21.1855 152.111L18.554 146.894L14.8698 142.198V138.025L18.0277 135.938M71.7119 175.065L69.6066 173.5L63.8171 171.413V167.24L62.2382 163.066L63.8171 159.936L66.4487 155.762L66.7535 151.589V148.459L69.6066 145.328L68.554 142.198L65.9224 139.59L65.3961 136.46L61.1855 131.764M18.0277 135.938L15.9224 132.808V130.721L18.0277 126.026L15.9224 123.417V118.2L16.975 115.592L18.0277 115.07H20.1329L23.8171 110.375V106.723L26.975 106.201L31.7119 102.549L33.8171 99.9407M18.0277 135.938H20.1329L22.2382 134.373L25.3961 133.851L28.554 135.416L32.7645 138.025L35.9224 139.068L39.6066 142.198L45.3961 145.328V139.068L50.1329 136.981L56.4487 134.373L61.1855 131.764M33.8171 99.9407L35.9224 104.114L41.1855 109.853L45.3961 110.375L46.975 112.461L52.2382 111.418L54.8698 113.505L57.5013 111.418L62.2382 113.505L64.8698 118.2L66.4487 121.33L66.7535 121.259M66.7535 121.259L61.1855 131.764M116.975 43.0757V49.336L119.607 50.3794H122.765L125.922 49.336L126.449 50.3794L127.501 55.0747L128.554 59.77L130.133 63.9436L128.554 68.6389L130.133 72.8124V75.4209L130.659 79.5945L132.238 82.203L134.343 84.8115L136.975 88.4634L139.607 90.0285L142.765 91.5936L145.922 90.5502L149.607 91.5936L154.87 93.1587L158.554 94.7237L160.659 96.8106L162.764 99.9407L163.291 103.593M116.975 43.0757L119.607 41.5106H121.712L123.817 38.3804H127.501L134.343 35.7719L141.186 33.6851L142.765 30.5549L147.501 28.9898L149.607 26.3813H156.449H162.764H166.449L169.08 23.2512H175.922L181.186 21.1644H186.449H190.133L194.343 17.5125M163.291 103.593V107.766L162.764 113.505L164.343 119.765L162.764 124.461V127.069L163.291 130.721V136.46L164.343 145.328V150.024L166.449 155.762L168.554 161.501L169.08 165.675L168.554 167.24M163.291 103.593H168.554M168.554 167.24L173.817 168.805L178.028 168.283V164.631L181.186 167.24L183.291 168.283L184.343 165.675H190.133L192.764 167.24L195.396 168.805L198.554 167.24H203.817L205.396 163.066M168.554 103.593H173.817L178.028 105.158L181.186 110.375L186.449 115.07L190.133 117.157V121.33L194.343 124.461V129.678L195.396 135.938L200.659 142.198L203.817 143.763L205.396 148.459V151.589V163.066M168.554 103.593L171.186 101.506L176.449 97.8539M205.396 163.066L211.712 158.371L214.343 154.197H218.028L219.607 152.111L223.817 151.589L226.449 152.111L230.659 154.197L235.922 152.111H241.712L249.607 148.459L254.343 145.328L257.501 146.894V145.328L263.291 143.763L266.975 138.025L273.291 135.938M194.343 17.5125L192.764 23.2512L194.343 28.9898L200.659 30.5549V35.7719L203.817 38.3804V40.9889L206.449 44.6408L208.554 48.2927L209.607 55.0747L211.712 60.8134L211.186 65.5087V69.6823L208.028 72.8124L203.817 77.5077L201.712 82.203L198.554 87.42L194.343 88.4634L189.607 90.0285L184.87 94.2021L180.133 95.7672L176.449 97.8539M194.343 17.5125H200.659H208.028H211.186L214.343 9.68701V7.60022L218.028 9.68701H219.607L221.712 12.2955H226.449L228.554 9.68701H230.659H233.817H238.028M176.449 97.8539L188.028 98.8973L192.764 97.8539L196.449 94.7237L202.764 95.2455L208.028 89.5068L214.343 87.42L218.028 88.4634M218.028 88.4634L223.817 92.637L226.449 95.7672L230.659 97.8539H238.028H241.712L245.396 99.9407L249.607 101.506L252.238 104.114L254.343 107.766L257.501 111.418L261.712 117.157L263.291 121.33L261.712 123.417L266.975 127.069H269.607L273.291 135.938M218.028 88.4634L219.607 84.8115L227.576 82.203L233.817 77.5077L243.291 72.8124L249.607 71.5203M273.291 135.938L280.133 134.373H284.87L290.133 132.808L295.396 131.764L297.501 124.461H295.396L297.501 121.33M238.028 9.68701L235.922 15.9474L238.028 21.1644H240.133L243.291 26.3813L247.501 30.5549L249.607 35.7719V43.0757L247.501 49.336V55.0747V59.77L245.396 60.8134L247.501 67.0738L249.607 71.5203M238.028 9.68701H240.133L245.396 7.60022L249.607 4.47003L252.238 7.60022V6.03512H257.501H261.712L263.291 2.38324H266.975L269.607 4.47003H273.291L275.922 7.60022H280.133L282.764 4.47003H288.028L292.765 7.60022V12.2955L297.501 17.5125L301.186 19.5993L305.922 23.2512L308.554 21.1644H314.87L318.554 23.2512L322.764 24.8162L320.659 28.9898L323.291 30.5549L325.396 34.2068V40.9889L322.764 44.6408M249.607 71.5203L254.343 75.4209H259.08L263.291 72.8124L269.607 69.6823L273.291 67.0738L280.133 65.5087H282.764M282.764 65.5087L285.922 68.6389L288.028 75.4209L285.922 79.5945L284.87 86.3766L282.764 90.5502L280.133 95.7672L284.87 96.8106L285.922 98.8973L290.133 101.506L295.396 105.679L297.501 111.418L299.607 113.505V117.157L297.501 121.33M282.764 65.5087L285.922 62.3785H290.133L295.396 57.6832L299.607 56.6398L303.291 52.9879L305.922 52.4662H308.554L311.186 48.2927L316.449 46.7276L322.764 44.6408M297.501 121.33L303.291 117.157L305.922 111.418L308.554 105.679L311.186 99.9407L314.87 94.7237H320.659L323.291 90.0285V84.8115L325.396 77.5077L327.501 71.5203H329.607L331.712 75.4209L333.817 72.8124V68.6389L331.712 65.5087V59.77L333.817 57.6832H336.975V58.7266L338.554 59.77L339.607 60.2917L341.186 59.77L342.238 58.2049L341.186 56.6398L339.08 56.1181L338.028 54.553L336.449 54.0313L335.922 52.4662V50.9011L334.343 49.8577L332.238 50.3794V52.4662L332.764 54.553L331.186 56.1181L329.607 57.6832L329.08 55.5964H327.501L326.449 54.0313L328.028 52.4662L329.607 52.9879V50.9011H326.975L325.396 49.336L323.291 46.7276L322.764 44.6408M343.291 40.9889L342.238 40.5417M342.238 40.5417L339.607 39.4238L338.028 35.7719L336.449 30.5549L339.607 28.9898V24.8162H345.922V28.9898H348.554L351.186 30.5549L348.554 32.6417L350.133 38.3804L348.554 39.4238L345.922 40.9889L342.238 40.5417ZM11.7119 130.721L7.50134 131.764L5.39607 134.373L3.81713 131.764L1.18555 127.069H7.50134H11.7119V130.721ZM41.7119 88.9851L38.554 84.8115V79.0728L42.7645 80.1162H43.8171L44.8698 83.2464L42.7645 86.3766L41.7119 88.9851ZM60.6592 208.454L56.975 205.324V201.672L60.6592 200.107L62.2382 201.672H66.4487L64.8698 205.845L62.2382 208.454H60.6592ZM59.0803 229.322L58.0277 223.583L59.0803 219.931H60.6592V223.583V226.713L59.0803 229.322ZM84.8698 22.2078L82.2382 21.1644L79.0803 14.904L74.3434 12.8172L75.9224 10.2087H79.0803L80.6592 9.68701L83.2908 10.2087L86.975 7.60022H88.0276H90.1329L89.0803 10.2087L90.1329 13.3389L86.975 14.904H83.2908L84.8698 16.9908V19.0776V21.1644V22.2078ZM72.2382 11.2521L67.5013 8.64361L64.8698 6.55682L67.5013 4.99173L63.8171 2.90494V1.33984H67.5013V2.90494H71.1856L73.8171 5.51343L74.3434 7.60022L73.8171 10.2087L72.2382 11.2521Z" stroke="#2D67F6" stroke-width="1.06061" stroke-dasharray="2.12 2.12"/>
<path d="M112.765 111.418L104.87 112.462L99.0806 110.375L96.9754 112.462H89.0806L84.8701 112.983L79.6069 121.331L75.3964 119.244L66.7538 121.26L66.449 121.331L61.5799 131.765L65.3964 136.46L65.9227 139.59L68.5543 142.199L69.6069 145.329L66.7538 148.459V151.589L66.449 155.763L63.8175 159.936V167.24V171.414L69.6069 173.5L71.7122 175.066H74.8701L79.6069 170.37L85.3964 167.24L86.449 168.805H91.7122L94.3438 170.37L98.028 168.805L96.9754 164.632L98.028 158.371L99.6069 154.198L98.5543 145.329V138.025L102.765 132.808L105.923 135.938L108.554 138.547L111.712 135.938L113.291 131.765L117.502 130.721L119.607 127.069L121.712 118.2L124.87 115.07L123.817 113.505L114.87 112.462L112.765 111.418Z" fill="#2D67F6" fill-opacity="0.2" stroke="#2D67F6" stroke-width="1.06061" stroke-linecap="round"/>
<path d="M162.072 54.6755V63.7155H162.872V54.6755H162.072ZM158.782 57.9155V58.6055H160.512V57.9155H158.782ZM160.262 54.8855V63.2555H161.042V54.8855H160.262ZM157.042 56.0755V57.2255C157.042 58.8855 156.342 60.5355 155.082 61.2955L155.592 61.9155C156.922 61.0755 157.682 59.2055 157.682 57.2255V56.0755H157.042ZM157.212 56.0755V57.2255C157.212 59.1155 157.942 60.8955 159.262 61.6955L159.772 61.0855C158.532 60.3655 157.852 58.7955 157.852 57.2255V56.0755H157.212ZM155.332 55.7255V56.4155H159.462V55.7255H155.332ZM168.021 55.5655V55.9455C168.021 57.1355 166.471 58.1755 164.881 58.4055L165.201 59.0655C167.021 58.7555 168.741 57.5655 168.741 55.9455V55.5655H168.021ZM168.231 55.5655V55.9455C168.231 57.5655 169.941 58.7555 171.771 59.0655L172.081 58.4055C170.501 58.1755 168.941 57.1355 168.941 55.9455V55.5655H168.231ZM168.051 60.2655V63.7155H168.871V60.2655H168.051ZM164.401 59.8255V60.5055H172.571V59.8255H164.401ZM165.161 55.2355V55.9055H171.781V55.2355H165.161ZM175.981 55.4555V57.0755C175.981 58.7855 174.891 60.5155 173.551 61.1555L174.061 61.8355C175.541 61.0855 176.661 59.1555 176.661 57.0755V55.4555H175.981ZM176.121 55.4555V57.0755C176.121 59.0855 177.251 60.9455 178.721 61.6655L179.221 61.0055C177.881 60.3855 176.801 58.7255 176.801 57.0755V55.4555H176.121ZM180.161 54.6655V63.7255H180.991V54.6655H180.161Z" fill="#2D67F6"/>
<path d="M174.197 145.689V146.369H176.717V145.689H174.197ZM172.017 143.409V145.019C172.017 146.699 170.997 148.439 169.667 149.099L170.197 149.759C171.627 148.989 172.697 147.049 172.697 145.019V143.409H172.017ZM172.177 143.409V145.019C172.177 146.999 173.227 148.859 174.687 149.599L175.177 148.929C173.867 148.309 172.847 146.669 172.847 145.019V143.409H172.177ZM176.307 142.619V151.679H177.127V142.619H176.307ZM181.336 147.379V151.149H182.176V147.379H181.336ZM185.536 142.629V151.669H186.356V142.629H185.536ZM178.936 147.639C180.726 147.629 182.926 147.589 184.956 147.309L184.886 146.689C182.896 146.899 180.656 146.929 178.826 146.939L178.936 147.639ZM179.616 143.319V144.009H183.356V143.319H179.616ZM183.036 143.319V143.689C183.036 144.309 183.036 145.399 182.736 146.989L183.556 147.059C183.856 145.449 183.856 144.319 183.856 143.689V143.319H183.036ZM188.085 149.859V150.549H196.275V149.859H188.085ZM191.735 147.519V150.169H192.565V147.519H191.735ZM188.795 143.489V144.169H195.505V143.489H188.795ZM188.815 147.129V147.799H195.495V147.129H188.815ZM190.205 144.039V147.249H191.035V144.039H190.205ZM193.285 144.039V147.249H194.105V144.039H193.285Z" fill="#2D67F6"/>
<path d="M53.9202 92.1562V98.9363H54.7502V92.1562H53.9202ZM54.4902 95.1162V95.8162H56.0902V95.1162H54.4902ZM47.7602 93.2462V93.9162H53.1002V93.2462H47.7602ZM50.4302 94.4162C49.1402 94.4162 48.2602 95.0862 48.2602 96.1062C48.2602 97.1162 49.1402 97.7862 50.4302 97.7862C51.7102 97.7862 52.5902 97.1162 52.5902 96.1062C52.5902 95.0862 51.7102 94.4162 50.4302 94.4162ZM50.4302 95.0662C51.2402 95.0662 51.8002 95.4762 51.8002 96.1062C51.8002 96.7262 51.2402 97.1362 50.4302 97.1362C49.6102 97.1362 49.0502 96.7262 49.0502 96.1062C49.0502 95.4762 49.6102 95.0662 50.4302 95.0662ZM50.0102 92.1462V93.5962H50.8402V92.1462H50.0102ZM49.1202 100.306V100.986H55.1602V100.306H49.1202ZM49.1202 98.3962V100.596H49.9502V98.3962H49.1202ZM63.5095 92.1462V97.5062H64.3495V92.1462H63.5095ZM57.3995 96.3962V97.0862H58.1295C59.8095 97.0862 61.0295 97.0362 62.5195 96.7862L62.4295 96.1162C60.9795 96.3462 59.7695 96.3962 58.1295 96.3962H57.3995ZM57.3795 92.6862V93.3662H60.6695V94.5162H57.3995V96.8062H58.2095V95.1562H61.4795V92.6862H57.3795ZM58.5095 98.0062V101.066H64.3495V98.0062H58.5095ZM63.5295 98.6662V100.396H59.3195V98.6662H63.5295ZM70.2187 92.3062C68.2487 92.3062 67.0387 92.9362 67.0387 93.9862C67.0387 95.0362 68.2487 95.6562 70.2187 95.6562C72.1787 95.6562 73.3987 95.0362 73.3987 93.9862C73.3987 92.9362 72.1787 92.3062 70.2187 92.3062ZM70.2187 92.9562C71.6587 92.9562 72.5487 93.3362 72.5487 93.9862C72.5487 94.6362 71.6587 95.0162 70.2187 95.0162C68.7687 95.0162 67.8887 94.6362 67.8887 93.9862C67.8887 93.3362 68.7687 92.9562 70.2187 92.9562ZM67.1687 97.6362V101.066H73.2587V97.6362H72.4387V98.6262H67.9887V97.6362H67.1687ZM67.9887 99.2662H72.4387V100.396H67.9887V99.2662ZM66.1287 96.3662V97.0362H74.2987V96.3662H66.1287Z" fill="#2D67F6"/>
<path d="M75.1966 151.089V157.749H76.0266V151.089H75.1966ZM75.7666 153.839V154.529H77.3666V153.839H75.7666ZM70.3966 159.259V159.939H76.4366V159.259H70.3966ZM70.3966 157.069V159.529H71.2266V157.069H70.3966ZM71.5366 151.729C70.1866 151.729 69.1766 152.659 69.1766 153.959C69.1766 155.269 70.1866 156.189 71.5366 156.189C72.8866 156.189 73.8966 155.269 73.8966 153.959C73.8966 152.659 72.8866 151.729 71.5366 151.729ZM71.5366 152.459C72.4166 152.459 73.0866 153.079 73.0866 153.959C73.0866 154.849 72.4166 155.459 71.5366 155.459C70.6566 155.459 69.9866 154.849 69.9866 153.959C69.9866 153.079 70.6566 152.459 71.5366 152.459ZM78.7058 155.399V156.089H79.3758C81.1758 156.089 82.2058 156.029 83.4058 155.789L83.3058 155.119C82.1458 155.359 81.1458 155.399 79.3758 155.399H78.7058ZM78.7058 151.729V155.619H79.5158V152.399H82.8158V151.729H78.7058ZM79.6158 156.969V157.649H84.8158V160.139H85.6458V156.969H79.6158ZM84.8158 151.099V156.509H85.6458V151.099H84.8158ZM82.2858 153.439V154.109H85.0458V153.439H82.2858ZM91.745 152.689V153.369H94.275V152.689H91.745ZM91.745 154.619V155.309H94.295V154.619H91.745ZM87.825 151.879V156.119H91.955V151.879H87.825ZM91.135 152.549V155.449H88.635V152.549H91.135ZM94.015 151.109V157.709H94.845V151.109H94.015ZM89.035 159.259V159.939H95.065V159.259H89.035ZM89.035 157.109V159.569H89.865V157.109H89.035Z" fill="#2D67F6"/>
<path d="M30.056 118.316V125.096H30.886V118.316H30.056ZM30.626 121.276V121.976H32.226V121.276H30.626ZM23.896 119.406V120.076H29.236V119.406H23.896ZM26.566 120.576C25.276 120.576 24.396 121.246 24.396 122.266C24.396 123.276 25.276 123.946 26.566 123.946C27.846 123.946 28.726 123.276 28.726 122.266C28.726 121.246 27.846 120.576 26.566 120.576ZM26.566 121.226C27.376 121.226 27.936 121.636 27.936 122.266C27.936 122.886 27.376 123.296 26.566 123.296C25.746 123.296 25.186 122.886 25.186 122.266C25.186 121.636 25.746 121.226 26.566 121.226ZM26.146 118.306V119.756H26.976V118.306H26.146ZM25.256 126.466V127.146H31.296V126.466H25.256ZM25.256 124.556V126.756H26.086V124.556H25.256ZM37.3952 119.966V120.646H39.8152V119.966H37.3952ZM37.3152 121.846V122.526H39.7552V121.846H37.3152ZM39.6752 118.306V123.726H40.5052V118.306H39.6752ZM36.8452 118.986V119.346C36.8452 121.056 35.4952 122.386 33.1852 123.056L33.5252 123.726C36.1252 122.946 37.7352 121.316 37.7352 118.986H36.8452ZM33.6552 118.986V119.666H37.4152V118.986H33.6552ZM37.5652 123.826C35.7352 123.826 34.5752 124.476 34.5752 125.566C34.5752 126.656 35.7352 127.306 37.5652 127.306C39.3952 127.306 40.5552 126.656 40.5552 125.566C40.5552 124.476 39.3952 123.826 37.5652 123.826ZM37.5652 124.476C38.8952 124.476 39.7452 124.886 39.7452 125.566C39.7452 126.246 38.8952 126.646 37.5652 126.646C36.2452 126.646 35.3952 126.246 35.3952 125.566C35.3952 124.886 36.2452 124.476 37.5652 124.476ZM46.6044 119.896V120.576H49.1344V119.896H46.6044ZM46.6044 121.826V122.516H49.1544V121.826H46.6044ZM42.6844 119.086V123.326H46.8144V119.086H42.6844ZM45.9944 119.756V122.656H43.4944V119.756H45.9944ZM48.8744 118.316V124.916H49.7044V118.316H48.8744ZM43.8944 126.466V127.146H49.9244V126.466H43.8944ZM43.8944 124.316V126.776H44.7244V124.316H43.8944Z" fill="#2D67F6"/>
<path d="M37.5165 150.834V159.874H38.3165V150.834H37.5165ZM35.9865 154.454V155.144H37.7265V154.454H35.9865ZM35.4665 151.034V159.414H36.2465V151.034H35.4665ZM30.9665 156.954V157.644H31.5565C32.9165 157.644 33.8265 157.604 34.9065 157.374L34.8265 156.684C33.7765 156.904 32.8765 156.954 31.5565 156.954H30.9665ZM30.9665 151.934V157.264H31.7865V152.614H34.3265V151.934H30.9665ZM44.6657 153.174V153.864H46.7057V153.174H44.6657ZM46.4457 150.834V156.224H47.2757V150.834H46.4457ZM44.3057 156.494C42.4357 156.494 41.2857 157.124 41.2857 158.184C41.2857 159.254 42.4357 159.864 44.3057 159.864C46.1657 159.864 47.3157 159.254 47.3157 158.184C47.3157 157.124 46.1657 156.494 44.3057 156.494ZM44.3057 157.144C45.6657 157.144 46.4957 157.524 46.4957 158.184C46.4957 158.834 45.6657 159.214 44.3057 159.214C42.9457 159.214 42.1157 158.834 42.1157 158.184C42.1157 157.524 42.9457 157.144 44.3057 157.144ZM42.1457 151.744V152.474C42.1457 153.774 41.2157 154.984 39.8757 155.474L40.3057 156.134C41.8057 155.574 42.8257 154.144 42.8257 152.474V151.744H42.1457ZM42.3057 151.744V152.474C42.3057 153.994 43.2757 155.354 44.7457 155.884L45.1657 155.224C43.8557 154.764 42.9757 153.644 42.9757 152.474V151.744H42.3057ZM40.1257 151.494V152.174H44.9557V151.494H40.1257ZM53.1249 150.994C51.1549 150.994 49.9449 151.624 49.9449 152.674C49.9449 153.724 51.1549 154.344 53.1249 154.344C55.0849 154.344 56.3049 153.724 56.3049 152.674C56.3049 151.624 55.0849 150.994 53.1249 150.994ZM53.1249 151.644C54.5649 151.644 55.4549 152.024 55.4549 152.674C55.4549 153.324 54.5649 153.704 53.1249 153.704C51.6749 153.704 50.7949 153.324 50.7949 152.674C50.7949 152.024 51.6749 151.644 53.1249 151.644ZM50.0749 156.324V159.754H56.1649V156.324H55.3449V157.314H50.8949V156.324H50.0749ZM50.8949 157.954H55.3449V159.084H50.8949V157.954ZM49.0349 155.054V155.724H57.2049V155.054H49.0349Z" fill="#2D67F6"/>
<path d="M217.361 44.8929V45.5829H225.551V44.8929H217.361ZM221.041 42.7029V45.1229H221.861V42.7029H221.041ZM221.021 38.8429V39.4029C221.021 40.8329 219.311 42.1029 217.751 42.3629L218.091 43.0229C219.871 42.6529 221.721 41.2529 221.721 39.4029V38.8429H221.021ZM221.171 38.8429V39.4029C221.171 41.2529 223.031 42.6329 224.841 42.9929L225.171 42.3329C223.591 42.0729 221.871 40.8329 221.871 39.4029V38.8429H221.171ZM218.031 38.5229V39.2029H224.861V38.5229H218.031ZM228.811 39.4029V39.8529C228.811 41.1229 227.921 42.2429 226.581 42.7029L226.991 43.3529C228.501 42.8229 229.491 41.4829 229.491 39.8529V39.4029H228.811ZM228.951 39.4029V39.8529C228.951 41.4129 229.981 42.6929 231.491 43.1929L231.901 42.5329C230.561 42.1129 229.641 41.0529 229.641 39.8529V39.4029H228.951ZM226.811 38.9129V39.5829H231.631V38.9129H226.811ZM228.811 37.7629V39.1629H229.641V37.7629H228.811ZM231.331 40.4829V41.1729H233.611V40.4829H231.331ZM233.161 37.7129V44.4529H233.991V37.7129H233.161ZM228.221 45.8629V46.5429H234.241V45.8629H228.221ZM228.221 43.8529V46.2329H229.051V43.8529H228.221ZM239.84 37.8629C237.87 37.8629 236.66 38.4929 236.66 39.5429C236.66 40.5929 237.87 41.2129 239.84 41.2129C241.8 41.2129 243.02 40.5929 243.02 39.5429C243.02 38.4929 241.8 37.8629 239.84 37.8629ZM239.84 38.5129C241.28 38.5129 242.17 38.8929 242.17 39.5429C242.17 40.1929 241.28 40.5729 239.84 40.5729C238.39 40.5729 237.51 40.1929 237.51 39.5429C237.51 38.8929 238.39 38.5129 239.84 38.5129ZM236.79 43.1929V46.6229H242.88V43.1929H242.06V44.1829H237.61V43.1929H236.79ZM237.61 44.8229H242.06V45.9529H237.61V44.8229ZM235.75 41.9229V42.5929H243.92V41.9229H235.75Z" fill="#2D67F6"/>
<path d="M222.36 121.306V126.416H223.19V121.306H222.36ZM222.97 123.376V124.066H224.53V123.376H222.97ZM217.49 126.906V130.226H223.19V126.906H217.49ZM222.38 127.576V129.546H218.31V127.576H222.38ZM216.61 121.756V125.376H217.44V121.756H216.61ZM216.61 125.036V125.736H217.32C218.67 125.736 220.02 125.646 221.55 125.326L221.45 124.646C219.97 124.946 218.62 125.036 217.32 125.036H216.61ZM227.939 125.856V127.866H228.769V125.856H227.939ZM231.949 121.306V128.186H232.779V121.306H231.949ZM226.609 129.466V130.146H232.999V129.466H226.609ZM226.609 127.516V129.656H227.439V127.516H226.609ZM225.439 126.166C227.079 126.166 229.269 126.136 231.219 125.826L231.159 125.216C229.239 125.466 226.999 125.486 225.329 125.486L225.439 126.166ZM230.109 126.646V127.256H232.159V126.646H230.109ZM228.269 121.676C226.939 121.676 226.039 122.296 226.039 123.246C226.039 124.206 226.939 124.826 228.269 124.826C229.589 124.826 230.489 124.206 230.489 123.246C230.489 122.296 229.589 121.676 228.269 121.676ZM228.269 122.296C229.109 122.296 229.699 122.666 229.699 123.246C229.699 123.826 229.109 124.196 228.269 124.196C227.419 124.196 226.829 123.826 226.829 123.246C226.829 122.666 227.419 122.296 228.269 122.296ZM238.658 121.466C236.688 121.466 235.478 122.096 235.478 123.146C235.478 124.196 236.688 124.816 238.658 124.816C240.618 124.816 241.838 124.196 241.838 123.146C241.838 122.096 240.618 121.466 238.658 121.466ZM238.658 122.116C240.098 122.116 240.988 122.496 240.988 123.146C240.988 123.796 240.098 124.176 238.658 124.176C237.208 124.176 236.328 123.796 236.328 123.146C236.328 122.496 237.208 122.116 238.658 122.116ZM235.608 126.796V130.226H241.698V126.796H240.878V127.786H236.428V126.796H235.608ZM236.428 128.426H240.878V129.556H236.428V128.426ZM234.568 125.526V126.196H242.738V125.526H234.568Z" fill="#2D67F6"/>
<path d="M90.1404 75.9236C88.9704 75.9236 88.2204 77.1336 88.2204 79.0736C88.2204 81.0136 88.9704 82.2236 90.1404 82.2236C91.3104 82.2236 92.0704 81.0136 92.0704 79.0736C92.0704 77.1336 91.3104 75.9236 90.1404 75.9236ZM90.1404 76.6936C90.8504 76.6936 91.3004 77.6136 91.3004 79.0736C91.3004 80.5336 90.8504 81.4536 90.1404 81.4536C89.4304 81.4536 88.9804 80.5336 88.9804 79.0736C88.9804 77.6136 89.4304 76.6936 90.1404 76.6936ZM94.9904 75.1736V84.2136H95.7904V75.1736H94.9904ZM93.5604 78.7536V79.4336H95.2904V78.7536H93.5604ZM92.9904 75.3636V83.7636H93.7804V75.3636H92.9904ZM99.7296 78.9136V80.5236H100.56V78.9136H99.7296ZM103.88 75.1736V80.4936H104.71V75.1736H103.88ZM97.3796 79.1936C99.0696 79.1936 101.23 79.1736 103.21 78.8836L103.16 78.3436C101.23 78.5636 99.0196 78.5736 97.2796 78.5736L97.3796 79.1936ZM98.6496 80.8236V81.4236H103.89V82.1536H98.6696V83.7236H99.4796V82.7036H104.71V80.8236H98.6496ZM98.6696 83.5136V84.1136H105.01V83.5136H98.6696ZM102.08 79.4736V80.0136H104.14V79.4736H102.08ZM100.2 75.3436C98.8496 75.3436 97.9696 75.8636 97.9696 76.7036C97.9696 77.5436 98.8496 78.0636 100.2 78.0636C101.54 78.0636 102.42 77.5436 102.42 76.7036C102.42 75.8636 101.54 75.3436 100.2 75.3436ZM100.2 75.9236C101.07 75.9236 101.64 76.2236 101.64 76.7036C101.64 77.1836 101.07 77.4836 100.2 77.4836C99.3096 77.4836 98.7396 77.1836 98.7396 76.7036C98.7396 76.2236 99.3096 75.9236 100.2 75.9236ZM110.589 75.3336C108.619 75.3336 107.409 75.9636 107.409 77.0136C107.409 78.0636 108.619 78.6836 110.589 78.6836C112.549 78.6836 113.769 78.0636 113.769 77.0136C113.769 75.9636 112.549 75.3336 110.589 75.3336ZM110.589 75.9836C112.029 75.9836 112.919 76.3636 112.919 77.0136C112.919 77.6636 112.029 78.0436 110.589 78.0436C109.139 78.0436 108.259 77.6636 108.259 77.0136C108.259 76.3636 109.139 75.9836 110.589 75.9836ZM107.539 80.6636V84.0936H113.629V80.6636H112.809V81.6536H108.359V80.6636H107.539ZM108.359 82.2936H112.809V83.4236H108.359V82.2936ZM106.499 79.3936V80.0636H114.669V79.3936H106.499Z" fill="#2D67F6"/>
<path d="M131.286 151.924V153.504H132.116V151.924H131.286ZM127.616 151.634V152.304H135.786V151.634H127.616ZM131.696 153.254C129.756 153.254 128.596 153.824 128.596 154.844C128.596 155.854 129.756 156.424 131.696 156.424C133.636 156.424 134.796 155.854 134.796 154.844C134.796 153.824 133.636 153.254 131.696 153.254ZM131.696 153.894C133.116 153.894 133.956 154.234 133.956 154.844C133.956 155.444 133.116 155.784 131.696 155.784C130.286 155.784 129.436 155.444 129.436 154.844C129.436 154.234 130.286 153.894 131.696 153.894ZM131.166 148.144V148.414C131.166 149.444 129.696 150.254 128.076 150.424L128.376 151.084C130.246 150.854 131.906 149.874 131.906 148.414V148.144H131.166ZM131.516 148.144V148.414C131.516 149.874 133.166 150.854 135.036 151.084L135.336 150.424C133.716 150.254 132.246 149.444 132.246 148.414V148.144H131.516ZM128.366 147.814V148.484H135.056V147.814H128.366ZM136.815 152.024V152.704H145.005V152.024H136.815ZM140.555 152.444V154.524H141.385V152.444H140.555ZM137.865 147.824V151.004H143.945V147.824H137.865ZM143.125 148.494V150.334H138.675V148.494H143.125ZM137.855 155.564V156.244H144.095V155.564H137.855ZM137.855 153.654V155.804H138.675V153.654H137.855Z" fill="#2D67F6"/>
<path d="M267.624 29.8027V30.4727H273.274V29.8027H267.624ZM266.604 33.6827V34.3627H274.774V33.6827H266.604ZM270.254 34.1327V38.2627H271.084V34.1327H270.254ZM272.884 29.8027V30.5827C272.884 31.4927 272.884 32.5427 272.534 34.0027L273.354 34.1127C273.694 32.5827 273.694 31.5227 273.694 30.5827V29.8027H272.884ZM278.123 30.2927V30.8227C278.123 32.0527 277.183 33.1227 275.843 33.5527L276.253 34.2027C277.763 33.7027 278.803 32.4127 278.803 30.8227V30.2927H278.123ZM278.273 30.2927V30.8227C278.273 32.3327 279.283 33.5727 280.783 34.0527L281.173 33.4027C279.853 32.9927 278.953 31.9727 278.953 30.8227V30.2927H278.273ZM276.113 30.0427V30.7327H280.953V30.0427H276.113ZM278.123 33.8227V35.9227H278.953V33.8227H278.123ZM282.503 32.9627V33.6627H284.173V32.9627H282.503ZM281.913 29.2127V38.2527H282.743V29.2127H281.913ZM275.803 36.3627C277.363 36.3727 279.483 36.3627 281.413 36.0227L281.343 35.4027C279.483 35.6727 277.283 35.6727 275.693 35.6727L275.803 36.3627ZM289.082 29.3727C287.112 29.3727 285.902 30.0027 285.902 31.0527C285.902 32.1027 287.112 32.7227 289.082 32.7227C291.042 32.7227 292.262 32.1027 292.262 31.0527C292.262 30.0027 291.042 29.3727 289.082 29.3727ZM289.082 30.0227C290.522 30.0227 291.412 30.4027 291.412 31.0527C291.412 31.7027 290.522 32.0827 289.082 32.0827C287.632 32.0827 286.752 31.7027 286.752 31.0527C286.752 30.4027 287.632 30.0227 289.082 30.0227ZM286.032 34.7027V38.1327H292.122V34.7027H291.302V35.6927H286.852V34.7027H286.032ZM286.852 36.3327H291.302V37.4627H286.852V36.3327ZM284.992 33.4327V34.1027H293.162V33.4327H284.992Z" fill="#2D67F6"/>
<path d="M262.76 107.931V110.511H263.59V107.931H262.76ZM265.55 107.931V110.511H266.37V107.931H265.55ZM260.5 110.291V110.981H268.69V110.291H260.5ZM261.21 103.861V104.541H267.92V103.861H261.21ZM261.23 107.481V108.151H267.91V107.481H261.23ZM262.62 104.411V107.621H263.45V104.411H262.62ZM265.7 104.411V107.621H266.52V104.411H265.7ZM274.329 105.161V105.851H276.609V105.161H274.329ZM271.959 103.581V104.691C271.959 106.071 271.049 107.351 269.709 107.851L270.139 108.511C271.649 107.901 272.629 106.441 272.629 104.691V103.581H271.959ZM272.119 103.581V104.721C272.119 106.331 273.089 107.731 274.529 108.291L274.979 107.651C273.669 107.171 272.789 105.981 272.789 104.721V103.581H272.119ZM276.299 103.041V109.801H277.129V103.041H276.299ZM271.319 111.191V111.871H277.349V111.191H271.319ZM271.319 109.051V111.511H272.149V109.051H271.319ZM283.228 104.621V105.301H285.758V104.621H283.228ZM283.228 106.551V107.241H285.778V106.551H283.228ZM279.308 103.811V108.051H283.438V103.811H279.308ZM282.618 104.481V107.381H280.118V104.481H282.618ZM285.498 103.041V109.641H286.328V103.041H285.498ZM280.518 111.191V111.871H286.548V111.191H280.518ZM280.518 109.041V111.501H281.348V109.041H280.518Z" fill="#2D67F6"/>
<path d="M294.166 72.498V73.428C294.166 74.808 293.266 76.018 291.886 76.508L292.316 77.188C293.866 76.608 294.856 75.178 294.856 73.428V72.498H294.166ZM294.316 72.498V73.398C294.316 75.038 295.286 76.368 296.746 76.918L297.196 76.268C295.876 75.808 294.996 74.678 294.996 73.398V72.498H294.316ZM298.496 71.988V77.338H299.326V71.988H298.496ZM296.356 77.598C294.486 77.598 293.336 78.228 293.336 79.308C293.336 80.388 294.486 81.008 296.356 81.008C298.216 81.008 299.366 80.388 299.366 79.308C299.366 78.228 298.216 77.598 296.356 77.598ZM296.356 78.258C297.716 78.258 298.546 78.648 298.546 79.308C298.546 79.968 297.716 80.358 296.356 80.358C294.996 80.358 294.166 79.968 294.166 79.308C294.166 78.648 294.996 78.258 296.356 78.258ZM296.536 73.898V74.588H298.676V73.898H296.536ZM303.316 72.538V73.648C303.316 75.048 302.436 76.268 301.056 76.758L301.496 77.418C303.016 76.828 303.996 75.418 303.996 73.648V72.538H303.316ZM303.456 72.538V73.678C303.456 75.268 304.456 76.648 305.946 77.188L306.356 76.538C305.036 76.068 304.136 74.908 304.136 73.678V72.538H303.456ZM307.276 71.978V78.658H308.106V71.978H307.276ZM307.846 74.758V75.448H309.446V74.758H307.846ZM302.496 80.148V80.828H308.506V80.148H302.496ZM302.496 78.028V80.478H303.326V78.028H302.496ZM314.375 72.148C312.405 72.148 311.195 72.778 311.195 73.828C311.195 74.878 312.405 75.498 314.375 75.498C316.335 75.498 317.555 74.878 317.555 73.828C317.555 72.778 316.335 72.148 314.375 72.148ZM314.375 72.798C315.815 72.798 316.705 73.178 316.705 73.828C316.705 74.478 315.815 74.858 314.375 74.858C312.925 74.858 312.045 74.478 312.045 73.828C312.045 73.178 312.925 72.798 314.375 72.798ZM311.325 77.478V80.908H317.415V77.478H316.595V78.468H312.145V77.478H311.325ZM312.145 79.108H316.595V80.238H312.145V79.108ZM310.285 76.208V76.878H318.455V76.208H310.285Z" fill="#2D67F6"/>
</svg>
