<svg width="36" height="24" viewBox="0 0 36 24" fill="none" xmlns="http://www.w3.org/2000/svg">
<path d="M4.77078 21.8359C7.72354 21.8359 11.6605 16.5997 19.6527 4.82806H19.7708C14.692 14.6312 13.1172 18.1745 13.1172 20.0643C13.1172 21.1666 13.7472 21.8359 14.8102 21.8359C16.9361 21.8359 20.5582 19.2769 24.2196 15.2218C24.8102 16.2848 25.7157 16.8753 26.8574 16.8753C28.9046 16.8753 30.7944 15.4186 33.6291 11.6391L34.3377 10.6942L33.9834 10.4186L33.2747 11.3635C30.5976 14.8674 28.7078 16.3635 26.8574 16.3635C25.8338 16.3635 25.0857 15.8123 24.6133 14.7887C28.2747 10.6548 30.6763 6.32413 30.6763 3.88318C30.6763 2.58397 30.0464 1.83594 28.944 1.83594C26.3456 1.83594 23.5109 6.99342 23.5109 11.7572C23.5109 12.8989 23.6684 13.8832 23.9834 14.6706C20.4007 18.7257 16.818 21.3241 14.8102 21.3241C14.0621 21.3241 13.6684 20.8911 13.6684 20.0643C13.6684 18.0564 15.322 14.3556 21.4243 2.58397V2.38712H20.7944C11.2668 16.1666 7.52669 21.3241 4.77078 21.3241C4.02275 21.3241 3.62905 20.8911 3.62905 20.0643C3.62905 18.0564 5.28259 14.3556 11.385 2.58397V2.38712H10.8338L1.95801 11.8359L2.31234 12.1115L9.57393 4.82806H9.69204C4.6133 14.6312 3.07787 18.1745 3.07787 20.0643C3.07787 21.1666 3.70779 21.8359 4.77078 21.8359ZM24.3771 14.2375C24.1802 13.5682 24.0621 12.7021 24.0621 11.7572C24.0621 7.26901 26.6212 2.34775 28.944 2.34775C29.692 2.34775 30.1251 2.89893 30.1251 3.88318C30.1251 6.16665 27.8417 10.3005 24.3771 14.2375Z" stroke="url(#paint0_linear_3009_13111)" stroke-width="2.77778" stroke-linejoin="round"/>
<defs>
<linearGradient id="paint0_linear_3009_13111" x1="34.3377" y1="1.83594" x2="16.4539" y2="30.7896" gradientUnits="userSpaceOnUse">
<stop stop-color="#1984FF"/>
<stop offset="0.510417" stop-color="#1922FF"/>
<stop offset="1" stop-color="#1959FF"/>
</linearGradient>
</defs>
</svg>
