<svg width="54" height="62" viewBox="0 0 54 62" fill="none" xmlns="http://www.w3.org/2000/svg">
<path d="M49.1276 37.5206C49.0387 62.8677 5.20206 62.8677 5.11914 37.5206C5.20799 12.1734 49.0447 12.1764 49.1276 37.5206Z" fill="#FFA44A"/>
<path d="M2.86915 37.5127L2.86915 37.5279C2.89227 44.5957 6.00013 49.9912 10.6469 53.5623C15.2328 57.0867 21.2311 58.7809 27.1211 58.7809C33.0112 58.7809 39.0098 57.0867 43.5963 53.5625C48.2437 49.9915 51.3528 44.5962 51.3776 37.5284V37.5132C51.3545 30.4461 48.2465 25.0509 43.5998 21.48C39.0139 17.9558 33.0157 16.2615 27.1257 16.2613C21.2356 16.2611 15.2371 17.955 10.6505 21.479C6.00302 25.0497 2.89393 30.4449 2.86915 37.5127Z" stroke="#404047" stroke-opacity="0.1" stroke-width="4.5" stroke-linejoin="round"/>
<path d="M36.1649 19.9766C36.1649 28.5086 18.0818 28.5086 18.0818 19.9766C18.0818 11.4446 36.1649 11.4446 36.1649 19.9766Z" fill="#FFA44A"/>
<path d="M15.8318 19.9766C15.8318 23.0436 17.5078 25.2955 19.7092 26.6804C21.8484 28.0262 24.5523 28.6256 27.1234 28.6256C29.6944 28.6256 32.3983 28.0262 34.5375 26.6804C36.739 25.2955 38.4149 23.0436 38.4149 19.9766C38.4149 16.9097 36.739 14.6578 34.5375 13.2729C32.3983 11.9271 29.6944 11.3276 27.1234 11.3276C24.5523 11.3276 21.8484 11.9271 19.7092 13.2729C17.5078 14.6578 15.8318 16.9097 15.8318 19.9766Z" stroke="#404047" stroke-opacity="0.1" stroke-width="4.5" stroke-linejoin="round"/>
<path d="M34.904 12.0425C31.4291 13.3625 27.3439 11.0902 27.3439 11.0902C29.319 5.37806 34.7079 3.36856 39.9312 6.31389C39.9312 6.31389 38.3789 10.7224 34.9019 12.0388L34.904 12.0425Z" fill="#2CAC82"/>
<path d="M35.703 14.1458C35.7526 14.127 35.8013 14.1065 35.8491 14.0844C38.1537 13.1589 39.6932 11.3157 40.6074 9.90823C41.0907 9.16396 41.444 8.47241 41.6779 7.96464C41.7956 7.70925 41.8848 7.49632 41.9468 7.34136C41.9778 7.26377 42.0022 7.20039 42.0199 7.15313C42.0287 7.12949 42.0359 7.10985 42.0415 7.09445L42.0487 7.07455L42.0514 7.06703L42.0525 7.06389L42.053 7.06247C42.0532 7.0618 42.0535 7.06116 39.9312 6.31389L42.0535 7.06116C42.416 6.03152 41.9872 4.89018 41.0363 4.35401C37.936 2.60575 34.5877 2.23205 31.6249 3.35048C28.6604 4.46955 26.3891 6.96646 25.2174 10.3549C24.8607 11.3867 25.2961 12.5258 26.2502 13.0565L27.3439 11.0902C26.2502 13.0565 26.2508 13.0568 26.2514 13.0571L26.2527 13.0579L26.2556 13.0595L26.2626 13.0633L26.2812 13.0735C26.2956 13.0813 26.314 13.0912 26.3363 13.1031C26.3809 13.1267 26.4411 13.1581 26.5158 13.1956C26.6649 13.2706 26.873 13.3708 27.1303 13.4841C27.6421 13.7092 28.3651 13.9929 29.2204 14.2298C30.8728 14.6873 33.3156 15.0528 35.703 14.1458Z" stroke="#404047" stroke-opacity="0.1" stroke-width="4.5" stroke-linejoin="round"/>
<path d="M37.101 7.56392L28.1906 11.0558C28.0915 11.0937 27.9865 11.0625 27.9555 10.9837C27.9216 10.904 27.9822 10.8037 28.0834 10.7695C28.1193 10.8527 37.3424 7.17777 37.1031 7.56756L37.101 7.56392Z" fill="#AEAEAE"/>
<path d="M27.7297 8.52256C27.662 8.5469 27.6104 8.56508 27.5726 8.57811C27.5022 8.5946 27.4319 8.61462 27.3621 8.63826C26.8212 8.8213 26.3453 9.19175 26.0389 9.70278C25.738 10.2049 25.5308 10.9957 25.8703 11.8291C26.5339 13.4778 28.2482 13.4426 28.9939 13.1575L29.0116 13.1507L37.7949 9.70859C38.2978 9.54602 38.7357 9.20865 39.0204 8.74492C39.1349 8.55849 39.4775 7.94747 39.3155 7.12007C39.1226 6.13443 38.3992 5.65266 37.9862 5.47528C37.6143 5.31556 37.291 5.29585 37.1722 5.29078C37.0187 5.28422 36.8921 5.29386 36.816 5.30154C36.5558 5.32776 36.3084 5.39439 36.1895 5.42706C35.8838 5.51106 35.4836 5.64329 35.0625 5.78935C34.1997 6.0886 33.0431 6.51836 31.9028 6.9482C31.3013 7.17493 30.6444 7.42454 30.042 7.65338C29.5554 7.83826 29.1044 8.00959 28.7473 8.14435C28.3146 8.30759 27.9668 8.4373 27.7297 8.52256ZM27.4998 8.60242C27.4999 8.60238 27.5019 8.60175 27.5056 8.60063C27.5016 8.60191 27.4997 8.60247 27.4998 8.60242Z" stroke="#404047" stroke-opacity="0.1" stroke-width="4.5" stroke-linejoin="round"/>
<path d="M27.1622 15.7936C27.1625 15.7936 27.1626 15.7931 27.1622 15.793L26.585 15.6728C26.552 15.6659 26.53 15.6365 26.5365 15.6033C26.6512 15.0168 27.5698 10.0626 26.6301 6.76994C26.5807 6.59679 26.6723 6.41241 26.843 6.35521V6.35521C27.0141 6.29789 27.1997 6.38994 27.2498 6.5633C28.3 10.203 27.2114 15.5574 27.1619 15.7934C27.1619 15.7935 27.162 15.7936 27.1622 15.7936V15.7936Z" fill="#2CAC82"/>
<path d="M24.9667 15.2963C24.9678 15.2911 24.969 15.2858 24.9701 15.2805C24.969 15.2863 24.9679 15.2916 24.967 15.2964C24.9632 15.315 24.9608 15.3268 24.9598 15.3315C24.9554 15.3526 24.9511 15.3745 24.9471 15.3971C24.9529 15.3634 24.9594 15.3298 24.9667 15.2963ZM26.1398 17.8094C25.2653 17.3964 24.8729 16.5349 24.9143 15.6936C24.9008 15.9965 24.9446 16.3695 25.1296 16.759C25.3935 17.3145 25.8159 17.6329 26.1419 17.799C26.1533 17.8048 26.1646 17.8104 26.1757 17.8159C26.3279 17.8901 26.4705 17.9382 26.5905 17.9698C26.4281 17.9287 26.2779 17.8747 26.1398 17.8094ZM26.126 17.8754L26.6528 17.9852C26.7444 18.0065 26.8193 18.0179 26.8701 18.0245C27.0079 18.0426 27.117 18.0436 27.1622 18.0436C28.4491 18.0436 29.2151 17.1618 29.3799 16.1774C29.4535 15.81 29.7178 14.4101 29.8609 12.6356C30.014 10.7385 30.0522 8.15967 29.4116 5.93952C28.9896 4.47709 27.4538 3.77766 26.1283 4.22176C24.76 4.68019 24.1037 6.11595 24.4665 7.38739C24.8249 8.64331 24.8562 10.3831 24.7348 12.0367C24.6172 13.6378 24.3761 14.9271 24.3283 15.1715C24.0589 16.5494 25.0272 17.6464 26.126 17.8754Z" stroke="#404047" stroke-opacity="0.1" stroke-width="4.5" stroke-linejoin="round"/>
<path d="M37.2558 50.2128C35.029 48.2872 38.1064 44.8329 40.2753 46.8236C42.5022 48.7492 39.4247 52.2034 37.2558 50.2128Z" fill="#FF8722"/>
<path d="M41.7721 45.1435C40.7564 44.2236 39.5067 43.8496 38.28 44.012C37.1093 44.167 36.1214 44.7849 35.4372 45.5529C34.753 46.3208 34.2528 47.3733 34.2335 48.554C34.2131 49.7912 34.7284 50.9897 35.759 51.8929C36.7747 52.8127 38.0244 53.1868 39.2511 53.0243C40.4218 52.8693 41.4098 52.2515 42.0939 51.4835C42.7781 50.7155 43.2783 49.6631 43.2977 48.4824C43.318 47.2451 42.8027 46.0467 41.7721 45.1435Z" stroke="#404047" stroke-opacity="0.1" stroke-width="4.5" stroke-linejoin="round"/>
<path d="M30.8851 50.9456C29.589 49.8249 31.38 47.8147 32.6423 48.9732C33.9383 50.0939 32.1474 52.1041 30.8851 50.9456Z" fill="#FF8722"/>
<path d="M35.3417 49.9539C35.3581 48.9527 34.9374 47.9956 34.1391 47.2932C33.3495 46.581 32.3504 46.2731 31.3577 46.4045C30.4206 46.5286 29.6493 47.0188 29.1243 47.608C28.5994 48.1971 28.2011 49.0197 28.1857 49.9649C28.1693 50.9661 28.59 51.9232 29.3883 52.6256C30.1779 53.3378 31.177 53.6457 32.1697 53.5143C33.1068 53.3902 33.8781 52.9 34.403 52.3108C34.9279 51.7217 35.3262 50.8991 35.3417 49.9539Z" stroke="#404047" stroke-opacity="0.1" stroke-width="4.5" stroke-linejoin="round"/>
<path d="M42.033 45.4053C40.7369 44.2846 42.5279 42.2744 43.7901 43.433C45.0862 44.5536 43.2952 46.5639 42.033 45.4053Z" fill="#FF8722"/>
<path d="M46.4896 44.4137C46.506 43.4124 46.0852 42.4553 45.2869 41.7529C44.4974 41.0407 43.4983 40.7328 42.5055 40.8642C41.5684 40.9883 40.7971 41.4785 40.2722 42.0677C39.7473 42.6569 39.349 43.4794 39.3336 44.4246C39.3172 45.4258 39.7379 46.3829 40.5362 47.0853C41.3257 47.7976 42.3249 48.1054 43.3176 47.974C44.2547 47.85 45.026 47.3598 45.5509 46.7706C46.0758 46.1814 46.4741 45.3588 46.4896 44.4137Z" stroke="#404047" stroke-opacity="0.1" stroke-width="4.5" stroke-linejoin="round"/>
<path d="M3.11915 37.5135H3.11911L3.11915 37.5271C3.14201 44.5137 6.2107 49.8377 10.7992 53.3641C15.3337 56.8489 21.2755 58.5309 27.1211 58.5309C32.9668 58.5309 38.9089 56.8489 43.444 53.3642C48.0332 49.838 51.1031 44.5141 51.1276 37.5276L51.1276 37.514C51.1047 30.5281 48.036 25.2044 43.4475 21.6782C38.9131 18.1936 32.9713 16.5115 27.1257 16.5113C21.28 16.5111 15.3379 18.1928 10.8028 21.6773C6.21355 25.2033 3.14364 30.527 3.11915 37.5135Z" fill="#FFA44A" stroke="white" stroke-width="4" stroke-linejoin="round"/>
<path d="M16.0818 19.9766C16.0818 22.9399 17.6971 25.1193 19.8423 26.4688C21.9322 27.7835 24.5868 28.3756 27.1234 28.3756C29.6599 28.3756 32.3145 27.7835 34.4044 26.4688C36.5496 25.1193 38.1649 22.9399 38.1649 19.9766C38.1649 17.0134 36.5496 14.834 34.4044 13.4845C32.3145 12.1698 29.6599 11.5776 27.1234 11.5776C24.5868 11.5776 21.9322 12.1698 19.8423 13.4845C17.6971 14.834 16.0818 17.0134 16.0818 19.9766Z" fill="#FFA44A" stroke="white" stroke-width="4" stroke-linejoin="round"/>
<path d="M35.6143 13.9121C35.6603 13.8946 35.7055 13.8755 35.7498 13.8548C37.9887 12.958 39.4948 11.1622 40.3977 9.77206C40.8731 9.04011 41.2207 8.3596 41.4508 7.86004C41.5665 7.60893 41.6541 7.39995 41.7147 7.24853C41.745 7.17272 41.7687 7.11105 41.7857 7.06542C41.7943 7.04259 41.8012 7.02375 41.8065 7.00913L41.8133 6.99039L41.8158 6.98344L41.8168 6.98058L41.8172 6.9793C41.8174 6.9787 41.8176 6.97813 39.9312 6.31389L41.8176 6.97813C42.1399 6.06289 41.7587 5.04837 40.9135 4.57178C37.8675 2.85414 34.5964 2.49596 31.7132 3.58437C28.8284 4.67335 26.6049 7.10731 25.4537 10.4366C25.1366 11.3538 25.5236 12.3663 26.3717 12.838L27.3439 11.0902C26.3717 12.838 26.3722 12.8383 26.3728 12.8386L26.374 12.8392L26.3766 12.8407L26.3831 12.8443L26.4006 12.8538C26.4143 12.8613 26.4319 12.8708 26.4535 12.8822C26.4965 12.905 26.5551 12.9356 26.6281 12.9722C26.7738 13.0455 26.9779 13.1439 27.231 13.2552C27.7345 13.4768 28.446 13.7559 29.2871 13.9888C30.9176 14.4403 33.2991 14.7916 35.6143 13.9121Z" fill="#2CAC82" stroke="white" stroke-width="4" stroke-linejoin="round"/>
<path d="M27.8143 8.75782C27.7388 8.78495 27.682 8.8049 27.6414 8.81881C27.5748 8.83398 27.5083 8.8527 27.4422 8.87506C26.9559 9.03966 26.5283 9.37269 26.2534 9.83132C25.9832 10.282 25.7983 10.99 26.1021 11.7354C26.6954 13.2094 28.2309 13.1816 28.9047 12.924L28.9204 12.918L37.711 9.47295C38.161 9.32931 38.553 9.02846 38.8074 8.6141C38.9096 8.44771 39.2142 7.90401 39.0702 7.16809C38.8986 6.2915 38.2553 5.86291 37.8876 5.705C37.5564 5.56277 37.2682 5.5451 37.1616 5.54055C37.024 5.53468 36.9102 5.5433 36.841 5.55028C36.6037 5.5742 36.3742 5.63558 36.2558 5.66812C35.9586 5.74979 35.5649 5.87969 35.1444 6.02555C34.2851 6.3236 33.1312 6.75229 31.991 7.18213C31.3869 7.40987 30.7332 7.65823 30.133 7.88623C29.6472 8.07083 29.1964 8.24209 28.8355 8.37826C28.4028 8.54151 28.0534 8.67183 27.8143 8.75782ZM27.5743 8.84105C27.5744 8.84102 27.5761 8.84048 27.5792 8.83954C27.5758 8.84061 27.5743 8.84108 27.5743 8.84105Z" fill="#AEAEAE" stroke="white" stroke-width="4" stroke-linejoin="round"/>
<path d="M25.2122 15.3444C25.2126 15.3425 25.213 15.3407 25.2134 15.3388C25.2131 15.3407 25.2127 15.3426 25.2123 15.3444C25.2083 15.3645 25.2056 15.3775 25.2045 15.3829C25.2012 15.3984 25.198 15.4145 25.195 15.431C25.2002 15.402 25.2059 15.3731 25.2122 15.3444ZM26.1927 17.5555C25.462 17.1799 25.1319 16.4409 25.1636 15.7167C25.1532 15.9838 25.1934 16.3106 25.3554 16.6517C25.574 17.1119 25.915 17.3891 26.1951 17.5442C26.226 17.5613 26.2561 17.5769 26.2853 17.5912C26.418 17.6559 26.5426 17.6983 26.6481 17.7264C26.4819 17.684 26.3302 17.6261 26.1927 17.5555ZM26.177 17.6307L26.7068 17.7411C26.7894 17.7604 26.8569 17.7707 26.9025 17.7767C27.025 17.7927 27.122 17.7936 27.1622 17.7936C28.3067 17.7936 28.9877 17.0091 29.1337 16.1336C29.2044 15.7817 29.4689 14.3867 29.6117 12.6155C29.7641 10.7266 29.7991 8.1845 29.1714 6.00883C28.7907 4.68963 27.405 4.05769 26.2077 4.45881C24.9724 4.87266 24.3789 6.16938 24.7069 7.31878C25.0777 8.61808 25.1061 10.3936 24.9841 12.055C24.8655 13.6697 24.6225 14.9697 24.5737 15.2195C24.3335 16.4479 25.1966 17.4264 26.177 17.6307Z" fill="#2CAC82" stroke="white" stroke-width="4" stroke-linejoin="round"/>
<path d="M41.6058 45.3302C40.6429 44.4573 39.4654 44.1072 38.3128 44.2599C37.2102 44.4059 36.2744 44.989 35.6238 45.7192C34.9733 46.4493 34.5017 47.446 34.4834 48.5581C34.4643 49.7206 34.9475 50.85 35.9253 51.7062C36.8883 52.5791 38.0658 52.9291 39.2183 52.7765C40.321 52.6305 41.2568 52.0473 41.9073 51.3172C42.5578 50.587 43.0294 49.5904 43.0477 48.4783C43.0668 47.3158 42.5837 46.1864 41.6058 45.3302Z" fill="#FF8722" stroke="white" stroke-width="4" stroke-linejoin="round"/>
<path d="M33.9727 47.4799C33.236 46.8147 32.3091 46.5307 31.3905 46.6523C30.5214 46.7674 29.8022 47.2229 29.311 47.7743C28.8198 48.3256 28.45 49.0924 28.4356 49.9689C28.4205 50.8955 28.8091 51.7835 29.5546 52.4389C30.2914 53.1041 31.2183 53.3881 32.1369 53.2665C33.006 53.1514 33.7251 52.6959 34.2164 52.1445C34.7076 51.5932 35.0774 50.8264 35.0917 49.9499C35.1069 49.0233 34.7183 48.1353 33.9727 47.4799Z" fill="#FF8722" stroke="white" stroke-width="4" stroke-linejoin="round"/>
<path d="M45.1206 41.9396C44.3839 41.2744 43.457 40.9905 42.5384 41.1121C41.6692 41.2271 40.9501 41.6826 40.4589 42.234C39.9677 42.7854 39.5979 43.5521 39.5835 44.4287C39.5684 45.3552 39.957 46.2433 40.7025 46.8987C41.4393 47.5639 42.3661 47.8478 43.2848 47.7262C44.1539 47.6111 44.873 47.1556 45.3642 46.6043C45.8555 46.0529 46.2253 45.2862 46.2396 44.4096C46.2548 43.4831 45.8661 42.595 45.1206 41.9396Z" fill="#FF8722" stroke="white" stroke-width="4" stroke-linejoin="round"/>
<path d="M49.1276 37.5206C49.0387 62.8677 5.20206 62.8677 5.11914 37.5206C5.20799 12.1734 49.0447 12.1764 49.1276 37.5206Z" fill="#FFA44A"/>
<path d="M36.1649 19.9766C36.1649 28.5086 18.0818 28.5086 18.0818 19.9766C18.0818 11.4446 36.1649 11.4446 36.1649 19.9766Z" fill="#FFA44A"/>
<path d="M34.904 12.0425C31.4291 13.3625 27.3439 11.0902 27.3439 11.0902C29.319 5.37806 34.7079 3.36856 39.9312 6.31389C39.9312 6.31389 38.3789 10.7224 34.9019 12.0388L34.904 12.0425Z" fill="#2CAC82"/>
<path d="M37.101 7.56392L28.1906 11.0558C28.0915 11.0937 27.9865 11.0625 27.9555 10.9837C27.9216 10.904 27.9822 10.8037 28.0834 10.7695C28.1193 10.8527 37.3424 7.17777 37.1031 7.56756L37.101 7.56392Z" fill="#AEAEAE"/>
<path d="M27.1622 15.7936C27.1625 15.7936 27.1626 15.7931 27.1622 15.793L26.585 15.6728C26.552 15.6659 26.53 15.6365 26.5365 15.6033C26.6512 15.0168 27.5698 10.0626 26.6301 6.76994C26.5807 6.59679 26.6723 6.41241 26.843 6.35521V6.35521C27.0141 6.29789 27.1997 6.38994 27.2498 6.5633C28.3 10.203 27.2114 15.5574 27.1619 15.7934C27.1619 15.7935 27.162 15.7936 27.1622 15.7936V15.7936Z" fill="#2CAC82"/>
<path d="M37.2558 50.2128C35.029 48.2872 38.1064 44.8329 40.2753 46.8236C42.5022 48.7492 39.4247 52.2034 37.2558 50.2128Z" fill="#FF8722"/>
<path d="M30.8851 50.9456C29.589 49.8249 31.38 47.8147 32.6423 48.9732C33.9383 50.0939 32.1474 52.1041 30.8851 50.9456Z" fill="#FF8722"/>
<path d="M42.033 45.4053C40.7369 44.2846 42.5279 42.2744 43.7901 43.433C45.0862 44.5536 43.2952 46.5639 42.033 45.4053Z" fill="#FF8722"/>
</svg>
