<svg width="54" height="78" viewBox="0 0 54 78" fill="none" xmlns="http://www.w3.org/2000/svg">
<path d="M14.3511 50.0059C14.8498 46.8485 18.2538 44.4785 22.2897 44.4785H32.5916C36.7216 44.4785 40.1728 46.957 40.5569 50.1988L42.3861 65.6379C42.8243 69.3366 39.1329 72.5313 34.4208 72.5313H19.8508C15.0403 72.5313 11.3176 69.2083 11.9121 65.445L14.3511 50.0059Z" fill="#7F7F7F"/>
<path d="M32.5916 42.2285H22.2897C17.5586 42.2285 12.8574 45.0415 12.1286 49.6548L9.68967 65.0939C9.25143 67.8681 10.4395 70.367 12.3562 72.0779C14.2612 73.7783 16.9416 74.7813 19.8508 74.7813H34.4208C37.2715 74.7813 39.9077 73.8169 41.8072 72.173C43.7162 70.5209 44.9436 68.1001 44.6205 65.3732L42.7913 49.9341C42.227 45.1718 37.4225 42.2285 32.5916 42.2285Z" stroke="#404047" stroke-opacity="0.1" stroke-width="4.5" stroke-linejoin="round"/>
<path d="M44.5666 34.3731C44.4955 54.5595 9.49606 54.5595 9.43091 34.3731C9.50199 14.1866 44.5015 14.1896 44.5666 34.3731Z" fill="#666666"/>
<path d="M7.18092 34.3651L7.18092 34.3803C7.19958 40.1602 9.75376 44.5884 13.5694 47.5136C17.324 50.3919 22.2146 51.7629 26.9965 51.7629C31.7785 51.7629 36.6694 50.3919 40.4246 47.5138C44.2408 44.5888 46.7962 40.1608 46.8166 34.381L46.8166 34.3658C46.7979 28.5865 44.2436 24.1587 40.428 21.2337C36.6735 18.3556 31.7829 16.9845 27.0011 16.9843C22.2192 16.9841 17.3283 18.3548 13.573 21.2327C9.75672 24.1575 7.20127 28.5853 7.18092 34.3651Z" stroke="#404047" stroke-opacity="0.1" stroke-width="4.5" stroke-linejoin="round"/>
<path d="M44.5666 32.9185C44.4955 53.105 9.49606 53.105 9.43091 32.9185C9.50199 12.732 44.5015 12.735 44.5666 32.9185Z" fill="#808080"/>
<path d="M7.18092 32.9106L7.18092 32.9257C7.19958 38.7056 9.75376 43.1339 13.5694 46.059C17.324 48.9373 22.2146 50.3083 26.9965 50.3083C31.7785 50.3083 36.6694 48.9373 40.4246 46.0592C44.2408 43.1342 46.7962 38.7063 46.8166 32.9264L46.8166 32.9112C46.7979 27.1319 44.2436 22.7041 40.428 19.7791C36.6735 16.901 31.7829 15.5299 27.0011 15.5297C22.2192 15.5295 17.3283 16.9002 13.573 19.7781C9.75672 22.7029 7.20127 27.1307 7.18092 32.9106Z" stroke="#404047" stroke-opacity="0.1" stroke-width="4.5" stroke-linejoin="round"/>
<path d="M37.3848 31.5703C37.3848 32.855 36.3477 33.8965 35.0684 33.8965C33.789 33.8965 32.752 32.855 32.752 31.5703C32.752 30.2856 33.789 29.2441 35.0684 29.2441C36.3477 29.2441 37.3848 30.2856 37.3848 31.5703Z" fill="#666666"/>
<path d="M35.0684 36.1465C37.5992 36.1465 39.6348 34.0887 39.6348 31.5703C39.6348 29.0519 37.5992 26.9941 35.0684 26.9941C32.5375 26.9941 30.502 29.0519 30.502 31.5703C30.502 34.0887 32.5375 36.1465 35.0684 36.1465Z" stroke="#404047" stroke-opacity="0.1" stroke-width="4.5" stroke-linejoin="round"/>
<path d="M22.6172 31.5703C22.6172 32.855 21.4979 33.8965 20.1172 33.8965C18.7365 33.8965 17.6172 32.855 17.6172 31.5703C17.6172 30.2856 18.7365 29.2441 20.1172 29.2441C21.4979 29.2441 22.6172 30.2856 22.6172 31.5703Z" fill="#666666"/>
<path d="M20.1172 36.1465C22.5851 36.1465 24.8672 34.2476 24.8672 31.5703C24.8672 28.893 22.5851 26.9941 20.1172 26.9941C17.6493 26.9941 15.3672 28.893 15.3672 31.5703C15.3672 34.2476 17.6493 36.1465 20.1172 36.1465Z" stroke="#404047" stroke-opacity="0.1" stroke-width="4.5" stroke-linejoin="round"/>
<path d="M9.63229 28.9458H11.3766V38.2095C4.15641 39.4241 2.38541 29.6745 9.63229 28.9458Z" fill="#808080"/>
<path d="M9.63229 26.6958C9.55711 26.6958 9.48197 26.6995 9.40716 26.7071C7.06493 26.9426 5.1988 27.9494 4.02537 29.5307C2.87389 31.0824 2.54596 32.9802 2.8668 34.7155C3.52619 38.2819 6.91014 41.2425 11.7499 40.4283C12.8333 40.2461 13.6266 39.3081 13.6266 38.2095V28.9458C13.6266 27.7031 12.6193 26.6958 11.3766 26.6958H9.63229Z" stroke="#404047" stroke-opacity="0.1" stroke-width="4.5" stroke-linejoin="round"/>
<path d="M9.67078 30.5929H10.7932V36.5623C6.20283 37.3978 4.98562 31.0314 9.67078 30.5929Z" fill="#666666"/>
<path d="M9.67078 28.3429C9.60078 28.3429 9.53082 28.3462 9.46113 28.3527C7.75111 28.5127 6.31912 29.2565 5.40924 30.4981C4.52419 31.7058 4.29506 33.167 4.54307 34.4746C5.05426 37.1699 7.62435 39.426 11.1961 38.776C12.2658 38.5813 13.0432 37.6496 13.0432 36.5623V30.5929C13.0432 29.3503 12.0359 28.3429 10.7932 28.3429H9.67078Z" stroke="#404047" stroke-opacity="0.1" stroke-width="4.5" stroke-linejoin="round"/>
<path d="M44.3623 28.9458H42.6179V38.2095C49.8381 39.4241 51.6091 29.6745 44.3623 28.9458Z" fill="#808080"/>
<path d="M44.5874 26.7071C44.5126 26.6995 44.4374 26.6958 44.3623 26.6958H42.6179C41.3753 26.6958 40.3679 27.7031 40.3679 28.9458V38.2095C40.3679 39.3081 41.1613 40.2461 42.2446 40.4283C47.0844 41.2425 50.4684 38.2819 51.1277 34.7155C51.4486 32.9802 51.1207 31.0824 49.9692 29.5307C48.7957 27.9494 46.9296 26.9426 44.5874 26.7071Z" stroke="#404047" stroke-opacity="0.1" stroke-width="4.5" stroke-linejoin="round"/>
<path d="M44.3267 30.5929H43.2043V36.5623C47.7947 37.3978 49.0119 31.0314 44.3267 30.5929Z" fill="#666666"/>
<path d="M44.5364 28.3527C44.4667 28.3462 44.3967 28.3429 44.3267 28.3429H43.2043C41.9616 28.3429 40.9543 29.3503 40.9543 30.5929V36.5623C40.9543 37.6496 41.7317 38.5813 42.8014 38.776C46.3731 39.426 48.9432 37.1699 49.4544 34.4746C49.7024 33.1669 49.4733 31.7058 48.5883 30.4981C47.6784 29.2565 46.2464 28.5127 44.5364 28.3527Z" stroke="#404047" stroke-opacity="0.1" stroke-width="4.5" stroke-linejoin="round"/>
<path d="M41.6139 20.6152H12.3806C11.735 0.156192 42.2655 0.16804 41.6139 20.6152Z" fill="#808080"/>
<path d="M41.6139 22.8652C42.8287 22.8652 43.8241 21.901 43.8628 20.6869C44.6131 -2.85957 9.38856 -2.86374 10.1317 20.6862C10.17 21.9006 11.1656 22.8652 12.3806 22.8652H41.6139Z" stroke="#404047" stroke-opacity="0.1" stroke-width="4.5" stroke-linejoin="round"/>
<path d="M43.5893 26.6291H10.4082C5.71712 26.6113 5.69935 19.4569 10.4082 19.4361H43.5893C48.2804 19.4539 48.2981 26.6084 43.5893 26.6291Z" fill="#666666"/>
<path d="M43.5893 28.8791L43.5992 28.8791C45.3972 28.8711 46.9027 28.1582 47.9319 26.9771C48.923 25.8395 49.3659 24.3948 49.3643 23.0287C49.3626 21.6626 48.9162 20.2202 47.9258 19.0852C46.8975 17.9069 45.394 17.193 43.5978 17.1861H43.5893H10.4082V17.1861L10.3983 17.1862C8.60028 17.1941 7.09476 17.9071 6.0656 19.0882C5.07444 20.2257 4.63154 21.6704 4.63323 23.0365C4.63492 24.4026 5.08128 25.845 6.0717 26.98C7.10001 28.1584 8.60353 28.8723 10.3997 28.8791L10.3997 28.8791H10.4082L43.5893 28.8791Z" stroke="#404047" stroke-opacity="0.1" stroke-width="4.5" stroke-linejoin="round"/>
<path d="M43.5893 25.527H10.4082C5.71712 25.5093 5.69935 18.3548 10.4082 18.3341H43.5893C48.2804 18.3519 48.2981 25.5063 43.5893 25.527V25.527Z" fill="#999999"/>
<path d="M10.3997 27.777L10.3997 27.777H10.4082H43.5893V25.527L43.5992 27.777C45.3972 27.7691 46.9027 27.0561 47.9319 25.875C48.923 24.7375 49.3659 23.2928 49.3643 21.9267C49.3626 20.5606 48.9162 19.1182 47.9258 17.9832C46.8975 16.8048 45.394 16.0909 43.5978 16.0841H43.5893H10.4082V16.0841L10.3983 16.0841C8.60028 16.092 7.09476 16.805 6.0656 17.9861C5.07444 19.1236 4.63154 20.5683 4.63323 21.9345C4.63492 23.3005 5.08128 24.743 6.0717 25.8779C7.10001 27.0563 8.60353 27.7702 10.3997 27.777Z" stroke="#404047" stroke-opacity="0.1" stroke-width="4.5" stroke-linejoin="round"/>
<path d="M19.0085 13.3838C19.0292 14.9035 16.6422 14.9035 16.6659 13.3838C16.6452 11.864 19.0322 11.864 19.0085 13.3838Z" fill="#666666"/>
<path d="M15.5579 10.8243C14.828 11.4532 14.4111 12.3668 14.4158 13.3816C14.4091 14.3964 14.8244 15.3116 15.5549 15.942C16.2428 16.5357 17.0846 16.7736 17.8361 16.7736C18.5878 16.7736 19.4288 16.5357 20.1165 15.9432C20.8465 15.3143 21.2634 14.4007 21.2586 13.3859C21.2653 12.3711 20.8501 11.4559 20.1196 10.8255C19.4317 10.2318 18.5899 9.99393 17.8383 9.99393C17.0867 9.99393 16.2456 10.2318 15.5579 10.8243Z" stroke="#404047" stroke-opacity="0.1" stroke-width="4.5" stroke-linejoin="round"/>
<path d="M21.4784 15.5879C21.4903 16.4736 20.1013 16.4736 20.1161 15.5879C20.1043 14.7021 21.4932 14.7021 21.4784 15.5879Z" fill="#666666"/>
<path d="M21.4784 15.5879L22.3658 15.6027C22.3657 15.6103 22.3655 15.6179 22.3652 15.6255C22.3513 16.0326 22.164 16.4755 21.796 16.7931C21.4573 17.0853 21.0836 17.1735 20.7984 17.1735C20.5133 17.1735 20.1379 17.0853 19.7978 16.791C19.428 16.4709 19.2418 16.0255 19.2292 15.6179C19.229 15.6119 19.2289 15.6058 19.2288 15.5997L20.1161 15.5879M21.4784 15.5879L22.3658 15.576C22.3657 15.5699 22.3655 15.5639 22.3653 15.5578C22.3528 15.1503 22.1666 14.7048 21.7968 14.3847C21.4566 14.0904 21.0812 14.0022 20.7962 14.0022C20.511 14.0022 20.1372 14.0904 19.7986 14.3826C19.4306 14.7002 19.2433 15.1431 19.2293 15.5503C19.2291 15.5579 19.2289 15.5654 19.2287 15.573L20.1161 15.5879M21.4784 15.5879C21.4785 15.5817 21.4786 15.5757 21.4785 15.5696C21.4742 14.7097 20.1281 14.7081 20.1161 15.5651C20.116 15.5726 20.116 15.5802 20.1161 15.5879M21.4784 15.5879C21.4785 15.5955 21.4785 15.6031 21.4784 15.6106C21.4665 16.4676 20.1204 16.466 20.116 15.6061C20.116 15.6 20.116 15.594 20.1161 15.5879M18.8562 13.3861C18.2194 13.9356 17.864 14.729 17.8661 15.5841C17.8612 16.4394 18.2142 17.2355 18.8521 17.7875C19.4481 18.3033 20.1672 18.5022 20.7962 18.5022C21.4253 18.5022 22.1431 18.3033 22.7384 17.7896C23.3752 17.2401 23.7305 16.4467 23.7285 15.5916C23.7334 14.7363 23.3804 13.9402 22.7425 13.3882C22.1465 12.8724 21.4274 12.6735 20.7984 12.6735C20.1693 12.6735 19.4515 12.8724 18.8562 13.3861Z" stroke="#404047" stroke-opacity="0.1" stroke-width="4.5" stroke-linejoin="round"/>
<path d="M17.6196 16.6929C17.6314 17.5787 16.2424 17.5787 16.2572 16.6929C16.2454 15.8071 17.6344 15.8071 17.6196 16.6929Z" fill="#666666"/>
<path d="M17.6196 16.6929L18.5069 16.7077C18.5068 16.7153 18.5066 16.7229 18.5063 16.7305C18.4924 17.1376 18.3051 17.5805 17.9371 17.8981C17.5984 18.1903 17.2247 18.2785 16.9395 18.2785C16.6545 18.2785 16.2791 18.1903 15.9389 17.896C15.5691 17.576 15.3829 17.1305 15.3704 16.7229C15.3702 16.7169 15.37 16.7108 15.3699 16.7047L16.2572 16.6929M17.6196 16.6929L18.5069 16.681C18.5068 16.6749 18.5066 16.6689 18.5064 16.6628C18.4939 16.2552 18.3077 15.8098 17.9379 15.4897C17.5977 15.1954 17.2223 15.1072 16.9373 15.1072C16.6521 15.1072 16.2784 15.1954 15.9397 15.4876C15.5717 15.8052 15.3844 16.2481 15.3705 16.6553C15.3702 16.6629 15.37 16.6705 15.3699 16.678L16.2572 16.6929M17.6196 16.6929C17.6197 16.6867 17.6197 16.6807 17.6197 16.6746C17.6153 15.8147 16.2692 15.8132 16.2572 16.6701C16.2571 16.6776 16.2571 16.6852 16.2572 16.6929M17.6196 16.6929C17.6197 16.7005 17.6197 16.7081 17.6195 16.7156C17.6076 17.5726 16.2615 17.5711 16.2571 16.7111C16.2571 16.7051 16.2571 16.699 16.2572 16.6929M14.9973 14.4911C14.3605 15.0406 14.0051 15.834 14.0072 16.6891C14.0023 17.5444 14.3553 18.3405 14.9932 18.8925C15.5892 19.4083 16.3083 19.6072 16.9373 19.6072C17.5664 19.6072 18.2842 19.4083 18.8795 18.8946C19.5163 18.3452 19.8716 17.5518 19.8696 16.6966C19.8745 15.8413 19.5215 15.0452 18.8836 14.4932C18.2876 13.9774 17.5685 13.7785 16.9395 13.7785C16.3104 13.7785 15.5926 13.9774 14.9973 14.4911Z" stroke="#404047" stroke-opacity="0.1" stroke-width="4.5" stroke-linejoin="round"/>
<path d="M16.047 37.0452C16.0588 37.7562 14.9423 37.7562 14.9512 37.0452C14.9394 36.3342 16.0559 36.3342 16.047 37.0452Z" fill="#666666"/>
<path d="M16.047 37.0452L17.2009 37.0597C17.2008 37.0642 17.2007 37.0688 17.2006 37.0734C17.1895 37.5249 16.9862 38.0052 16.5897 38.3479C16.2244 38.6635 15.8158 38.762 15.498 38.762C15.1801 38.762 14.7735 38.6635 14.4099 38.3505C14.0155 38.011 13.8108 37.5339 13.7977 37.0827C13.7975 37.0766 13.7974 37.0705 13.7973 37.0645L14.9512 37.0452M16.047 37.0452L17.2009 37.026C17.2008 37.0199 17.2007 37.0139 17.2005 37.0078C17.1875 36.5566 16.9827 36.0795 16.5883 35.74C16.2247 35.427 15.8182 35.3285 15.5002 35.3285C15.1825 35.3285 14.7739 35.427 14.4086 35.7426C14.012 36.0852 13.8088 36.5656 13.7976 37.0171C13.7975 37.0217 13.7974 37.0263 13.7973 37.0308L14.9512 37.0452M16.047 37.0452C16.0471 37.0391 16.0471 37.033 16.047 37.027C16.0367 36.3388 14.9537 36.3403 14.9511 37.0315C14.9511 37.0361 14.9511 37.0406 14.9512 37.0452M16.047 37.0452C16.0471 37.0498 16.0471 37.0544 16.0471 37.0589C16.0445 37.7502 14.9615 37.7517 14.9512 37.0635C14.9512 37.0575 14.9511 37.0514 14.9512 37.0452M13.6477 34.9427C13.0344 35.4726 12.6968 36.2365 12.7012 37.0499C12.7002 37.8631 13.0406 38.6237 13.6524 39.1504C14.2224 39.6411 14.9057 39.8285 15.5002 39.8285C16.0945 39.8285 16.7795 39.6411 17.3505 39.1477C17.9638 38.6178 18.3014 37.854 18.297 37.0406C18.298 36.2274 17.9576 35.4668 17.3458 34.9401C16.7758 34.4494 16.0925 34.262 15.498 34.262C14.9037 34.262 14.2187 34.4494 13.6477 34.9427Z" stroke="#404047" stroke-opacity="0.1" stroke-width="4.5" stroke-linejoin="round"/>
<path d="M17.7084 38.9294C17.7203 39.6404 16.6038 39.6404 16.6126 38.9294C16.6008 38.2184 17.7173 38.2184 17.7084 38.9294Z" fill="#666666"/>
<path d="M17.7084 38.9294L18.8623 38.9438C18.8623 38.9484 18.8622 38.9529 18.8621 38.9575C18.8509 39.4091 18.6477 39.8894 18.2511 40.232C17.8858 40.5476 17.4772 40.6461 17.1594 40.6461C16.8415 40.6461 16.4349 40.5476 16.0713 40.2346C15.6769 39.8951 15.4722 39.418 15.4591 38.9669C15.459 38.9608 15.4588 38.9547 15.4587 38.9486L16.6126 38.9294M17.7084 38.9294L18.8623 38.9102C18.8622 38.9041 18.8621 38.898 18.8619 38.8919C18.8489 38.4408 18.6441 37.9637 18.2497 37.6242C17.8862 37.3112 17.4796 37.2126 17.1616 37.2126C16.8439 37.2126 16.4353 37.3112 16.07 37.6268C15.6734 37.9694 15.4702 38.4497 15.459 38.9013C15.4589 38.9059 15.4588 38.9104 15.4587 38.915L16.6126 38.9294M17.7084 38.9294C17.7085 38.9233 17.7085 38.9172 17.7084 38.9111C17.6982 38.223 16.6152 38.2245 16.6126 38.9157C16.6125 38.9202 16.6126 38.9248 16.6126 38.9294M17.7084 38.9294C17.7085 38.934 17.7085 38.9386 17.7085 38.9431C17.7059 39.6343 16.6229 39.6358 16.6127 38.9477C16.6126 38.9416 16.6126 38.9355 16.6126 38.9294M15.3091 36.8269C14.6958 37.3568 14.3582 38.1207 14.3626 38.9341C14.3616 39.7473 14.702 40.5078 15.3138 41.0345C15.8839 41.5252 16.5672 41.7126 17.1616 41.7126C17.7559 41.7126 18.4409 41.5253 19.0119 41.0319C19.6253 40.502 19.9628 39.7381 19.9585 38.9247C19.9595 38.1115 19.6191 37.351 19.0072 36.8243C18.4372 36.3335 17.7539 36.1461 17.1594 36.1461C16.5651 36.1461 15.8802 36.3335 15.3091 36.8269Z" stroke="#404047" stroke-opacity="0.1" stroke-width="4.5" stroke-linejoin="round"/>
<path d="M18.9256 37.1578C18.9374 37.8688 17.8209 37.8688 17.8298 37.1578C17.818 36.4468 18.9345 36.4468 18.9256 37.1578Z" fill="#666666"/>
<path d="M18.9256 37.1578L20.0795 37.1722C20.0795 37.1768 20.0794 37.1814 20.0792 37.1859C20.0681 37.6375 19.8648 38.1178 19.4683 38.4604C19.103 38.7761 18.6944 38.8746 18.3766 38.8746C18.0587 38.8746 17.6521 38.776 17.2885 38.4631C16.8941 38.1235 16.6894 37.6464 16.6763 37.1953C16.6761 37.1892 16.676 37.1831 16.6759 37.177L17.8298 37.1578M18.9256 37.1578L20.0795 37.1386C20.0794 37.1325 20.0793 37.1264 20.0791 37.1203C20.0661 36.6692 19.8613 36.1921 19.4669 35.8526C19.1033 35.5396 18.6968 35.4411 18.3788 35.4411C18.0611 35.4411 17.6525 35.5396 17.2872 35.8552C16.8906 36.1978 16.6874 36.6782 16.6762 37.1297C16.6761 37.1343 16.676 37.1388 16.6759 37.1434L17.8298 37.1578M18.9256 37.1578C18.9257 37.1517 18.9257 37.1456 18.9256 37.1396C18.9154 36.4514 17.8323 36.4529 17.8297 37.1441C17.8297 37.1487 17.8298 37.1532 17.8298 37.1578M18.9256 37.1578C18.9257 37.1624 18.9257 37.167 18.9257 37.1715C18.9231 37.8627 17.8401 37.8643 17.8298 37.1761C17.8298 37.17 17.8298 37.164 17.8298 37.1578M16.5263 35.0553C15.913 35.5852 15.5754 36.3491 15.5798 37.1625C15.5788 37.9757 15.9192 38.7362 16.531 39.2629C17.1011 39.7537 17.7844 39.9411 18.3788 39.9411C18.9731 39.9411 19.6581 39.7537 20.2291 39.2603C20.8424 38.7304 21.18 37.9665 21.1757 37.1532C21.1767 36.3399 20.8362 35.5794 20.2244 35.0527C19.6544 34.562 18.9711 34.3746 18.3766 34.3746C17.7823 34.3746 17.0974 34.562 16.5263 35.0553Z" stroke="#404047" stroke-opacity="0.1" stroke-width="4.5" stroke-linejoin="round"/>
<path d="M37.9476 37.0452C37.9357 37.7562 39.0522 37.7562 39.0433 37.0452C39.0552 36.3342 37.9387 36.3342 37.9476 37.0452Z" fill="#666666"/>
<path d="M37.9476 37.0452L36.7936 37.026C36.7937 37.0199 36.7939 37.0139 36.794 37.0078C36.8071 36.5566 37.0119 36.0795 37.4063 35.74C37.7698 35.427 38.1764 35.3285 38.4943 35.3285C38.8121 35.3285 39.2207 35.427 39.586 35.7426C39.9826 36.0852 40.1858 36.5656 40.197 37.0171C40.1971 37.0217 40.1972 37.0263 40.1973 37.0308L39.0433 37.0452M37.9476 37.0452L36.7936 37.0597C36.7937 37.0642 36.7938 37.0688 36.7939 37.0734C36.8051 37.5249 37.0083 38.0052 37.4049 38.3479C37.7702 38.6635 38.1788 38.762 38.4966 38.762C38.8145 38.762 39.2211 38.6635 39.5846 38.3505C39.979 38.011 40.1838 37.5339 40.1968 37.0827C40.197 37.0766 40.1972 37.0705 40.1973 37.0645L39.0433 37.0452M37.9476 37.0452C37.9475 37.0498 37.9475 37.0544 37.9475 37.0589C37.9501 37.7502 39.0331 37.7517 39.0433 37.0635C39.0434 37.0575 39.0434 37.0514 39.0433 37.0452M37.9476 37.0452C37.9475 37.0391 37.9475 37.033 37.9476 37.027C37.9578 36.3388 39.0408 36.3403 39.0434 37.0315C39.0434 37.0361 39.0434 37.0406 39.0433 37.0452M40.3421 39.1504C40.954 38.6237 41.2944 37.8631 41.2934 37.0499C41.2978 36.2365 40.9602 35.4726 40.3468 34.9427C39.7758 34.4494 39.0908 34.262 38.4966 34.262C37.9021 34.262 37.2188 34.4494 36.6487 34.9401C36.0369 35.4668 35.6965 36.2274 35.6975 37.0406C35.6931 37.854 36.0307 38.6178 36.644 39.1477C37.2151 39.6411 37.9 39.8285 38.4943 39.8285C39.0888 39.8285 39.7721 39.6411 40.3421 39.1504Z" stroke="#404047" stroke-opacity="0.1" stroke-width="4.5" stroke-linejoin="round"/>
<path d="M36.2891 38.9294C36.2773 39.6404 37.3938 39.6404 37.3849 38.9294C37.3967 38.2184 36.2802 38.2184 36.2891 38.9294Z" fill="#666666"/>
<path d="M36.2891 38.9294L35.1352 38.9102C35.1353 38.9041 35.1354 38.898 35.1356 38.8919C35.1486 38.4408 35.3534 37.9637 35.7478 37.6242C36.1114 37.3112 36.5179 37.2126 36.8359 37.2126C37.1536 37.2126 37.5622 37.3112 37.9275 37.6268C38.3241 37.9694 38.5273 38.4497 38.5385 38.9013C38.5386 38.9059 38.5387 38.9104 38.5388 38.915L37.3849 38.9294M36.2891 38.9294L35.1352 38.9438C35.1353 38.9484 35.1353 38.9529 35.1355 38.9575C35.1466 39.4091 35.3499 39.8894 35.7464 40.232C36.1117 40.5476 36.5203 40.6461 36.8381 40.6461C37.156 40.6461 37.5626 40.5476 37.9262 40.2346C38.3206 39.8951 38.5253 39.418 38.5384 38.9669C38.5386 38.9608 38.5387 38.9547 38.5388 38.9486L37.3849 38.9294M36.2891 38.9294C36.289 38.934 36.289 38.9386 36.289 38.9431C36.2916 39.6343 37.3746 39.6358 37.3849 38.9477C37.3849 38.9416 37.385 38.9355 37.3849 38.9294M36.2891 38.9294C36.289 38.9233 36.289 38.9172 36.2891 38.9111C36.2993 38.223 37.3824 38.2245 37.385 38.9157C37.385 38.9202 37.385 38.9248 37.3849 38.9294M38.6837 41.0345C39.2955 40.5078 39.6359 39.7473 39.6349 38.9341C39.6393 38.1207 39.3017 37.3568 38.6884 36.8269C38.1173 36.3335 37.4324 36.1461 36.8381 36.1461C36.2436 36.1461 35.5603 36.3335 34.9903 36.8243C34.3785 37.351 34.0381 38.1115 34.0391 38.9247C34.0347 39.7381 34.3723 40.502 34.9856 41.0319C35.5566 41.5253 36.2416 41.7126 36.8359 41.7126C37.4303 41.7126 38.1136 41.5252 38.6837 41.0345Z" stroke="#404047" stroke-opacity="0.1" stroke-width="4.5" stroke-linejoin="round"/>
<path d="M35.0689 37.1578C35.0571 37.8688 36.1736 37.8688 36.1647 37.1578C36.1766 36.4468 35.0601 36.4468 35.0689 37.1578Z" fill="#666666"/>
<path d="M35.0689 37.1578L33.915 37.1386C33.9151 37.1325 33.9153 37.1264 33.9154 37.1203C33.9285 36.6692 34.1333 36.1921 34.5276 35.8526C34.8912 35.5396 35.2978 35.4411 35.6157 35.4411C35.9335 35.4411 36.3421 35.5396 36.7074 35.8552C37.104 36.1978 37.3072 36.6782 37.3184 37.1297C37.3185 37.1343 37.3186 37.1388 37.3186 37.1434L36.1647 37.1578M35.0689 37.1578L33.915 37.1722C33.9151 37.1768 33.9152 37.1814 33.9153 37.1859C33.9265 37.6375 34.1297 38.1178 34.5263 38.4604C34.8916 38.7761 35.3002 38.8746 35.6179 38.8746C35.9359 38.8746 36.3425 38.776 36.706 38.4631C37.1004 38.1235 37.3052 37.6464 37.3182 37.1953C37.3184 37.1892 37.3185 37.1831 37.3187 37.177L36.1647 37.1578M35.0689 37.1578C35.0689 37.1624 35.0688 37.167 35.0689 37.1715C35.0715 37.8627 36.1545 37.8643 36.1647 37.1761C36.1648 37.17 36.1648 37.164 36.1647 37.1578M35.0689 37.1578C35.0689 37.1517 35.0689 37.1456 35.069 37.1396C35.0792 36.4514 36.1622 36.4529 36.1648 37.1441C36.1648 37.1487 36.1648 37.1532 36.1647 37.1578M37.4635 39.2629C38.0754 38.7362 38.4158 37.9757 38.4148 37.1625C38.4191 36.3491 38.0816 35.5852 37.4682 35.0553C36.8972 34.562 36.2122 34.3746 35.6179 34.3746C35.0235 34.3746 34.3402 34.562 33.7701 35.0527C33.1583 35.5794 32.8179 36.3399 32.8189 37.1532C32.8145 37.9665 33.1521 38.7304 33.7654 39.2603C34.3365 39.7537 35.0214 39.9411 35.6157 39.9411C36.2102 39.9411 36.8935 39.7537 37.4635 39.2629Z" stroke="#404047" stroke-opacity="0.1" stroke-width="4.5" stroke-linejoin="round"/>
<path d="M29.4148 57.2756C29.2587 55.3086 30.6392 53.5515 32.5873 53.2377L40.0115 52.0416L40.7045 60.7725L33.1845 60.7625C31.2113 60.7599 29.5709 59.2425 29.4148 57.2756V57.2756Z" fill="#747474"/>
<path d="M42.2545 51.8636C42.2048 51.2374 41.8956 50.6605 41.4016 50.2724C40.9076 49.8843 40.2739 49.7204 39.6537 49.8203L32.2294 51.0163C29.1238 51.5166 26.923 54.3178 27.1719 57.4536C27.4207 60.5893 30.0359 63.0084 33.1815 63.0125L40.7015 63.0225C41.3297 63.0233 41.9296 62.7615 42.3562 62.3003C42.7828 61.8392 42.9971 61.2207 42.9474 60.5944L42.2545 51.8636Z" stroke="#404047" stroke-opacity="0.1" stroke-width="4.5" stroke-linejoin="round"/>
<path d="M25.3478 57.4718C25.1036 59.5727 23.2934 61.138 21.1793 61.0764L13.9616 60.8661L15.044 51.5558L22.1174 53.0071C24.1893 53.4321 25.5921 55.3709 25.3478 57.4718V57.4718Z" fill="#747474"/>
<path d="M11.7266 60.6063C11.6538 61.2326 11.8472 61.8608 12.2596 62.3378C12.6721 62.8148 13.2657 63.0968 13.8961 63.1151L21.1137 63.3254C24.3946 63.421 27.2038 60.9919 27.5828 57.7317C27.9618 54.4714 25.7849 51.4626 22.5696 50.803L15.4962 49.3518C14.8785 49.225 14.2359 49.3633 13.7251 49.733C13.2142 50.1026 12.8819 50.6697 12.809 51.296L11.7266 60.6063Z" stroke="#404047" stroke-opacity="0.1" stroke-width="4.5" stroke-linejoin="round"/>
<path d="M32.5916 42.4785H22.2897C17.6358 42.4785 13.0788 45.2423 12.3756 49.6938L9.9366 65.1329C9.51403 67.8079 10.657 70.226 12.5227 71.8914C14.378 73.5475 16.9976 74.5313 19.8508 74.5313H34.4208C37.2166 74.5313 39.7932 73.5853 41.6436 71.9839C43.5024 70.3753 44.6838 68.032 44.3722 65.4026L42.543 49.9635C41.9988 45.3701 37.3446 42.4785 32.5916 42.4785Z" fill="#7F7F7F" stroke="white" stroke-width="4" stroke-linejoin="round"/>
<path d="M7.43092 34.366H7.43088L7.43092 34.3795C7.44931 40.0779 9.96411 44.4347 13.7215 47.3152C17.4246 50.1541 22.2589 51.5129 26.9965 51.5129C31.7342 51.5129 36.5687 50.1541 40.2725 47.3153C44.0305 44.435 46.5465 40.0785 46.5666 34.3801L46.5666 34.3666C46.5482 28.6688 44.0333 24.3125 40.2759 21.4321C36.5729 18.5935 31.7387 17.2345 27.0011 17.2343C22.2635 17.2341 17.4289 18.5927 13.7251 21.4312C9.96703 24.3113 7.45098 28.6676 7.43092 34.366Z" fill="#666666" stroke="white" stroke-width="4" stroke-linejoin="round"/>
<path d="M7.43092 32.9114H7.43088L7.43092 32.9249C7.44931 38.6234 9.96411 42.9801 13.7215 45.8606C17.4246 48.6995 22.2589 50.0583 26.9965 50.0583C31.7342 50.0583 36.5687 48.6995 40.2725 45.8608C44.0305 42.9804 46.5465 38.6239 46.5666 32.9255L46.5666 32.912C46.5482 27.2142 44.0333 22.8579 40.2759 19.9776C36.5729 17.1389 31.7387 15.7799 27.0011 15.7797C22.2635 15.7795 17.4289 17.1381 13.7251 19.9766C9.96703 22.8567 7.45098 27.213 7.43092 32.9114Z" fill="#808080" stroke="white" stroke-width="4" stroke-linejoin="round"/>
<path d="M35.0684 35.8965C37.4602 35.8965 39.3848 33.9517 39.3848 31.5703C39.3848 29.189 37.4602 27.2441 35.0684 27.2441C32.6765 27.2441 30.752 29.189 30.752 31.5703C30.752 33.9517 32.6765 35.8965 35.0684 35.8965Z" fill="#666666" stroke="white" stroke-width="4" stroke-linejoin="round"/>
<path d="M20.1172 35.8965C22.4643 35.8965 24.6172 34.0929 24.6172 31.5703C24.6172 29.0477 22.4643 27.2441 20.1172 27.2441C17.7701 27.2441 15.6172 29.0477 15.6172 31.5703C15.6172 34.0929 17.7701 35.8965 20.1172 35.8965Z" fill="#666666" stroke="white" stroke-width="4" stroke-linejoin="round"/>
<path d="M9.63229 26.9458C9.56546 26.9458 9.49867 26.9491 9.43217 26.9558C7.14889 27.1854 5.35143 28.1632 4.22614 29.6796C3.12034 31.1698 2.80303 32.9955 3.11263 34.67C3.74758 38.1042 7.00529 40.973 11.7084 40.1818C12.6714 40.0198 13.3766 39.186 13.3766 38.2095V28.9458C13.3766 27.8412 12.4812 26.9458 11.3766 26.9458H9.63229Z" fill="#808080" stroke="white" stroke-width="4" stroke-linejoin="round"/>
<path d="M9.67078 28.5929C9.60856 28.5929 9.54637 28.5958 9.48442 28.6016C7.83426 28.756 6.47223 29.4705 5.61089 30.6459C4.77162 31.7911 4.55199 33.18 4.7887 34.428C5.27558 36.9951 7.72143 39.1543 11.1513 38.53C12.1021 38.357 12.7932 37.5288 12.7932 36.5623V30.5929C12.7932 29.4883 11.8978 28.5929 10.7932 28.5929H9.67078Z" fill="#666666" stroke="white" stroke-width="4" stroke-linejoin="round"/>
<path d="M44.5624 26.9558C44.4959 26.9491 44.4291 26.9458 44.3623 26.9458H42.6179C41.5133 26.9458 40.6179 27.8412 40.6179 28.9458V38.2095C40.6179 39.186 41.3231 40.0198 42.2861 40.1818C46.9893 40.973 50.247 38.1042 50.8819 34.67C51.1915 32.9955 50.8742 31.1698 49.7684 29.6796C48.6431 28.1632 46.8457 27.1854 44.5624 26.9558Z" fill="#808080" stroke="white" stroke-width="4" stroke-linejoin="round"/>
<path d="M44.5131 28.6016C44.4511 28.5958 44.3889 28.5929 44.3267 28.5929H43.2043C42.0997 28.5929 41.2043 29.4883 41.2043 30.5929V36.5623C41.2043 37.5288 41.8954 38.357 42.8462 38.53C46.2761 39.1542 48.7219 36.9951 49.2088 34.428C49.4455 33.18 49.2259 31.7911 48.3866 30.6459C47.5253 29.4705 46.1632 28.756 44.5131 28.6016Z" fill="#666666" stroke="white" stroke-width="4" stroke-linejoin="round"/>
<path d="M41.6139 22.6152C42.6937 22.6152 43.5785 21.7581 43.6129 20.6789C44.3522 -2.52317 9.64928 -2.52819 10.3816 20.6783C10.4157 21.7578 11.3006 22.6152 12.3806 22.6152H41.6139Z" fill="#808080" stroke="white" stroke-width="4" stroke-linejoin="round"/>
<path d="M43.5893 28.6291L43.5981 28.6291C45.3271 28.6215 46.7633 27.9376 47.7434 26.8128C48.6897 25.7268 49.1159 24.343 49.1143 23.029C49.1126 21.7151 48.6831 20.3333 47.7374 19.2496C46.7581 18.1273 45.3237 17.4427 43.5969 17.4361H43.5893H10.4082V17.4361L10.3994 17.4362C8.67036 17.4438 7.23414 18.1276 6.25409 19.2524C5.30781 20.3384 4.8816 21.7222 4.88323 23.0362C4.88486 24.3501 5.31438 25.7319 6.26006 26.8156C7.23943 27.9379 8.67374 28.6225 10.4006 28.6291V28.6291H10.4082L43.5893 28.6291Z" fill="#666666" stroke="white" stroke-width="4" stroke-linejoin="round"/>
<path d="M10.4006 27.527V27.527H10.4082H43.5893V25.527L43.5981 27.527C45.3271 27.5194 46.7633 26.8355 47.7434 25.7108C48.6897 24.6248 49.1159 23.2409 49.1143 21.927C49.1126 20.6131 48.6831 19.2313 47.7374 18.1476C46.7581 17.0253 45.3237 16.3406 43.5969 16.3341H43.5893H10.4082V16.3341L10.3994 16.3341C8.67036 16.3417 7.23414 17.0256 6.25409 18.1504C5.30781 19.2364 4.8816 20.6202 4.88323 21.9342C4.88486 23.2481 5.31438 24.6299 6.26006 25.7136C7.23943 26.8359 8.67374 27.5205 10.4006 27.527Z" fill="#999999" stroke="white" stroke-width="4" stroke-linejoin="round"/>
<path d="M15.7211 11.0137C15.0477 11.5939 14.661 12.4377 14.6658 13.3818C14.6592 14.326 15.0443 15.1712 15.7182 15.7527C16.3542 16.3016 17.1352 16.5236 17.8361 16.5236C18.5371 16.5236 19.3176 16.3016 19.9533 15.7538C20.6268 15.1736 21.0134 14.3298 21.0086 13.3857C21.0153 12.4415 20.6301 11.5963 19.9563 11.0148C19.3203 10.4659 18.5392 10.2439 17.8383 10.2439C17.1374 10.2439 16.3569 10.4659 15.7211 11.0137Z" fill="#666666" stroke="white" stroke-width="4" stroke-linejoin="round"/>
<path d="M21.4784 15.5879L22.1159 15.5985C22.1157 15.6061 22.1155 15.6137 22.1152 15.6213C22.1024 15.9595 21.9451 16.3342 21.6327 16.6038C21.3459 16.8513 21.0328 16.9235 20.7984 16.9235C20.5641 16.9235 20.2495 16.8513 19.9614 16.6019C19.6473 16.3301 19.4909 15.9532 19.4793 15.6146C19.479 15.6085 19.4789 15.6024 19.4788 15.5964L20.1161 15.5879M21.4784 15.5879L22.1158 15.5793C22.1157 15.5733 22.1155 15.5672 22.1153 15.5611C22.1037 15.2226 21.9472 14.8456 21.6332 14.5738C21.345 14.3244 21.0305 14.2522 20.7962 14.2522C20.5618 14.2522 20.2487 14.3244 19.9619 14.5719C19.6495 14.8415 19.4921 15.2162 19.4794 15.5544C19.4791 15.562 19.4789 15.5696 19.4787 15.5772L20.1161 15.5879M21.4784 15.5879C21.4785 15.5817 21.4786 15.5757 21.4785 15.5696C21.4742 14.7097 20.1281 14.7081 20.1161 15.5651C20.116 15.5726 20.116 15.5802 20.1161 15.5879M21.4784 15.5879C21.4785 15.5955 21.4785 15.6031 21.4784 15.6106C21.4665 16.4676 20.1204 16.466 20.116 15.6061C20.116 15.6 20.116 15.594 20.1161 15.5879M19.0195 13.5754C18.4392 14.0761 18.1139 14.7999 18.1161 15.5845C18.1113 16.3693 18.4344 17.0954 19.0157 17.5984C19.5597 18.0692 20.218 18.2522 20.7962 18.2522C21.3745 18.2522 22.0317 18.0692 22.5751 17.6003C23.1554 17.0996 23.4806 16.3758 23.4785 15.5912C23.4833 14.8065 23.1602 14.0803 22.5789 13.5773C22.0349 13.1065 21.3766 12.9235 20.7984 12.9235C20.2201 12.9235 19.5629 13.1065 19.0195 13.5754Z" fill="#666666" stroke="white" stroke-width="4" stroke-linejoin="round"/>
<path d="M17.6196 16.6929L18.257 16.7035C18.2568 16.7111 18.2566 16.7187 18.2563 16.7263C18.2435 17.0645 18.0862 17.4392 17.7738 17.7088C17.487 17.9563 17.1739 18.0285 16.9395 18.0285C16.7052 18.0285 16.3906 17.9563 16.1025 17.707C15.7884 17.4352 15.632 17.0582 15.6204 16.7196C15.6202 16.7135 15.62 16.7074 15.6199 16.7014L16.2572 16.6929M17.6196 16.6929L18.2569 16.6843C18.2568 16.6783 18.2566 16.6722 18.2564 16.6661C18.2448 16.3276 18.0883 15.9506 17.7743 15.6788C17.4861 15.4294 17.1716 15.3572 16.9373 15.3572C16.7029 15.3572 16.3898 15.4295 16.103 15.6769C15.7906 15.9465 15.6332 16.3212 15.6205 16.6594C15.6202 16.6671 15.62 16.6746 15.6198 16.6822L16.2572 16.6929M17.6196 16.6929C17.6197 16.6867 17.6197 16.6807 17.6197 16.6746C17.6153 15.8147 16.2692 15.8132 16.2572 16.6701C16.2571 16.6776 16.2571 16.6852 16.2572 16.6929M17.6196 16.6929C17.6197 16.7005 17.6197 16.7081 17.6195 16.7156C17.6076 17.5726 16.2615 17.5711 16.2571 16.7111C16.2571 16.7051 16.2571 16.699 16.2572 16.6929M15.1606 14.6804C14.5803 15.1811 14.255 15.9049 14.2572 16.6895C14.2524 17.4743 14.5755 18.2004 15.1568 18.7035C15.7008 19.1742 16.3591 19.3572 16.9373 19.3572C17.5156 19.3572 18.1728 19.1742 18.7162 18.7053C19.2965 18.2046 19.6218 17.4808 19.6196 16.6962C19.6244 15.9115 19.3013 15.1853 18.72 14.6823C18.176 14.2115 17.5177 14.0285 16.9395 14.0285C16.3612 14.0285 15.704 14.2115 15.1606 14.6804Z" fill="#666666" stroke="white" stroke-width="4" stroke-linejoin="round"/>
<path d="M16.047 37.0452L16.9509 37.0565C16.9509 37.0611 16.9508 37.0657 16.9506 37.0702C16.9403 37.4524 16.767 37.8643 16.4262 38.1587C16.1129 38.4294 15.7651 38.512 15.498 38.512C15.2308 38.512 14.8847 38.4294 14.573 38.161C14.2342 37.8693 14.0596 37.4604 14.0477 37.0786C14.0475 37.0725 14.0474 37.0664 14.0473 37.0603L14.9512 37.0452M16.047 37.0452L16.951 37.0302C16.9509 37.0241 16.9507 37.018 16.9505 37.0119C16.9386 36.6301 16.764 36.2212 16.4252 35.9295C16.1135 35.6611 15.7675 35.5785 15.5002 35.5785C15.2331 35.5785 14.8853 35.6611 14.572 35.9318C14.2312 36.2262 14.0579 36.638 14.0476 37.0203C14.0475 37.0248 14.0474 37.0294 14.0473 37.0339L14.9512 37.0452M16.047 37.0452C16.0471 37.0391 16.0471 37.033 16.047 37.027C16.0367 36.3388 14.9537 36.3403 14.9511 37.0315C14.9511 37.0361 14.9511 37.0406 14.9512 37.0452M16.047 37.0452C16.0471 37.0498 16.0471 37.0544 16.0471 37.0589C16.0445 37.7502 14.9615 37.7517 14.9512 37.0635C14.9512 37.0575 14.9511 37.0514 14.9512 37.0452M13.8112 35.1319C13.2545 35.6129 12.9469 36.3067 12.9512 37.0494C12.95 37.7919 13.2602 38.4828 13.8155 38.9609C14.3337 39.407 14.9564 39.5785 15.5002 39.5785C16.0438 39.5785 16.668 39.407 17.1871 38.9586C17.7437 38.4776 18.0513 37.7838 18.047 37.0411C18.0482 36.2986 17.7381 35.6077 17.1827 35.1296C16.6645 34.6835 16.0418 34.512 15.498 34.512C14.9544 34.512 14.3302 34.6835 13.8112 35.1319Z" fill="#666666" stroke="white" stroke-width="4" stroke-linejoin="round"/>
<path d="M17.7084 38.9294L18.6124 38.9407C18.6123 38.9453 18.6122 38.9498 18.6121 38.9544C18.6017 39.3366 18.4284 39.7484 18.0876 40.0429C17.7744 40.3135 17.4265 40.3961 17.1594 40.3961C16.8922 40.3961 16.5461 40.3135 16.2344 40.0452C15.8956 39.7535 15.721 39.3446 15.7091 38.9627C15.7089 38.9566 15.7088 38.9505 15.7087 38.9445L16.6126 38.9294M17.7084 38.9294L18.6124 38.9143C18.6123 38.9083 18.6121 38.9022 18.6119 38.8961C18.6 38.5142 18.4254 38.1053 18.0866 37.8136C17.7749 37.5453 17.4289 37.4626 17.1616 37.4626C16.8946 37.4626 16.5467 37.5453 16.2334 37.8159C15.8926 38.1104 15.7193 38.5222 15.709 38.9044C15.7089 38.909 15.7088 38.9135 15.7087 38.9181L16.6126 38.9294M17.7084 38.9294C17.7085 38.9233 17.7085 38.9172 17.7084 38.9111C17.6982 38.223 16.6152 38.2245 16.6126 38.9157C16.6125 38.9202 16.6126 38.9248 16.6126 38.9294M17.7084 38.9294C17.7085 38.934 17.7085 38.9386 17.7085 38.9431C17.7059 39.6343 16.6229 39.6358 16.6127 38.9477C16.6126 38.9416 16.6126 38.9355 16.6126 38.9294M15.4726 37.0161C14.9159 37.497 14.6084 38.1909 14.6126 38.9336C14.6115 39.6761 14.9216 40.367 15.4769 40.845C15.9951 41.2911 16.6179 41.4626 17.1616 41.4626C17.7053 41.4626 18.3295 41.2911 18.8485 40.8427C19.4051 40.3618 19.7127 39.6679 19.7085 38.9252C19.7096 38.1827 19.3995 37.4918 18.8441 37.0137C18.326 36.5677 17.7032 36.3961 17.1594 36.3961C16.6158 36.3961 15.9916 36.5676 15.4726 37.0161Z" fill="#666666" stroke="white" stroke-width="4" stroke-linejoin="round"/>
<path d="M18.9256 37.1578L19.8295 37.1691C19.8295 37.1737 19.8294 37.1782 19.8292 37.1828C19.8189 37.565 19.6456 37.9768 19.3048 38.2713C18.9915 38.5419 18.6437 38.6246 18.3766 38.6246C18.1094 38.6246 17.7633 38.5419 17.4516 38.2736C17.1128 37.9819 16.9382 37.573 16.9263 37.1911C16.9261 37.185 16.926 37.179 16.9259 37.1729L17.8298 37.1578M18.9256 37.1578L19.8296 37.1428C19.8295 37.1367 19.8293 37.1306 19.8291 37.1245C19.8172 36.7427 19.6426 36.3337 19.3038 36.042C18.9921 35.7737 18.6461 35.6911 18.3788 35.6911C18.1117 35.6911 17.7639 35.7737 17.4506 36.0444C17.1098 36.3388 16.9365 36.7506 16.9262 37.1328C16.9261 37.1374 16.926 37.142 16.9259 37.1465L17.8298 37.1578M18.9256 37.1578C18.9257 37.1517 18.9257 37.1456 18.9256 37.1396C18.9154 36.4514 17.8323 36.4529 17.8297 37.1441C17.8297 37.1487 17.8298 37.1532 17.8298 37.1578M18.9256 37.1578C18.9257 37.1624 18.9257 37.167 18.9257 37.1715C18.9231 37.8627 17.8401 37.8643 17.8298 37.1761C17.8298 37.17 17.8298 37.164 17.8298 37.1578M16.6898 35.2445C16.1331 35.7254 15.8255 36.4193 15.8298 37.162C15.8286 37.9045 16.1388 38.5954 16.6941 39.0735C17.2123 39.5196 17.835 39.6911 18.3788 39.6911C18.9224 39.6911 19.5467 39.5196 20.0657 39.0711C20.6223 38.5902 20.9299 37.8963 20.9256 37.1537C20.9268 36.4112 20.6167 35.7203 20.0613 35.2422C19.5431 34.7961 18.9204 34.6246 18.3766 34.6246C17.833 34.6246 17.2088 34.7961 16.6898 35.2445Z" fill="#666666" stroke="white" stroke-width="4" stroke-linejoin="round"/>
<path d="M37.9476 37.0452L37.0436 37.0565C37.0437 37.0611 37.0438 37.0657 37.0439 37.0702C37.0542 37.4524 37.2275 37.8643 37.5683 38.1587C37.8816 38.4294 38.2295 38.512 38.4966 38.512C38.7638 38.512 39.1098 38.4294 39.4215 38.161C39.7604 37.8693 39.935 37.4604 39.9469 37.0786C39.947 37.0725 39.9472 37.0664 39.9473 37.0603L39.0433 37.0452M37.9476 37.0452C37.9475 37.0498 37.9475 37.0544 37.9475 37.0589C37.9501 37.7502 39.0331 37.7517 39.0433 37.0635C39.0434 37.0575 39.0434 37.0514 39.0433 37.0452M37.9476 37.0452C37.9475 37.0391 37.9475 37.033 37.9476 37.027C37.9578 36.3388 39.0408 36.3403 39.0434 37.0315C39.0434 37.0361 39.0434 37.0406 39.0433 37.0452M37.9476 37.0452L37.0436 37.0302C37.0437 37.0241 37.0438 37.018 37.044 37.0119C37.0559 36.6301 37.2305 36.2212 37.5694 35.9295C37.8811 35.6611 38.2271 35.5785 38.4943 35.5785C38.7614 35.5785 39.1093 35.6611 39.4226 35.9318C39.7634 36.2262 39.9367 36.638 39.947 37.0203C39.9471 37.0248 39.9472 37.0294 39.9473 37.0339L39.0433 37.0452M40.179 38.9609C40.7344 38.4828 41.0445 37.7919 41.0434 37.0494C41.0476 36.3067 40.7401 35.6129 40.1834 35.1319C39.6644 34.6835 39.0402 34.512 38.4966 34.512C37.9528 34.512 37.33 34.6835 36.8118 35.1296C36.2565 35.6077 35.9464 36.2986 35.9475 37.0411C35.9433 37.7838 36.2508 38.4776 36.8075 38.9586C37.3265 39.407 37.9507 39.5785 38.4943 39.5785C39.0381 39.5785 39.6609 39.407 40.179 38.9609Z" fill="#666666" stroke="white" stroke-width="4" stroke-linejoin="round"/>
<path d="M36.2891 38.9294L35.3852 38.9407C35.3852 38.9453 35.3853 38.9498 35.3855 38.9544C35.3958 39.3366 35.5691 39.7484 35.9099 40.0429C36.2232 40.3135 36.571 40.3961 36.8381 40.3961C37.1053 40.3961 37.4514 40.3135 37.7631 40.0452C38.1019 39.7535 38.2765 39.3446 38.2884 38.9627C38.2886 38.9566 38.2887 38.9505 38.2888 38.9445L37.3849 38.9294M36.2891 38.9294C36.289 38.934 36.289 38.9386 36.289 38.9431C36.2916 39.6343 37.3746 39.6358 37.3849 38.9477C37.3849 38.9416 37.385 38.9355 37.3849 38.9294M36.2891 38.9294C36.289 38.9233 36.289 38.9172 36.2891 38.9111C36.2993 38.223 37.3824 38.2245 37.385 38.9157C37.385 38.9202 37.385 38.9248 37.3849 38.9294M36.2891 38.9294L35.3851 38.9143C35.3852 38.9083 35.3854 38.9022 35.3856 38.8961C35.3975 38.5142 35.5721 38.1053 35.9109 37.8136C36.2226 37.5453 36.5686 37.4626 36.8359 37.4626C37.103 37.4626 37.4508 37.5453 37.7641 37.8159C38.1049 38.1104 38.2782 38.5222 38.2885 38.9044C38.2886 38.909 38.2887 38.9135 38.2888 38.9181L37.3849 38.9294M38.5206 40.845C39.0759 40.367 39.3861 39.6761 39.3849 38.9336C39.3892 38.1909 39.0816 37.497 38.5249 37.0161C38.0059 36.5676 37.3817 36.3961 36.8381 36.3961C36.2943 36.3961 35.6716 36.5677 35.1534 37.0137C34.598 37.4918 34.2879 38.1827 34.2891 38.9252C34.2848 39.6679 34.5924 40.3618 35.149 40.8427C35.6681 41.2911 36.2923 41.4626 36.8359 41.4626C37.3797 41.4626 38.0024 41.2911 38.5206 40.845Z" fill="#666666" stroke="white" stroke-width="4" stroke-linejoin="round"/>
<path d="M35.0689 37.1578L34.165 37.1691C34.1651 37.1737 34.1652 37.1782 34.1653 37.1828C34.1756 37.565 34.3489 37.9768 34.6897 38.2713C35.003 38.5419 35.3509 38.6246 35.6179 38.6246C35.8852 38.6246 36.2312 38.5419 36.5429 38.2736C36.8818 37.9819 37.0564 37.573 37.0682 37.1911C37.0684 37.185 37.0686 37.179 37.0687 37.1729L36.1647 37.1578M35.0689 37.1578C35.0689 37.1624 35.0688 37.167 35.0689 37.1715C35.0715 37.8627 36.1545 37.8643 36.1647 37.1761C36.1648 37.17 36.1648 37.164 36.1647 37.1578M35.0689 37.1578C35.0689 37.1517 35.0689 37.1456 35.069 37.1396C35.0792 36.4514 36.1622 36.4529 36.1648 37.1441C36.1648 37.1487 36.1648 37.1532 36.1647 37.1578M35.0689 37.1578L34.165 37.1428C34.1651 37.1367 34.1652 37.1306 34.1654 37.1245C34.1773 36.7427 34.3519 36.3337 34.6907 36.042C35.0024 35.7737 35.3485 35.6911 35.6157 35.6911C35.8828 35.6911 36.2307 35.7737 36.5439 36.0444C36.8847 36.3388 37.058 36.7506 37.0684 37.1328C37.0685 37.1374 37.0686 37.142 37.0687 37.1465L36.1647 37.1578M37.3004 39.0735C37.8558 38.5954 38.1659 37.9045 38.1648 37.162C38.169 36.4193 37.8614 35.7254 37.3048 35.2445C36.7858 34.7961 36.1616 34.6246 35.6179 34.6246C35.0742 34.6246 34.4514 34.7961 33.9332 35.2422C33.3779 35.7203 33.0678 36.4112 33.0689 37.1537C33.0647 37.8963 33.3722 38.5902 33.9289 39.0711C34.4479 39.5196 35.0721 39.6911 35.6157 39.6911C36.1595 39.6911 36.7823 39.5196 37.3004 39.0735Z" fill="#666666" stroke="white" stroke-width="4" stroke-linejoin="round"/>
<path d="M42.0053 51.8834C41.9611 51.3268 41.6862 50.8139 41.2471 50.469C40.808 50.124 40.2447 49.9783 39.6934 50.0671L32.2692 51.2631C29.2922 51.7427 27.1825 54.4279 27.4211 57.4338C27.6597 60.4397 30.1665 62.7585 33.1818 62.7625L40.7018 62.7725C41.2602 62.7732 41.7935 62.5405 42.1727 62.1306C42.5518 61.7206 42.7424 61.1709 42.6982 60.6142L42.0053 51.8834Z" fill="#747474" stroke="white" stroke-width="4" stroke-linejoin="round"/>
<path d="M11.975 60.6351C11.9102 61.1919 12.0821 61.7503 12.4487 62.1743C12.8153 62.5982 13.3431 62.8489 13.9033 62.8653L21.121 63.0755C24.2722 63.1673 26.9704 60.8342 27.3345 57.7028C27.6985 54.5713 25.6076 51.6815 22.5194 51.0479L15.4459 49.5967C14.8969 49.484 14.3257 49.6069 13.8716 49.9355C13.4175 50.2641 13.1221 50.7681 13.0574 51.3249L11.975 60.6351Z" fill="#747474" stroke="white" stroke-width="4" stroke-linejoin="round"/>
<path d="M14.3511 50.0059C14.8498 46.8485 18.2538 44.4785 22.2897 44.4785H32.5916C36.7216 44.4785 40.1728 46.957 40.5569 50.1988L42.3861 65.6379C42.8243 69.3366 39.1329 72.5313 34.4208 72.5313H19.8508C15.0403 72.5313 11.3176 69.2083 11.9121 65.445L14.3511 50.0059Z" fill="#7F7F7F"/>
<path d="M44.5666 34.3731C44.4955 54.5595 9.49606 54.5595 9.43091 34.3731C9.50199 14.1866 44.5015 14.1896 44.5666 34.3731Z" fill="#666666"/>
<path d="M44.5666 32.9185C44.4955 53.105 9.49606 53.105 9.43091 32.9185C9.50199 12.732 44.5015 12.735 44.5666 32.9185Z" fill="#808080"/>
<path d="M37.3848 31.5703C37.3848 32.855 36.3477 33.8965 35.0684 33.8965C33.789 33.8965 32.752 32.855 32.752 31.5703C32.752 30.2856 33.789 29.2441 35.0684 29.2441C36.3477 29.2441 37.3848 30.2856 37.3848 31.5703Z" fill="#666666"/>
<path d="M22.6172 31.5703C22.6172 32.855 21.4979 33.8965 20.1172 33.8965C18.7365 33.8965 17.6172 32.855 17.6172 31.5703C17.6172 30.2856 18.7365 29.2441 20.1172 29.2441C21.4979 29.2441 22.6172 30.2856 22.6172 31.5703Z" fill="#666666"/>
<path d="M9.63229 28.9458H11.3766V38.2095C4.15641 39.4241 2.38541 29.6745 9.63229 28.9458Z" fill="#808080"/>
<path d="M9.67078 30.5929H10.7932V36.5623C6.20283 37.3978 4.98562 31.0314 9.67078 30.5929Z" fill="#666666"/>
<path d="M44.3623 28.9458H42.6179V38.2095C49.8381 39.4241 51.6091 29.6745 44.3623 28.9458Z" fill="#808080"/>
<path d="M44.3267 30.5929H43.2043V36.5623C47.7947 37.3978 49.0119 31.0314 44.3267 30.5929Z" fill="#666666"/>
<path d="M41.6139 20.6152H12.3806C11.735 0.156192 42.2655 0.16804 41.6139 20.6152Z" fill="#808080"/>
<path d="M43.5893 26.6291H10.4082C5.71712 26.6113 5.69935 19.4569 10.4082 19.4361H43.5893C48.2804 19.4539 48.2981 26.6084 43.5893 26.6291Z" fill="#666666"/>
<path d="M43.5893 25.527H10.4082C5.71712 25.5093 5.69935 18.3548 10.4082 18.3341H43.5893C48.2804 18.3519 48.2981 25.5063 43.5893 25.527V25.527Z" fill="#999999"/>
<path d="M19.0085 13.3838C19.0292 14.9035 16.6422 14.9035 16.6659 13.3838C16.6452 11.864 19.0322 11.864 19.0085 13.3838Z" fill="#666666"/>
<path d="M21.4784 15.5879C21.4903 16.4736 20.1013 16.4736 20.1161 15.5879C20.1043 14.7021 21.4932 14.7021 21.4784 15.5879Z" fill="#666666"/>
<path d="M17.6196 16.6929C17.6314 17.5787 16.2424 17.5787 16.2572 16.6929C16.2454 15.8071 17.6344 15.8071 17.6196 16.6929Z" fill="#666666"/>
<path d="M16.047 37.0452C16.0588 37.7562 14.9423 37.7562 14.9512 37.0452C14.9394 36.3342 16.0559 36.3342 16.047 37.0452Z" fill="#666666"/>
<path d="M17.7084 38.9294C17.7203 39.6404 16.6038 39.6404 16.6126 38.9294C16.6008 38.2184 17.7173 38.2184 17.7084 38.9294Z" fill="#666666"/>
<path d="M18.9256 37.1578C18.9374 37.8688 17.8209 37.8688 17.8298 37.1578C17.818 36.4468 18.9345 36.4468 18.9256 37.1578Z" fill="#666666"/>
<path d="M37.9476 37.0452C37.9357 37.7562 39.0522 37.7562 39.0433 37.0452C39.0552 36.3342 37.9387 36.3342 37.9476 37.0452Z" fill="#666666"/>
<path d="M36.2891 38.9294C36.2773 39.6404 37.3938 39.6404 37.3849 38.9294C37.3967 38.2184 36.2802 38.2184 36.2891 38.9294Z" fill="#666666"/>
<path d="M35.0689 37.1578C35.0571 37.8688 36.1736 37.8688 36.1647 37.1578C36.1766 36.4468 35.0601 36.4468 35.0689 37.1578Z" fill="#666666"/>
<path d="M30.4286 57.424C30.2192 55.462 31.5515 53.668 33.4903 53.3014L40.8793 51.9043L41.8091 60.613L34.2916 60.8073C32.3191 60.8582 30.6381 59.386 30.4286 57.424V57.424Z" fill="#747474"/>
<path d="M24.3197 57.6791C23.9951 59.7691 22.1263 61.2639 20.0161 61.1213L12.8118 60.6347L14.2501 51.3727L21.2627 53.0939C23.3168 53.598 24.6443 55.5891 24.3197 57.6791V57.6791Z" fill="#747474"/>
</svg>
