<svg width="14" height="14" viewBox="0 0 14 14" fill="none" xmlns="http://www.w3.org/2000/svg">
<path d="M6.67256 0.836618C6.7269 0.603238 7.2731 0.603239 7.32744 0.836618C7.63561 2.1601 8.19771 3.87626 9.16073 4.83927C10.1237 5.80229 11.8399 6.36439 13.1634 6.67256C13.3968 6.7269 13.3968 7.2731 13.1634 7.32744C11.8399 7.63561 10.1237 8.19771 9.16073 9.16073C8.19771 10.1237 7.63561 11.8399 7.32744 13.1634C7.2731 13.3968 6.7269 13.3968 6.67256 13.1634C6.36439 11.8399 5.80229 10.1237 4.83927 9.16073C3.87626 8.19771 2.1601 7.63561 0.836618 7.32744C0.603238 7.2731 0.603239 6.7269 0.836618 6.67256C2.1601 6.36439 3.87626 5.80229 4.83927 4.83927C5.80229 3.87626 6.36439 2.1601 6.67256 0.836618Z" fill="white"/>
</svg>
