<svg width="353" height="231" viewBox="0 0 353 231" fill="none" xmlns="http://www.w3.org/2000/svg">
<path d="M58.1752 68.4768H62.912L64.491 65.3466H68.1752L71.8594 62.7381L75.0173 61.173L77.6488 57.5211V52.8258L78.7015 51.2607L80.8067 51.7824L82.912 53.8692L85.5436 51.7824L86.5962 51.2607L87.6488 51.7824L88.7015 52.8258L90.8067 50.2173L93.4383 49.1739L95.0173 47.0871L97.6488 46.0437H101.333L109.228 41.3485L112.386 42.3919H115.544L117.649 42.9136L120.28 41.3485H122.386L124.491 38.2183H128.175L135.017 35.6098L141.859 33.523L143.438 30.3928L148.175 28.8277L150.28 26.2192H157.123H163.438H167.123L169.754 23.089H176.596L181.859 21.0023H187.123H190.807L195.017 17.3504H201.333H208.701H211.859L215.017 9.5249V7.4381L218.701 9.5249H220.28L222.386 12.1334H227.123L229.228 9.5249H231.333H234.491H238.701H240.807L246.07 7.4381L250.28 4.30792L252.912 7.4381V5.87302H258.175H262.386L263.965 2.22113H267.649L270.28 4.30792H273.965L276.596 7.4381H280.807L283.438 4.30792H288.701L293.438 7.4381V12.1334L298.175 17.3504L301.859 19.4372L306.596 23.089L309.228 21.0023H315.544L319.228 23.089L323.438 24.6541L321.333 28.8277L323.965 30.3928L326.07 34.0447V40.8268L323.438 44.4787L323.965 46.5654L326.07 49.1739L327.649 50.739H330.28V52.8258L328.701 52.3041L327.123 53.8692L328.175 55.4343H329.754L330.28 57.5211L331.859 55.956L333.438 54.3909L332.912 52.3041V50.2173L335.017 49.6956L336.596 50.739V52.3041L337.123 53.8692L338.701 54.3909L339.754 55.956L341.859 56.4777L342.912 58.0428L341.859 59.6079L340.28 60.1296L339.228 59.6079L337.649 58.5645V57.5211H334.491L332.386 59.6079V65.3466L334.491 68.4768V72.6503L332.386 75.2588L330.28 71.3582H328.175L326.07 77.3456L323.965 84.6494V89.8664L321.333 94.5616H315.544L311.859 99.7786L309.228 105.517L306.596 111.256L303.965 116.995L298.175 121.168L296.07 124.298H298.175L296.07 131.602L290.807 132.646L285.544 134.211H280.807L273.965 135.776L267.649 137.863L263.965 143.601L258.175 145.166V146.731L255.017 145.166L250.28 148.297L242.386 151.948H236.596L231.333 154.035L227.123 151.948L224.491 151.427L220.28 151.948L218.701 154.035H215.017L212.386 158.209L206.07 162.904L204.491 167.078H199.228L196.07 168.643L193.438 167.078L190.807 165.513H185.017L183.965 168.121L181.859 167.078L178.701 164.469V168.121L174.491 168.643L169.228 167.078H165.017L163.438 170.208L159.228 171.251L153.438 171.773L150.28 173.338H146.596L141.859 171.773L140.28 168.643L136.596 167.599L129.228 168.643L124.491 170.208L120.28 165.513L115.544 167.599L109.228 170.208H103.438L98.7015 168.643L95.0173 170.208L92.3857 168.643H87.1225L86.0699 167.078L80.2804 170.208L75.5436 174.903H72.3857L71.3331 180.642V182.729L72.3857 186.38L71.3331 190.032L68.7015 188.989L67.1225 186.38L64.491 188.989L59.7541 188.467L58.7015 184.815V181.685H54.491L52.3857 178.033L47.6488 171.251L42.912 167.078L39.2278 165.513H35.5436L28.7015 159.774L25.5436 158.209L21.8594 151.948L19.2278 146.731L15.5436 142.036V137.863L18.7015 135.776L16.5962 132.646V130.559L18.7015 125.864L16.5962 123.255V118.038L17.6488 115.43L18.7015 114.908H20.8067L24.491 110.213V106.561L27.6488 106.039L32.3857 102.387L34.491 99.7786L38.1752 97.6918L40.2804 92.4749L44.491 89.8664H46.0699L51.8594 84.6494L57.1225 78.9107L58.1752 72.6503V68.4768Z" fill="white"/>
<path d="M338.701 35.6098L340.28 39.2617L342.912 40.3796L346.596 40.8268L349.228 39.2617L350.807 38.2183L349.228 32.4796L351.859 30.3928L349.228 28.8277H346.596V24.6541H340.28V28.8277L337.123 30.3928L338.701 35.6098Z" fill="white"/>
<path d="M8.17516 131.602L12.3857 130.559V126.907H8.17516H1.85938L4.49095 131.602L6.0699 134.211L8.17516 131.602Z" fill="white"/>
<path d="M39.2278 84.6494L42.3857 88.823L43.4383 86.2145L45.5436 83.0843L44.491 79.9541H43.4383L39.2278 78.9107V84.6494Z" fill="white"/>
<path d="M57.6488 205.162L61.3331 208.292H62.912L65.5436 205.683L67.1225 201.51H62.912L61.3331 199.945L57.6488 201.51V205.162Z" fill="white"/>
<path d="M58.7015 223.421L59.7541 229.16L61.3331 226.551V223.421V219.769H59.7541L58.7015 223.421Z" fill="white"/>
<path d="M82.912 21.0023L85.5436 22.0456V21.0023V18.9155V16.8287L83.9646 14.7419H87.6488L90.8067 13.1768L89.7541 10.0466L90.8067 7.4381H88.7015H87.6488L83.9646 10.0466L81.3331 9.5249L79.7541 10.0466H76.5962L75.0173 12.6551L79.7541 14.7419L82.912 21.0023Z" fill="white"/>
<path d="M68.1752 8.48151L72.912 11.09L74.491 10.0466L75.0173 7.4381L74.491 5.35131L71.8594 2.74283H68.1752V1.17773H64.491V2.74283L68.1752 4.82962L65.5436 6.39472L68.1752 8.48151Z" fill="white"/>
<path d="M68.1752 65.3466H64.491L62.912 68.4767H58.1752V72.6503L57.1225 78.9107L51.8594 84.6494L46.0699 89.8664H44.491L40.2804 92.4749L38.1752 97.6918L34.491 99.7786M68.1752 65.3466L69.2278 68.4767V71.6069V77.8673L71.8594 82.0409V86.2145L78.1752 91.4315L78.7015 96.6484L99.7541 110.213M68.1752 65.3466L71.8594 62.7381L75.0173 61.173L77.6488 57.5211V52.8258L78.7015 51.2607L80.8067 51.7824L82.912 53.8692L85.5436 51.7824L86.5962 51.2607L87.6488 51.7824L88.7015 52.8258L90.8067 50.2173L93.4383 49.1739L95.0173 47.0871L97.6489 46.0437H101.333L109.228 41.3485L112.386 42.3919H115.544L117.649 42.9136M99.7541 110.213L105.544 112.299L113.438 111.256L115.544 112.299L124.491 113.343M99.7541 110.213L97.6489 112.299H89.7541L85.5436 112.821L80.2804 121.168L76.0699 119.081L67.4273 121.097M124.491 113.343L125.544 114.908L122.386 118.038L120.28 126.907L118.175 130.559L113.965 131.602L112.386 135.776L109.228 138.384L106.596 135.776L103.438 132.646L99.2278 137.863V145.166L100.28 154.035L98.7015 158.209L97.6489 164.469L98.7015 168.643M124.491 113.343L126.596 110.213L128.175 107.604L129.228 105.517H130.807L135.017 104.996H138.701H141.859H146.596H150.28L154.491 103.952H157.123L160.807 104.996L163.965 103.431M98.7015 168.643L95.0173 170.208L92.3857 168.643H87.1225L86.0699 167.078L80.2804 170.208L75.5436 174.903H72.3857M98.7015 168.643L103.438 170.208H109.228L115.544 167.599L120.28 165.513L124.491 170.208L129.228 168.643L136.596 167.599L140.28 168.643L141.859 171.773L146.596 173.338H150.28L153.438 171.773L159.228 171.251L163.438 170.208L165.017 167.078H169.228M72.3857 174.903L71.3331 180.642V182.729L72.3857 186.38L71.3331 190.032L68.7015 188.989L67.1225 186.38L64.491 188.989L59.7541 188.467L58.7015 184.815V181.685H54.491L52.3857 178.033L47.6488 171.251L42.912 167.078L39.2278 165.513H35.5436L28.7015 159.774L25.5436 158.209L21.8594 151.948L19.2278 146.731L15.5436 142.036V137.863L18.7015 135.776M72.3857 174.903L70.2804 173.338L64.491 171.251V167.078L62.912 162.904L64.491 159.774L67.1225 155.6L67.4273 151.427V148.297L70.2804 145.166L69.2278 142.036L66.5962 139.428L66.0699 136.297L61.8594 131.602M18.7015 135.776L16.5962 132.646V130.559L18.7015 125.864L16.5962 123.255V118.038L17.6488 115.43L18.7015 114.908H20.8067L24.491 110.213V106.561L27.6488 106.039L32.3857 102.387L34.491 99.7786M18.7015 135.776H20.8067L22.912 134.211L26.0699 133.689L29.2278 135.254L33.4383 137.863L36.5962 138.906L40.2804 142.036L46.0699 145.166V138.906L50.8067 136.819L57.1225 134.211L61.8594 131.602M34.491 99.7786L36.5962 103.952L41.8594 109.691L46.0699 110.213L47.6488 112.299L52.912 111.256L55.5436 113.343L58.1752 111.256L62.912 113.343L65.5436 118.038L67.1225 121.168L67.4273 121.097M67.4273 121.097L61.8594 131.602M117.649 42.9136V49.1739L120.28 50.2173H123.438L126.596 49.1739L127.123 50.2173L128.175 54.9126L129.228 59.6079L130.807 63.7815L129.228 68.4767L130.807 72.6503V75.2588L131.333 79.4324L132.912 82.0409L135.017 84.6494L137.649 88.3013L140.28 89.8664L143.438 91.4315L146.596 90.3881L150.28 91.4315L155.544 92.9966L159.228 94.5616L161.333 96.6484L163.438 99.7786L163.965 103.431M117.649 42.9136L120.28 41.3485H122.386L124.491 38.2183H128.175L135.017 35.6098L141.859 33.523L143.438 30.3928L148.175 28.8277L150.28 26.2192H157.123H163.438H167.123L169.754 23.089H176.596L181.859 21.0023H187.123H190.807L195.017 17.3504M163.965 103.431V107.604L163.438 113.343L165.017 119.603L163.438 124.298V126.907L163.965 130.559V136.297L165.017 145.166V149.862L167.123 155.6L169.228 161.339L169.754 165.513L169.228 167.078M163.965 103.431H169.228M169.228 167.078L174.491 168.643L178.701 168.121V164.469L181.859 167.078L183.965 168.121L185.017 165.513H190.807L193.438 167.078L196.07 168.643L199.228 167.078H204.491L206.07 162.904M169.228 103.431H174.491L178.701 104.996L181.859 110.213L187.123 114.908L190.807 116.995V121.168L195.017 124.298V129.515L196.07 135.776L201.333 142.036L204.491 143.601L206.07 148.297V151.427V162.904M169.228 103.431L171.859 101.344L177.123 97.6918M206.07 162.904L212.386 158.209L215.017 154.035H218.701L220.28 151.948L224.491 151.427L227.123 151.948L231.333 154.035L236.596 151.948H242.386L250.28 148.297L255.017 145.166L258.175 146.731V145.166L263.965 143.601L267.649 137.863L273.965 135.776M195.017 17.3504L193.438 23.089L195.017 28.8277L201.333 30.3928V35.6098L204.491 38.2183V40.8268L207.123 44.4787L209.228 48.1305L210.28 54.9126L212.386 60.6513L211.859 65.3466V69.5202L208.701 72.6503L204.491 77.3456L202.386 82.0409L199.228 87.2579L195.017 88.3013L190.28 89.8664L185.544 94.04L180.807 95.605L177.123 97.6918M195.017 17.3504H201.333H208.701H211.859L215.017 9.5249V7.4381L218.701 9.5249H220.28L222.386 12.1334H227.123L229.228 9.5249H231.333H234.491H238.701M177.123 97.6918L188.701 98.7352L193.438 97.6918L197.123 94.5616L203.438 95.0834L208.701 89.3447L215.017 87.2579L218.701 88.3013M218.701 88.3013L224.491 92.4749L227.123 95.605L231.333 97.6918H238.701H242.386L246.07 99.7786L250.28 101.344L252.912 103.952L255.017 107.604L258.175 111.256L262.386 116.995L263.965 121.168L262.386 123.255L267.649 126.907H270.28L273.965 135.776M218.701 88.3013L220.28 84.6494L228.25 82.0409L234.491 77.3456L243.965 72.6503L250.28 71.3582M273.965 135.776L280.807 134.211H285.544L290.807 132.646L296.07 131.602L298.175 124.298H296.07L298.175 121.168M238.701 9.5249L236.596 15.7853L238.701 21.0023H240.807L243.965 26.2192L248.175 30.3928L250.28 35.6098V42.9136L248.175 49.1739V54.9126V59.6079L246.07 60.6513L248.175 66.9117L250.28 71.3582M238.701 9.5249H240.807L246.07 7.4381L250.28 4.30792L252.912 7.4381V5.87302H258.175H262.386L263.965 2.22113H267.649L270.28 4.30792H273.965L276.596 7.4381H280.807L283.438 4.30792H288.701L293.438 7.4381V12.1334L298.175 17.3504L301.859 19.4372L306.596 23.089L309.228 21.0023H315.544L319.228 23.089L323.438 24.6541L321.333 28.8277L323.965 30.3928L326.07 34.0447V40.8268L323.438 44.4787M250.28 71.3582L255.017 75.2588H259.754L263.965 72.6503L270.28 69.5202L273.965 66.9117L280.807 65.3466H283.438M283.438 65.3466L286.596 68.4767L288.701 75.2588L286.596 79.4324L285.544 86.2145L283.438 90.3881L280.807 95.605L285.544 96.6484L286.596 98.7352L290.807 101.344L296.07 105.517L298.175 111.256L300.28 113.343V116.995L298.175 121.168M283.438 65.3466L286.596 62.2164H290.807L296.07 57.5211L300.28 56.4777L303.965 52.8258L306.596 52.3041H309.228L311.859 48.1305L317.123 46.5654L323.438 44.4787M298.175 121.168L303.965 116.995L306.596 111.256L309.228 105.517L311.859 99.7786L315.544 94.5616H321.333L323.965 89.8664V84.6494L326.07 77.3456L328.175 71.3582H330.28L332.386 75.2588L334.491 72.6503V68.4767L332.386 65.3466V59.6079L334.491 57.5211H337.649V58.5645L339.228 59.6079L340.28 60.1296L341.859 59.6079L342.912 58.0428L341.859 56.4777L339.754 55.956L338.701 54.3909L337.123 53.8692L336.596 52.3041V50.739L335.017 49.6956L332.912 50.2173V52.3041L333.438 54.3909L331.859 55.956L330.28 57.5211L329.754 55.4343H328.175L327.123 53.8692L328.701 52.3041L330.28 52.8258V50.739H327.649L326.07 49.1739L323.965 46.5654L323.438 44.4787M343.965 40.8268L342.912 40.3796M342.912 40.3796L340.28 39.2617L338.701 35.6098L337.123 30.3928L340.28 28.8277V24.6541H346.596V28.8277H349.228L351.859 30.3928L349.228 32.4796L350.807 38.2183L349.228 39.2617L346.596 40.8268L342.912 40.3796ZM12.3857 130.559L8.17516 131.602L6.0699 134.211L4.49095 131.602L1.85938 126.907H8.17516H12.3857V130.559ZM42.3857 88.823L39.2278 84.6494V78.9107L43.4383 79.9541H44.491L45.5436 83.0843L43.4383 86.2145L42.3857 88.823ZM61.3331 208.292L57.6488 205.162V201.51L61.3331 199.945L62.912 201.51H67.1225L65.5436 205.683L62.912 208.292H61.3331ZM59.7541 229.16L58.7015 223.421L59.7541 219.769H61.3331V223.421V226.551L59.7541 229.16ZM85.5436 22.0456L82.912 21.0023L79.7541 14.7419L75.0173 12.6551L76.5962 10.0466H79.7541L81.3331 9.5249L83.9646 10.0466L87.6488 7.4381H88.7015H90.8067L89.7541 10.0466L90.8067 13.1768L87.6488 14.7419H83.9646L85.5436 16.8287V18.9155V21.0023V22.0456ZM72.912 11.09L68.1752 8.48151L65.5436 6.39472L68.1752 4.82962L64.491 2.74283V1.17773H68.1752V2.74283H71.8594L74.491 5.35131L75.0173 7.4381L74.491 10.0466L72.912 11.09Z" stroke="#2D67F6" stroke-width="1.06061" stroke-dasharray="2.12 2.12"/>
<path d="M117.477 49.1829V42.9226L120.108 41.3575H122.213L124.319 38.2273H128.003L134.845 35.6188L141.687 33.532L143.266 30.4018L148.003 28.8367L150.108 26.2282H156.95H163.266H166.95L169.582 23.0981H176.424L181.687 21.0113H186.95H190.634L194.845 17.3594L193.266 23.0981L194.845 28.8367L201.161 30.4018V35.6188L204.319 38.2273V40.8358L206.95 44.4877L209.056 48.1395L210.108 54.9216L212.213 60.6603L211.687 65.3556V69.5292L208.529 72.6593L204.319 77.3546L202.213 82.0499L199.056 87.2669L194.845 88.3103L185.371 94.049L180.634 95.614L176.95 97.7008L171.687 101.353L169.056 103.44H163.792L163.266 99.7876L161.161 96.6574L159.056 94.5706L155.371 93.0056L150.108 91.4405L146.424 90.3971L143.266 91.4405L140.108 89.8754L134.845 84.6584L132.74 82.0499L131.161 79.4414L130.634 75.2678V72.6593L129.055 68.4858L130.634 63.7905L129.055 59.6169L128.003 54.9216L126.95 50.2263L126.424 49.1829L123.266 50.2263H120.108L117.477 49.1829Z" fill="#2D67F6" fill-opacity="0.2" stroke="#2D67F6" stroke-width="1.06061" stroke-linecap="round"/>
<path d="M163.072 54.5134V63.5534H163.872V54.5134H163.072ZM159.782 57.7534V58.4434H161.512V57.7534H159.782ZM161.262 54.7234V63.0934H162.042V54.7234H161.262ZM158.042 55.9134V57.0634C158.042 58.7234 157.342 60.3734 156.082 61.1334L156.592 61.7534C157.922 60.9134 158.682 59.0434 158.682 57.0634V55.9134H158.042ZM158.212 55.9134V57.0634C158.212 58.9534 158.942 60.7334 160.262 61.5334L160.772 60.9234C159.532 60.2034 158.852 58.6334 158.852 57.0634V55.9134H158.212ZM156.332 55.5634V56.2534H160.462V55.5634H156.332ZM169.021 55.4034V55.7834C169.021 56.9734 167.471 58.0134 165.881 58.2434L166.201 58.9034C168.021 58.5934 169.741 57.4034 169.741 55.7834V55.4034H169.021ZM169.231 55.4034V55.7834C169.231 57.4034 170.941 58.5934 172.771 58.9034L173.081 58.2434C171.501 58.0134 169.941 56.9734 169.941 55.7834V55.4034H169.231ZM169.051 60.1034V63.5534H169.871V60.1034H169.051ZM165.401 59.6634V60.3434H173.571V59.6634H165.401ZM166.161 55.0734V55.7434H172.781V55.0734H166.161ZM176.981 55.2934V56.9134C176.981 58.6234 175.891 60.3534 174.551 60.9934L175.061 61.6734C176.541 60.9234 177.661 58.9934 177.661 56.9134V55.2934H176.981ZM177.121 55.2934V56.9134C177.121 58.9234 178.251 60.7834 179.721 61.5034L180.221 60.8434C178.881 60.2234 177.801 58.5634 177.801 56.9134V55.2934H177.121ZM181.161 54.5034V63.5634H181.991V54.5034H181.161Z" fill="#2D67F6"/>
<path d="M175.197 145.527V146.207H177.717V145.527H175.197ZM173.017 143.247V144.857C173.017 146.537 171.997 148.277 170.667 148.937L171.197 149.597C172.627 148.827 173.697 146.887 173.697 144.857V143.247H173.017ZM173.177 143.247V144.857C173.177 146.837 174.227 148.697 175.687 149.437L176.177 148.767C174.867 148.147 173.847 146.507 173.847 144.857V143.247H173.177ZM177.307 142.457V151.517H178.127V142.457H177.307ZM182.336 147.217V150.987H183.176V147.217H182.336ZM186.536 142.467V151.507H187.356V142.467H186.536ZM179.936 147.477C181.726 147.467 183.926 147.427 185.956 147.147L185.886 146.527C183.896 146.737 181.656 146.767 179.826 146.777L179.936 147.477ZM180.616 143.157V143.847H184.356V143.157H180.616ZM184.036 143.157V143.527C184.036 144.147 184.036 145.237 183.736 146.827L184.556 146.897C184.856 145.287 184.856 144.157 184.856 143.527V143.157H184.036ZM189.085 149.697V150.387H197.275V149.697H189.085ZM192.735 147.357V150.007H193.565V147.357H192.735ZM189.795 143.327V144.007H196.505V143.327H189.795ZM189.815 146.967V147.637H196.495V146.967H189.815ZM191.205 143.877V147.087H192.035V143.877H191.205ZM194.285 143.877V147.087H195.105V143.877H194.285Z" fill="#2D67F6"/>
<path d="M54.9202 91.9941V98.7741H55.7502V91.9941H54.9202ZM55.4902 94.9541V95.6541H57.0902V94.9541H55.4902ZM48.7602 93.0841V93.7541H54.1002V93.0841H48.7602ZM51.4302 94.2541C50.1402 94.2541 49.2602 94.9241 49.2602 95.9441C49.2602 96.9541 50.1402 97.6241 51.4302 97.6241C52.7102 97.6241 53.5902 96.9541 53.5902 95.9441C53.5902 94.9241 52.7102 94.2541 51.4302 94.2541ZM51.4302 94.9041C52.2402 94.9041 52.8002 95.3141 52.8002 95.9441C52.8002 96.5641 52.2402 96.9741 51.4302 96.9741C50.6102 96.9741 50.0502 96.5641 50.0502 95.9441C50.0502 95.3141 50.6102 94.9041 51.4302 94.9041ZM51.0102 91.9841V93.4341H51.8402V91.9841H51.0102ZM50.1202 100.144V100.824H56.1602V100.144H50.1202ZM50.1202 98.2341V100.434H50.9502V98.2341H50.1202ZM64.5095 91.9841V97.3441H65.3495V91.9841H64.5095ZM58.3995 96.2341V96.9241H59.1295C60.8095 96.9241 62.0295 96.8741 63.5195 96.6241L63.4295 95.9541C61.9795 96.1841 60.7695 96.2341 59.1295 96.2341H58.3995ZM58.3795 92.5241V93.2041H61.6695V94.3541H58.3995V96.6441H59.2095V94.9941H62.4795V92.5241H58.3795ZM59.5095 97.8441V100.904H65.3495V97.8441H59.5095ZM64.5295 98.5041V100.234H60.3195V98.5041H64.5295ZM71.2187 92.1441C69.2487 92.1441 68.0387 92.7741 68.0387 93.8241C68.0387 94.8741 69.2487 95.4941 71.2187 95.4941C73.1787 95.4941 74.3987 94.8741 74.3987 93.8241C74.3987 92.7741 73.1787 92.1441 71.2187 92.1441ZM71.2187 92.7941C72.6587 92.7941 73.5487 93.1741 73.5487 93.8241C73.5487 94.4741 72.6587 94.8541 71.2187 94.8541C69.7687 94.8541 68.8887 94.4741 68.8887 93.8241C68.8887 93.1741 69.7687 92.7941 71.2187 92.7941ZM68.1687 97.4741V100.904H74.2587V97.4741H73.4387V98.4641H68.9887V97.4741H68.1687ZM68.9887 99.1041H73.4387V100.234H68.9887V99.1041ZM67.1287 96.2041V96.8741H75.2987V96.2041H67.1287Z" fill="#2D67F6"/>
<path d="M76.1966 150.927V157.587H77.0266V150.927H76.1966ZM76.7666 153.677V154.367H78.3666V153.677H76.7666ZM71.3966 159.097V159.777H77.4366V159.097H71.3966ZM71.3966 156.907V159.367H72.2266V156.907H71.3966ZM72.5366 151.567C71.1866 151.567 70.1766 152.497 70.1766 153.797C70.1766 155.107 71.1866 156.027 72.5366 156.027C73.8866 156.027 74.8966 155.107 74.8966 153.797C74.8966 152.497 73.8866 151.567 72.5366 151.567ZM72.5366 152.297C73.4166 152.297 74.0866 152.917 74.0866 153.797C74.0866 154.687 73.4166 155.297 72.5366 155.297C71.6566 155.297 70.9866 154.687 70.9866 153.797C70.9866 152.917 71.6566 152.297 72.5366 152.297ZM79.7058 155.237V155.927H80.3758C82.1758 155.927 83.2058 155.867 84.4058 155.627L84.3058 154.957C83.1458 155.197 82.1458 155.237 80.3758 155.237H79.7058ZM79.7058 151.567V155.457H80.5158V152.237H83.8158V151.567H79.7058ZM80.6158 156.807V157.487H85.8158V159.977H86.6458V156.807H80.6158ZM85.8158 150.937V156.347H86.6458V150.937H85.8158ZM83.2858 153.277V153.947H86.0458V153.277H83.2858ZM92.745 152.527V153.207H95.275V152.527H92.745ZM92.745 154.457V155.147H95.295V154.457H92.745ZM88.825 151.717V155.957H92.955V151.717H88.825ZM92.135 152.387V155.287H89.635V152.387H92.135ZM95.015 150.947V157.547H95.845V150.947H95.015ZM90.035 159.097V159.777H96.065V159.097H90.035ZM90.035 156.947V159.407H90.865V156.947H90.035Z" fill="#2D67F6"/>
<path d="M31.056 118.154V124.934H31.886V118.154H31.056ZM31.626 121.114V121.814H33.226V121.114H31.626ZM24.896 119.244V119.914H30.236V119.244H24.896ZM27.566 120.414C26.276 120.414 25.396 121.084 25.396 122.104C25.396 123.114 26.276 123.784 27.566 123.784C28.846 123.784 29.726 123.114 29.726 122.104C29.726 121.084 28.846 120.414 27.566 120.414ZM27.566 121.064C28.376 121.064 28.936 121.474 28.936 122.104C28.936 122.724 28.376 123.134 27.566 123.134C26.746 123.134 26.186 122.724 26.186 122.104C26.186 121.474 26.746 121.064 27.566 121.064ZM27.146 118.144V119.594H27.976V118.144H27.146ZM26.256 126.304V126.984H32.296V126.304H26.256ZM26.256 124.394V126.594H27.086V124.394H26.256ZM38.3952 119.804V120.484H40.8152V119.804H38.3952ZM38.3152 121.684V122.364H40.7552V121.684H38.3152ZM40.6752 118.144V123.564H41.5052V118.144H40.6752ZM37.8452 118.824V119.184C37.8452 120.894 36.4952 122.224 34.1852 122.894L34.5252 123.564C37.1252 122.784 38.7352 121.154 38.7352 118.824H37.8452ZM34.6552 118.824V119.504H38.4152V118.824H34.6552ZM38.5652 123.664C36.7352 123.664 35.5752 124.314 35.5752 125.404C35.5752 126.494 36.7352 127.144 38.5652 127.144C40.3952 127.144 41.5552 126.494 41.5552 125.404C41.5552 124.314 40.3952 123.664 38.5652 123.664ZM38.5652 124.314C39.8952 124.314 40.7452 124.724 40.7452 125.404C40.7452 126.084 39.8952 126.484 38.5652 126.484C37.2452 126.484 36.3952 126.084 36.3952 125.404C36.3952 124.724 37.2452 124.314 38.5652 124.314ZM47.6044 119.734V120.414H50.1344V119.734H47.6044ZM47.6044 121.664V122.354H50.1544V121.664H47.6044ZM43.6844 118.924V123.164H47.8144V118.924H43.6844ZM46.9944 119.594V122.494H44.4944V119.594H46.9944ZM49.8744 118.154V124.754H50.7044V118.154H49.8744ZM44.8944 126.304V126.984H50.9244V126.304H44.8944ZM44.8944 124.154V126.614H45.7244V124.154H44.8944Z" fill="#2D67F6"/>
<path d="M38.5165 150.672V159.712H39.3165V150.672H38.5165ZM36.9865 154.292V154.982H38.7265V154.292H36.9865ZM36.4665 150.872V159.252H37.2465V150.872H36.4665ZM31.9665 156.792V157.482H32.5565C33.9165 157.482 34.8265 157.442 35.9065 157.212L35.8265 156.522C34.7765 156.742 33.8765 156.792 32.5565 156.792H31.9665ZM31.9665 151.772V157.102H32.7865V152.452H35.3265V151.772H31.9665ZM45.6657 153.012V153.702H47.7057V153.012H45.6657ZM47.4457 150.672V156.062H48.2757V150.672H47.4457ZM45.3057 156.332C43.4357 156.332 42.2857 156.962 42.2857 158.022C42.2857 159.092 43.4357 159.702 45.3057 159.702C47.1657 159.702 48.3157 159.092 48.3157 158.022C48.3157 156.962 47.1657 156.332 45.3057 156.332ZM45.3057 156.982C46.6657 156.982 47.4957 157.362 47.4957 158.022C47.4957 158.672 46.6657 159.052 45.3057 159.052C43.9457 159.052 43.1157 158.672 43.1157 158.022C43.1157 157.362 43.9457 156.982 45.3057 156.982ZM43.1457 151.582V152.312C43.1457 153.612 42.2157 154.822 40.8757 155.312L41.3057 155.972C42.8057 155.412 43.8257 153.982 43.8257 152.312V151.582H43.1457ZM43.3057 151.582V152.312C43.3057 153.832 44.2757 155.192 45.7457 155.722L46.1657 155.062C44.8557 154.602 43.9757 153.482 43.9757 152.312V151.582H43.3057ZM41.1257 151.332V152.012H45.9557V151.332H41.1257ZM54.1249 150.832C52.1549 150.832 50.9449 151.462 50.9449 152.512C50.9449 153.562 52.1549 154.182 54.1249 154.182C56.0849 154.182 57.3049 153.562 57.3049 152.512C57.3049 151.462 56.0849 150.832 54.1249 150.832ZM54.1249 151.482C55.5649 151.482 56.4549 151.862 56.4549 152.512C56.4549 153.162 55.5649 153.542 54.1249 153.542C52.6749 153.542 51.7949 153.162 51.7949 152.512C51.7949 151.862 52.6749 151.482 54.1249 151.482ZM51.0749 156.162V159.592H57.1649V156.162H56.3449V157.152H51.8949V156.162H51.0749ZM51.8949 157.792H56.3449V158.922H51.8949V157.792ZM50.0349 154.892V155.562H58.2049V154.892H50.0349Z" fill="#2D67F6"/>
<path d="M218.361 44.7308V45.4208H226.551V44.7308H218.361ZM222.041 42.5408V44.9608H222.861V42.5408H222.041ZM222.021 38.6808V39.2408C222.021 40.6708 220.311 41.9408 218.751 42.2008L219.091 42.8608C220.871 42.4908 222.721 41.0908 222.721 39.2408V38.6808H222.021ZM222.171 38.6808V39.2408C222.171 41.0908 224.031 42.4708 225.841 42.8308L226.171 42.1708C224.591 41.9108 222.871 40.6708 222.871 39.2408V38.6808H222.171ZM219.031 38.3608V39.0408H225.861V38.3608H219.031ZM229.811 39.2408V39.6908C229.811 40.9608 228.921 42.0808 227.581 42.5408L227.991 43.1908C229.501 42.6608 230.491 41.3208 230.491 39.6908V39.2408H229.811ZM229.951 39.2408V39.6908C229.951 41.2508 230.981 42.5308 232.491 43.0308L232.901 42.3708C231.561 41.9508 230.641 40.8908 230.641 39.6908V39.2408H229.951ZM227.811 38.7508V39.4208H232.631V38.7508H227.811ZM229.811 37.6008V39.0008H230.641V37.6008H229.811ZM232.331 40.3208V41.0108H234.611V40.3208H232.331ZM234.161 37.5508V44.2908H234.991V37.5508H234.161ZM229.221 45.7008V46.3808H235.241V45.7008H229.221ZM229.221 43.6908V46.0708H230.051V43.6908H229.221ZM240.84 37.7008C238.87 37.7008 237.66 38.3308 237.66 39.3808C237.66 40.4308 238.87 41.0508 240.84 41.0508C242.8 41.0508 244.02 40.4308 244.02 39.3808C244.02 38.3308 242.8 37.7008 240.84 37.7008ZM240.84 38.3508C242.28 38.3508 243.17 38.7308 243.17 39.3808C243.17 40.0308 242.28 40.4108 240.84 40.4108C239.39 40.4108 238.51 40.0308 238.51 39.3808C238.51 38.7308 239.39 38.3508 240.84 38.3508ZM237.79 43.0308V46.4608H243.88V43.0308H243.06V44.0208H238.61V43.0308H237.79ZM238.61 44.6608H243.06V45.7908H238.61V44.6608ZM236.75 41.7608V42.4308H244.92V41.7608H236.75Z" fill="#2D67F6"/>
<path d="M223.36 121.144V126.254H224.19V121.144H223.36ZM223.97 123.214V123.904H225.53V123.214H223.97ZM218.49 126.744V130.064H224.19V126.744H218.49ZM223.38 127.414V129.384H219.31V127.414H223.38ZM217.61 121.594V125.214H218.44V121.594H217.61ZM217.61 124.874V125.574H218.32C219.67 125.574 221.02 125.484 222.55 125.164L222.45 124.484C220.97 124.784 219.62 124.874 218.32 124.874H217.61ZM228.939 125.694V127.704H229.769V125.694H228.939ZM232.949 121.144V128.024H233.779V121.144H232.949ZM227.609 129.304V129.984H233.999V129.304H227.609ZM227.609 127.354V129.494H228.439V127.354H227.609ZM226.439 126.004C228.079 126.004 230.269 125.974 232.219 125.664L232.159 125.054C230.239 125.304 227.999 125.324 226.329 125.324L226.439 126.004ZM231.109 126.484V127.094H233.159V126.484H231.109ZM229.269 121.514C227.939 121.514 227.039 122.134 227.039 123.084C227.039 124.044 227.939 124.664 229.269 124.664C230.589 124.664 231.489 124.044 231.489 123.084C231.489 122.134 230.589 121.514 229.269 121.514ZM229.269 122.134C230.109 122.134 230.699 122.504 230.699 123.084C230.699 123.664 230.109 124.034 229.269 124.034C228.419 124.034 227.829 123.664 227.829 123.084C227.829 122.504 228.419 122.134 229.269 122.134ZM239.658 121.304C237.688 121.304 236.478 121.934 236.478 122.984C236.478 124.034 237.688 124.654 239.658 124.654C241.618 124.654 242.838 124.034 242.838 122.984C242.838 121.934 241.618 121.304 239.658 121.304ZM239.658 121.954C241.098 121.954 241.988 122.334 241.988 122.984C241.988 123.634 241.098 124.014 239.658 124.014C238.208 124.014 237.328 123.634 237.328 122.984C237.328 122.334 238.208 121.954 239.658 121.954ZM236.608 126.634V130.064H242.698V126.634H241.878V127.624H237.428V126.634H236.608ZM237.428 128.264H241.878V129.394H237.428V128.264ZM235.568 125.364V126.034H243.738V125.364H235.568Z" fill="#2D67F6"/>
<path d="M91.1404 75.7615C89.9704 75.7615 89.2204 76.9715 89.2204 78.9115C89.2204 80.8515 89.9704 82.0615 91.1404 82.0615C92.3104 82.0615 93.0704 80.8515 93.0704 78.9115C93.0704 76.9715 92.3104 75.7615 91.1404 75.7615ZM91.1404 76.5315C91.8504 76.5315 92.3004 77.4515 92.3004 78.9115C92.3004 80.3715 91.8504 81.2915 91.1404 81.2915C90.4304 81.2915 89.9804 80.3715 89.9804 78.9115C89.9804 77.4515 90.4304 76.5315 91.1404 76.5315ZM95.9904 75.0115V84.0515H96.7904V75.0115H95.9904ZM94.5604 78.5915V79.2715H96.2904V78.5915H94.5604ZM93.9904 75.2015V83.6015H94.7804V75.2015H93.9904ZM100.73 78.7515V80.3615H101.56V78.7515H100.73ZM104.88 75.0115V80.3315H105.71V75.0115H104.88ZM98.3796 79.0315C100.07 79.0315 102.23 79.0115 104.21 78.7215L104.16 78.1815C102.23 78.4015 100.02 78.4115 98.2796 78.4115L98.3796 79.0315ZM99.6496 80.6615V81.2615H104.89V81.9915H99.6696V83.5615H100.48V82.5415H105.71V80.6615H99.6496ZM99.6696 83.3515V83.9515H106.01V83.3515H99.6696ZM103.08 79.3115V79.8515H105.14V79.3115H103.08ZM101.2 75.1815C99.8496 75.1815 98.9696 75.7015 98.9696 76.5415C98.9696 77.3815 99.8496 77.9015 101.2 77.9015C102.54 77.9015 103.42 77.3815 103.42 76.5415C103.42 75.7015 102.54 75.1815 101.2 75.1815ZM101.2 75.7615C102.07 75.7615 102.64 76.0615 102.64 76.5415C102.64 77.0215 102.07 77.3215 101.2 77.3215C100.31 77.3215 99.7396 77.0215 99.7396 76.5415C99.7396 76.0615 100.31 75.7615 101.2 75.7615ZM111.589 75.1715C109.619 75.1715 108.409 75.8015 108.409 76.8515C108.409 77.9015 109.619 78.5215 111.589 78.5215C113.549 78.5215 114.769 77.9015 114.769 76.8515C114.769 75.8015 113.549 75.1715 111.589 75.1715ZM111.589 75.8215C113.029 75.8215 113.919 76.2015 113.919 76.8515C113.919 77.5015 113.029 77.8815 111.589 77.8815C110.139 77.8815 109.259 77.5015 109.259 76.8515C109.259 76.2015 110.139 75.8215 111.589 75.8215ZM108.539 80.5015V83.9315H114.629V80.5015H113.809V81.4915H109.359V80.5015H108.539ZM109.359 82.1315H113.809V83.2615H109.359V82.1315ZM107.499 79.2315V79.9015H115.669V79.2315H107.499Z" fill="#2D67F6"/>
<path d="M132.286 151.762V153.342H133.116V151.762H132.286ZM128.616 151.472V152.142H136.786V151.472H128.616ZM132.696 153.092C130.756 153.092 129.596 153.662 129.596 154.682C129.596 155.692 130.756 156.262 132.696 156.262C134.636 156.262 135.796 155.692 135.796 154.682C135.796 153.662 134.636 153.092 132.696 153.092ZM132.696 153.732C134.116 153.732 134.956 154.072 134.956 154.682C134.956 155.282 134.116 155.622 132.696 155.622C131.286 155.622 130.436 155.282 130.436 154.682C130.436 154.072 131.286 153.732 132.696 153.732ZM132.166 147.982V148.252C132.166 149.282 130.696 150.092 129.076 150.262L129.376 150.922C131.246 150.692 132.906 149.712 132.906 148.252V147.982H132.166ZM132.516 147.982V148.252C132.516 149.712 134.166 150.692 136.036 150.922L136.336 150.262C134.716 150.092 133.246 149.282 133.246 148.252V147.982H132.516ZM129.366 147.652V148.322H136.056V147.652H129.366ZM137.815 151.862V152.542H146.005V151.862H137.815ZM141.555 152.282V154.362H142.385V152.282H141.555ZM138.865 147.662V150.842H144.945V147.662H138.865ZM144.125 148.332V150.172H139.675V148.332H144.125ZM138.855 155.402V156.082H145.095V155.402H138.855ZM138.855 153.492V155.642H139.675V153.492H138.855Z" fill="#2D67F6"/>
<path d="M268.624 29.6405V30.3105H274.274V29.6405H268.624ZM267.604 33.5205V34.2005H275.774V33.5205H267.604ZM271.254 33.9705V38.1005H272.084V33.9705H271.254ZM273.884 29.6405V30.4205C273.884 31.3305 273.884 32.3805 273.534 33.8405L274.354 33.9505C274.694 32.4205 274.694 31.3605 274.694 30.4205V29.6405H273.884ZM279.123 30.1305V30.6605C279.123 31.8905 278.183 32.9605 276.843 33.3905L277.253 34.0405C278.763 33.5405 279.803 32.2505 279.803 30.6605V30.1305H279.123ZM279.273 30.1305V30.6605C279.273 32.1705 280.283 33.4105 281.783 33.8905L282.173 33.2405C280.853 32.8305 279.953 31.8105 279.953 30.6605V30.1305H279.273ZM277.113 29.8805V30.5705H281.953V29.8805H277.113ZM279.123 33.6605V35.7605H279.953V33.6605H279.123ZM283.503 32.8005V33.5005H285.173V32.8005H283.503ZM282.913 29.0505V38.0905H283.743V29.0505H282.913ZM276.803 36.2005C278.363 36.2105 280.483 36.2005 282.413 35.8605L282.343 35.2405C280.483 35.5105 278.283 35.5105 276.693 35.5105L276.803 36.2005ZM290.082 29.2105C288.112 29.2105 286.902 29.8405 286.902 30.8905C286.902 31.9405 288.112 32.5605 290.082 32.5605C292.042 32.5605 293.262 31.9405 293.262 30.8905C293.262 29.8405 292.042 29.2105 290.082 29.2105ZM290.082 29.8605C291.522 29.8605 292.412 30.2405 292.412 30.8905C292.412 31.5405 291.522 31.9205 290.082 31.9205C288.632 31.9205 287.752 31.5405 287.752 30.8905C287.752 30.2405 288.632 29.8605 290.082 29.8605ZM287.032 34.5405V37.9705H293.122V34.5405H292.302V35.5305H287.852V34.5405H287.032ZM287.852 36.1705H292.302V37.3005H287.852V36.1705ZM285.992 33.2705V33.9405H294.162V33.2705H285.992Z" fill="#2D67F6"/>
<path d="M263.76 107.769V110.349H264.59V107.769H263.76ZM266.55 107.769V110.349H267.37V107.769H266.55ZM261.5 110.129V110.819H269.69V110.129H261.5ZM262.21 103.699V104.379H268.92V103.699H262.21ZM262.23 107.319V107.989H268.91V107.319H262.23ZM263.62 104.249V107.459H264.45V104.249H263.62ZM266.7 104.249V107.459H267.52V104.249H266.7ZM275.329 104.999V105.689H277.609V104.999H275.329ZM272.959 103.419V104.529C272.959 105.909 272.049 107.189 270.709 107.689L271.139 108.349C272.649 107.739 273.629 106.279 273.629 104.529V103.419H272.959ZM273.119 103.419V104.559C273.119 106.169 274.089 107.569 275.529 108.129L275.979 107.489C274.669 107.009 273.789 105.819 273.789 104.559V103.419H273.119ZM277.299 102.879V109.639H278.129V102.879H277.299ZM272.319 111.029V111.709H278.349V111.029H272.319ZM272.319 108.889V111.349H273.149V108.889H272.319ZM284.228 104.459V105.139H286.758V104.459H284.228ZM284.228 106.389V107.079H286.778V106.389H284.228ZM280.308 103.649V107.889H284.438V103.649H280.308ZM283.618 104.319V107.219H281.118V104.319H283.618ZM286.498 102.879V109.479H287.328V102.879H286.498ZM281.518 111.029V111.709H287.548V111.029H281.518ZM281.518 108.879V111.339H282.348V108.879H281.518Z" fill="#2D67F6"/>
<path d="M295.166 72.3359V73.2659C295.166 74.6459 294.266 75.8559 292.886 76.3459L293.316 77.0259C294.866 76.4459 295.856 75.0159 295.856 73.2659V72.3359H295.166ZM295.316 72.3359V73.2359C295.316 74.8759 296.286 76.2059 297.746 76.7559L298.196 76.1059C296.876 75.6459 295.996 74.5159 295.996 73.2359V72.3359H295.316ZM299.496 71.8259V77.1759H300.326V71.8259H299.496ZM297.356 77.4359C295.486 77.4359 294.336 78.0659 294.336 79.1459C294.336 80.2259 295.486 80.8459 297.356 80.8459C299.216 80.8459 300.366 80.2259 300.366 79.1459C300.366 78.0659 299.216 77.4359 297.356 77.4359ZM297.356 78.0959C298.716 78.0959 299.546 78.4859 299.546 79.1459C299.546 79.8059 298.716 80.1959 297.356 80.1959C295.996 80.1959 295.166 79.8059 295.166 79.1459C295.166 78.4859 295.996 78.0959 297.356 78.0959ZM297.536 73.7359V74.4259H299.676V73.7359H297.536ZM304.316 72.3759V73.4859C304.316 74.8859 303.436 76.1059 302.056 76.5959L302.496 77.2559C304.016 76.6659 304.996 75.2559 304.996 73.4859V72.3759H304.316ZM304.456 72.3759V73.5159C304.456 75.1059 305.456 76.4859 306.946 77.0259L307.356 76.3759C306.036 75.9059 305.136 74.7459 305.136 73.5159V72.3759H304.456ZM308.276 71.8159V78.4959H309.106V71.8159H308.276ZM308.846 74.5959V75.2859H310.446V74.5959H308.846ZM303.496 79.9859V80.6659H309.506V79.9859H303.496ZM303.496 77.8659V80.3159H304.326V77.8659H303.496ZM315.375 71.9859C313.405 71.9859 312.195 72.6159 312.195 73.6659C312.195 74.7159 313.405 75.3359 315.375 75.3359C317.335 75.3359 318.555 74.7159 318.555 73.6659C318.555 72.6159 317.335 71.9859 315.375 71.9859ZM315.375 72.6359C316.815 72.6359 317.705 73.0159 317.705 73.6659C317.705 74.3159 316.815 74.6959 315.375 74.6959C313.925 74.6959 313.045 74.3159 313.045 73.6659C313.045 73.0159 313.925 72.6359 315.375 72.6359ZM312.325 77.3159V80.7459H318.415V77.3159H317.595V78.3059H313.145V77.3159H312.325ZM313.145 78.9459H317.595V80.0759H313.145V78.9459ZM311.285 76.0459V76.7159H319.455V76.0459H311.285Z" fill="#2D67F6"/>
</svg>
