<svg width="81" height="73" viewBox="0 0 81 73" fill="none" xmlns="http://www.w3.org/2000/svg">
<path d="M8.31447 10.4322L1.47903 21.3836L0.817589 23.5151C0.597163 25.4261 6.03595 31.0855 8.02047 29.836C9.91194 28.6451 13.0533 23.4192 16.6934 25.0586C18.4346 25.8427 18.9412 27.0176 20.0009 28.66C21.4708 30.9385 20.7358 40.3464 22.4263 42.6984C23.7787 44.58 24.7783 47.3288 25.2928 50.4158L26.5423 56.4427C26.4933 58.3782 26.4688 63.9103 25.2928 65.8506C24.1168 67.791 24.8028 70.7751 25.2928 72.0246H42.8592L43.4472 61.7347C43.0307 59.9952 42.0213 56.0017 41.3157 53.9438C40.6101 51.8858 41.6097 49.0683 42.1977 47.9168C44.6721 47.7453 50.0033 47.2112 51.5321 46.4468C53.0609 45.6824 56.334 48.3823 57.7795 49.8278C59.6905 52.1798 59.911 57.9127 59.911 59.9707C59.911 61.7378 57.853 64.7482 56.53 67.1001C55.4716 68.9817 56.089 71.1671 56.53 72.0246H72.9939L75.4193 61.4407L73.8023 57.7657C74.6598 58.8437 76.2131 60.3382 75.8603 58.8682C75.5075 57.3982 78.7268 51.7388 80.1968 47.6963C80.5643 43.5069 81.3728 32.9965 80.1968 30.3505C78.7268 27.043 77.1833 24.1031 73.4349 21.7511C69.6864 19.3991 64.6885 17.8556 61.6015 18.7376C59.1319 19.4432 51.8996 21.7511 45.3581 21.3101C41.9771 19.8401 37.1997 16.3121 36.3912 15.3567C35.6728 14.5076 29.9968 8.00673 26.2483 5.94875C22.4999 3.89077 18.3839 2.42079 17.7224 2.64128C17.1932 2.81768 14.8559 1.1468 13.7534 0.289307L12.9449 4.03777C12.1365 4.18477 10.3431 4.77276 9.63748 5.94875C8.93189 7.12474 8.24097 9.59921 8.31447 10.4322Z" fill="white"/>
<g clip-path="url(#clip0_3735_13932)">
<path d="M73.2291 24.9513C74.455 25.3261 75.1988 26.2684 75.8618 27.2665C77.1319 29.1775 77.7302 31.3339 78.058 33.5786C78.0771 33.7094 78.008 33.8844 78.2123 33.9373V46.7217C77.3362 49.8793 75.2194 52.5723 74.7725 55.893C74.7329 56.1826 74.6888 56.4722 74.6197 56.9543C74.2566 55.6475 74.114 54.4818 73.9523 53.322C73.2452 48.2608 73.6671 43.232 74.4109 38.2149C74.4536 37.943 74.3021 37.6755 74.3933 37.4035C74.4712 37.0213 74.5829 36.6479 74.7093 36.279C75.9647 32.6025 75.5443 29.1348 73.3966 25.8876C73.0233 25.3246 73.0115 25.3055 73.2305 24.9542L73.2291 24.9513Z" fill="#643821"/>
<path d="M3.10483 24.109C3.10189 23.6534 3.09895 23.1991 3.09601 22.7434C3.15334 22.0364 3.49437 21.4454 3.8751 20.8751C4.93349 19.289 5.95366 17.6735 7.07526 16.1329C8.29094 14.4645 9.15382 12.6049 10.1461 10.8145C10.4356 11.1188 10.6723 11.1923 10.9869 10.7866C11.3015 10.3809 11.7954 10.1692 12.2452 9.91928C13.8931 9.00642 14.6133 7.45999 14.2605 5.62104C14.2209 5.4123 14.1121 5.19475 14.287 4.99336C14.3414 4.05698 14.2841 3.10296 14.7148 2.12836C15.6512 3.06474 16.4082 4.13783 17.6709 4.57147C18.45 4.91398 18.7955 5.63427 19.1512 6.32664C19.5584 7.11602 19.7186 7.98919 19.9112 8.84913C20.1625 9.96779 20.3948 11.0953 20.8667 12.1801C21.0607 11.9537 20.971 11.6421 21.1665 11.451C21.3312 11.3731 21.4473 11.4598 21.559 11.5627C22.0456 12.5741 22.0588 13.7486 22.6351 14.5468C22.6145 13.6339 22.832 12.5506 22.7923 11.4554C22.7865 11.2937 22.81 11.0791 23.0114 11.035C23.2157 10.9909 23.2995 11.1908 23.3818 11.3319C23.8478 12.1301 24.0036 13.0283 24.183 13.9147C24.474 15.3538 24.7239 16.8047 25.6235 18.1218C25.4471 17.0237 25.2149 16.005 25.2737 14.9584C25.2884 14.6982 25.2222 14.3307 25.5339 14.2631C25.819 14.2013 25.9675 14.5336 26.1086 14.757C26.6231 15.5758 26.9068 16.4901 27.1362 17.4177C27.3949 18.4658 27.6889 19.4992 28.1916 20.4752C28.2475 20.1136 28.1666 19.7461 28.2519 19.3919C28.2813 19.2728 28.318 19.139 28.4503 19.1111C28.587 19.0817 28.6708 19.1978 28.7399 19.2963C28.9839 19.6447 29.0956 20.0475 29.1868 20.4532C29.3588 21.2235 29.6116 21.9585 30.0408 22.6552C29.9526 22.1378 29.9629 21.6454 30.0688 21.15C30.1805 20.6252 30.3143 20.1004 30.2349 19.5521C30.2128 19.3933 30.154 19.1772 30.3701 19.1111C30.5612 19.0523 30.6759 19.2258 30.7832 19.3551C31.0566 19.68 31.1933 20.0754 31.3491 20.462C31.4961 20.8266 31.5976 21.2058 31.6946 21.5836C32.0371 22.9066 32.456 24.1811 33.6203 24.9631C33.2028 24.0414 33.435 22.9625 33.266 21.9305C33.2425 21.7879 33.2998 21.6321 33.4512 21.5601C33.6364 21.4719 33.7893 21.5704 33.9128 21.6909C34.2156 21.9849 34.4141 22.3524 34.6052 22.7229C34.9094 23.3094 35.1799 23.9135 35.5709 24.6074C35.5474 24.1311 35.5753 23.7724 35.6753 23.424C35.7268 23.2432 35.7209 22.9772 35.9428 22.9463C36.2074 22.9095 36.2824 23.1844 36.3794 23.3711C36.547 23.6989 36.647 24.0547 36.7543 24.406C36.8777 24.8117 37.1247 25.1439 37.3731 25.5158C36.7881 24.503 36.916 23.3726 36.7087 22.3113C36.6279 21.9011 36.9762 21.8982 37.2438 22.079C37.6319 22.3407 37.9347 22.6979 38.2243 23.0639C38.802 23.793 39.3606 24.5383 40.2176 25.188C40.0485 24.7661 39.975 24.428 39.9397 24.0826C39.9 23.6857 39.6207 23.1447 40.0632 22.9478C40.4439 22.7772 40.6909 23.3064 40.9364 23.5975C41.2657 23.987 41.6082 24.3575 42.0433 24.6779C42.1021 23.9665 42.2314 23.3344 42.643 22.7934C45.9226 24.3207 49.2756 23.8606 52.6213 23.1139C55.0027 22.5832 57.3488 21.8864 59.739 21.4072C63.0891 20.7354 66.4009 20.8516 69.5541 22.3656C70.5963 22.8654 71.5371 23.5225 72.3485 24.3457C72.6102 24.6118 72.8939 24.8102 73.2305 24.9499C73.032 25.2762 73.3407 25.4379 73.4775 25.6305C75.412 28.3514 75.9426 31.384 75.4002 34.6165C75.237 35.5911 74.8298 36.5245 74.5344 37.4771C74.4065 37.652 74.4521 37.9122 74.2477 38.0475C73.4495 39.9349 72.4749 41.768 72.1853 43.826C71.8487 46.2176 72.0677 48.6064 72.4176 50.9819C72.6249 52.3901 72.8659 53.7836 72.3544 55.1816C72.2441 55.4829 72.3206 55.8122 72.3823 56.1253C72.6984 57.732 72.9732 59.3475 73.3481 60.941C73.5554 61.8245 73.3701 62.63 73.1599 63.4576C72.8057 64.8526 72.3529 66.2241 72.1486 67.6559C72.0222 67.8294 71.8414 67.9087 71.64 67.8882C70.3346 67.7514 69.0013 67.7647 67.7636 67.2502C67.1874 67.0106 66.5568 66.8092 66.3098 66.1286C66.7023 65.3465 67.058 64.541 67.4961 63.7854C68.2355 62.5095 68.1105 61.1733 67.9077 59.8062C67.7254 58.5743 67.6225 57.3292 67.4505 56.0959C67.3638 55.4741 67.2418 54.8479 66.764 54.3746C66.3436 53.8865 66.2201 53.2691 66.1687 52.6753C66.054 51.3846 65.5219 50.2836 64.8222 49.234C63.5756 47.3613 62.3188 45.4988 61.2325 43.5231C60.4049 42.0208 58.7614 41.671 56.8578 42.4765C55.7553 42.944 54.6675 43.4467 53.5459 43.8715C53.1534 44.02 52.7462 44.0803 52.3508 44.2023C50.8882 44.5565 49.4667 45.0607 47.9908 45.3709C45.6109 45.8692 43.2104 45.9222 40.7982 45.8075C40.5851 45.7972 40.366 45.6914 40.1602 45.8413C39.3664 45.9751 38.602 45.7443 37.8362 45.6179C37.2511 45.5209 36.9307 45.6781 36.7102 46.2397C36.1486 47.6759 35.4666 49.062 34.8903 50.4923C34.5214 51.4081 34.2377 52.3342 34.317 53.3441C34.3406 53.6484 34.3891 53.988 34.1156 54.2408C33.8143 54.8597 33.6805 55.4859 33.7702 56.1944C33.976 57.8173 34.0907 59.4504 34.2788 61.0762C34.4523 62.5756 33.9348 63.9706 33.6732 65.4039C33.5379 66.1492 33.388 66.8871 33.3571 67.6456C32.9808 68.0366 32.5207 67.7853 32.1121 67.7706C30.9375 67.7265 29.7954 67.4971 28.7796 66.8518C28.493 66.6695 28.199 66.4858 28.1225 66.1124C28.9134 63.9486 29.3014 61.7319 29.0648 59.4196C29.0001 58.7875 28.9883 58.1466 28.9986 57.5115C29.0177 56.3738 28.9486 55.286 28.3019 54.2717C27.9491 53.7175 27.9476 53.009 27.9593 52.3416C28.0005 50.0322 27.4155 47.8376 26.7231 45.6649C26.6511 45.4371 26.5217 45.218 26.3821 45.0211C24.6048 42.5118 23.8404 39.66 23.864 36.6495C23.9066 31.2532 21.6649 26.7109 18.8396 22.3465C18.6264 22.0173 18.4632 22.0378 18.1413 22.2289C16.9462 22.9345 15.6673 23.3946 14.2473 23.2756C13.971 23.252 13.7799 23.3785 13.5755 23.5093C12.3599 24.2854 11.1442 25.0601 9.92997 25.8378C9.55072 26.0803 9.26113 26.3949 9.06562 26.8109C8.47028 28.0765 7.3134 28.5234 6.05068 27.9031C4.47191 27.1181 3.44733 25.8686 3.10483 24.109Z" fill="#91572E"/>
<path d="M52.3508 44.1993C54.2412 43.4363 56.0434 42.4397 58.0441 41.9634C59.4509 41.6283 60.6871 42.0869 61.353 43.3481C62.5305 45.5796 64.0211 47.6067 65.3455 49.7396C65.8865 50.6113 66.2069 51.5168 66.326 52.5297C66.3995 53.1529 66.6126 53.7586 66.764 54.373C66.3113 55.3197 66.4215 56.3046 66.5347 57.3027C66.695 58.7065 66.8081 60.1163 66.9434 61.523C67.0066 62.1816 66.7185 62.7608 66.5244 63.3561C66.057 64.7864 65.4425 66.1682 65.0853 67.6367C64.9354 67.8719 64.6972 67.9366 64.4503 67.9101C63.2434 67.7822 62.0204 67.7043 60.9106 67.1443C60.4152 66.8944 59.9095 66.6224 59.8169 65.98C60.0418 65.6316 60.2711 65.2877 60.4901 64.9363C61.4662 63.3605 62.1498 61.7597 61.9469 59.7885C61.7323 57.6864 61.9307 55.5549 61.3589 53.4646C61.062 52.3797 61.2986 51.1817 60.7077 50.1218C59.8051 48.5034 58.6365 47.1025 57.3062 45.8368C56.6741 45.2356 55.8053 45.0386 54.9836 44.8137C54.1148 44.5756 53.2284 44.4006 52.3494 44.1993H52.3508Z" fill="#643821"/>
<path d="M34.1157 54.2378C33.8569 52.2063 34.6493 50.4246 35.4445 48.6445C35.8708 47.6905 36.3265 46.7482 36.7043 45.7751C36.8542 45.3899 37.0189 45.3253 37.3908 45.3855C38.3139 45.5355 39.2577 45.559 40.1588 45.8398C40.0941 47.7243 39.6281 49.5529 39.3826 51.4125C39.3121 51.952 39.3826 52.4782 39.3885 53.0104C39.4238 55.8989 40.3043 58.6198 40.9746 61.3834C41.2054 62.3359 40.9687 63.2811 40.8438 64.2175C40.688 65.3788 40.4998 66.5327 40.5674 67.7102C40.1397 68.0718 39.6707 67.7778 39.2283 67.769C38.2698 67.7528 37.329 67.5706 36.4691 67.1134C36.0134 66.8708 35.6018 66.5621 35.324 66.1079C35.9032 64.2528 36.2721 62.383 35.837 60.4294C35.615 59.4298 35.4401 58.4155 35.3093 57.3983C35.1608 56.2414 34.8712 55.1551 34.1112 54.2378H34.1157Z" fill="#643821"/>
<path d="M66.3098 66.1285C67.3844 67.1957 68.7779 67.4441 70.1891 67.5632C70.8359 67.6176 71.4886 67.7984 72.1486 67.6558C72.0442 68.3011 71.9545 68.9479 71.8325 69.5874C71.7576 69.9843 71.5268 70.2327 71.0799 70.2312C69.5688 70.2253 68.0576 70.2312 66.5465 70.2268C66.1143 70.2268 65.7203 70.0563 65.7218 69.5888C65.7277 68.4084 65.7174 67.2133 66.3098 66.1285Z" fill="#373A3C"/>
<path d="M28.1255 66.1064C29.6175 67.4794 31.477 67.597 33.3586 67.6396C33.4586 68.3026 33.2557 68.9479 33.2381 69.6035C33.2278 70.0093 32.9632 70.2224 32.5678 70.2239C31.0316 70.2312 29.4955 70.2445 27.9608 70.2165C27.4934 70.2077 27.2435 69.9137 27.2141 69.4051C27.142 68.1953 27.389 67.0869 28.1269 66.1064H28.1255Z" fill="#373A3C"/>
<path d="M59.8184 65.9785C60.643 67.1575 61.9263 67.4059 63.2111 67.5603C63.8241 67.6338 64.4532 67.8807 65.0853 67.6367C64.9089 68.2908 64.7149 68.9406 64.5635 69.6006C64.4547 70.0725 64.1592 70.2312 63.7197 70.2312C62.3497 70.2312 60.9797 70.2283 59.6096 70.2312C59.0657 70.2327 58.7218 69.9622 58.81 69.4315C59.0055 68.2453 59.0687 67.009 59.8169 65.9785H59.8184Z" fill="#373A3C"/>
<path d="M35.3269 66.1064C35.8003 66.224 36.034 66.6768 36.4441 66.8958C37.2159 67.306 38.0523 67.4515 38.8946 67.5735C39.4473 67.6543 40.0103 67.6661 40.5689 67.7087C40.6968 68.285 40.7321 68.8686 40.7453 69.458C40.7571 69.9681 40.5704 70.2386 40.0265 70.2342C38.655 70.2239 37.2835 70.2342 35.912 70.2298C35.2093 70.2283 34.9477 69.7991 34.8609 69.164C34.7139 68.0953 34.8374 67.0752 35.3269 66.1079V66.1064Z" fill="#373A3C"/>
<path d="M21.2018 11.4583C21.2312 11.8772 21.1092 12.2682 20.9593 12.7577C20.2684 11.5318 20.0009 10.2485 19.7524 8.97986C19.4276 7.32025 18.9189 5.7797 17.6724 4.5699C18.1869 4.39792 18.6793 4.50816 19.1791 4.6581C22.1397 5.53862 24.5725 7.26439 26.7172 9.42233C28.9428 11.6611 31.1404 13.9278 33.3248 16.2063C34.5934 17.5293 36.1575 18.4436 37.651 19.4579C39.3062 20.5825 41.0349 21.5967 42.643 22.7933C42.6328 23.5239 42.0198 24.1384 42.2902 24.9689C41.2348 24.6043 40.8791 23.5724 40.0044 22.9153C40.047 23.8752 40.1646 24.6896 40.5733 25.5804C38.9005 24.7543 38.2875 23.0109 36.8631 22.0907C37.2673 23.346 36.8131 24.8028 37.9876 26.0023C36.4985 25.4202 36.6293 23.9664 35.9443 22.9668C35.8311 23.6944 35.5812 24.3206 35.9061 25.0527C35.4666 24.8954 35.3357 24.5882 35.1814 24.3045C34.786 23.5739 34.5037 22.783 34.0157 22.101C33.879 21.9099 33.7731 21.5776 33.5027 21.6923C33.2601 21.7952 33.4542 22.076 33.4938 22.2803C33.6232 22.9315 33.4453 23.5989 33.6129 24.2501C33.7202 24.6675 33.8114 25.088 33.9834 25.501C33.1043 24.8131 32.2635 24.1031 31.9151 22.9785C31.6343 22.0716 31.3359 21.169 31.061 20.2591C30.9375 19.8533 30.7053 19.5226 30.3246 19.0434C30.72 20.5222 29.7557 21.7702 30.2819 23.105C29.1045 22.0613 29.2044 20.4766 28.4371 19.0434V21.1749C26.8804 19.014 27.1612 16.293 25.5177 14.2468C25.2913 15.7771 25.6897 17.1486 25.9205 18.7391C23.8654 16.468 24.3785 13.4677 23.0202 11.1496C23.1157 12.4975 22.6733 13.8102 22.882 15.2288C22.0177 14.116 21.7737 12.8474 21.4841 11.5979C21.3562 11.4318 21.2871 11.2333 21.2518 11.1099C21.3062 11.1834 21.3003 11.3186 21.1989 11.4553L21.2018 11.4583Z" fill="#643821"/>
<path d="M14.2885 4.99179C15.1043 7.12033 13.9768 9.47231 12.0982 10.2102C11.6249 10.3969 11.1662 10.6895 10.8957 11.1275C10.5165 11.7434 10.3768 11.52 10.2416 11.0099C10.224 10.9408 10.1784 10.8791 10.1461 10.8129C10.0799 9.36647 10.2225 7.98321 11.2162 6.8131C12.035 5.84879 13.0052 5.16378 14.287 4.99179H14.2885Z" fill="#643821"/>
<path d="M21.2018 11.4583V11.032C21.24 11.0202 21.2768 11.0099 21.315 10.9982C21.3723 11.1996 21.4297 11.3995 21.487 11.6009C21.3915 11.5538 21.2974 11.5053 21.2018 11.4583V11.4583Z" fill="#834E2C"/>
<ellipse cx="12.9449" cy="13.4457" rx="1.02899" ry="1.02899" fill="black"/>
<line x1="19.7132" y1="11.2876" x2="9.19793" y2="25.8153" stroke="#643821" stroke-width="1.11994" stroke-linecap="round"/>
<line x1="8.45752" y1="14.3194" x2="14.1406" y2="18.1081" stroke="#643821" stroke-width="1.11994" stroke-linecap="round"/>
</g>
<defs>
<clipPath id="clip0_3735_13932">
<rect width="75.1178" height="68.1088" fill="white" transform="translate(3.09601 2.1268)"/>
</clipPath>
</defs>
</svg>
