<svg width="47" height="35" viewBox="0 0 47 35" fill="none" xmlns="http://www.w3.org/2000/svg">
<g filter="url(#filter0_d_559_9462)">
<path d="M10.6333 26.7556C13.3977 26.7556 17.0835 21.8451 24.5658 10.8059H24.6764C19.9216 19.9991 18.4473 23.3219 18.4473 25.0941C18.4473 26.1278 19.037 26.7556 20.0322 26.7556C22.0226 26.7556 25.4136 24.3557 28.8414 20.5529C29.3943 21.5497 30.242 22.1035 31.3108 22.1035C33.2276 22.1035 34.9968 20.7375 37.6505 17.1931L38.314 16.3071L37.9823 16.0486L37.3189 16.9347C34.8125 20.2206 33.0433 21.6236 31.3108 21.6236C30.3527 21.6236 29.6522 21.1067 29.21 20.1468C32.6378 16.2701 34.8862 12.2089 34.8862 9.91986C34.8862 8.70149 34.2964 8 33.2643 8C30.8316 8 28.1779 12.8366 28.1779 17.3039C28.1779 18.3746 28.3253 19.2976 28.6202 20.036C25.266 23.8388 21.912 26.2756 20.0322 26.2756C19.3319 26.2756 18.9633 25.8694 18.9633 25.0941C18.9633 23.2112 20.5114 19.7407 26.2244 8.70149V8.51687H25.6346C16.715 21.439 13.2134 26.2756 10.6333 26.2756C9.93302 26.2756 9.56442 25.8694 9.56442 25.0941C9.56442 23.2112 11.1125 19.7407 16.8255 8.70149V8.51687H16.3095L8 17.3777L8.33172 17.6362L15.13 10.8059H15.2406C10.4859 19.9991 9.04841 23.3219 9.04841 25.0941C9.04841 26.1278 9.63816 26.7556 10.6333 26.7556ZM28.9887 19.6299C28.8044 19.0022 28.6938 18.19 28.6938 17.3039C28.6938 13.095 31.0898 8.47995 33.2643 8.47995C33.9647 8.47995 34.37 8.99685 34.37 9.91986C34.37 12.0612 32.2322 15.9379 28.9887 19.6299Z" fill="white" stroke="white" stroke-width="11.9203" stroke-linejoin="round"/>
<path d="M10.6333 26.7556C13.3977 26.7556 17.0835 21.8451 24.5658 10.8059H24.6764C19.9216 19.9991 18.4473 23.3219 18.4473 25.0941C18.4473 26.1278 19.037 26.7556 20.0322 26.7556C22.0226 26.7556 25.4136 24.3557 28.8414 20.5529C29.3943 21.5497 30.242 22.1035 31.3108 22.1035C33.2276 22.1035 34.9968 20.7375 37.6505 17.1931L38.314 16.3071L37.9823 16.0486L37.3189 16.9347C34.8125 20.2206 33.0433 21.6236 31.3108 21.6236C30.3527 21.6236 29.6522 21.1067 29.21 20.1468C32.6378 16.2701 34.8862 12.2089 34.8862 9.91986C34.8862 8.70149 34.2964 8 33.2643 8C30.8316 8 28.1779 12.8366 28.1779 17.3039C28.1779 18.3746 28.3253 19.2976 28.6202 20.036C25.266 23.8388 21.912 26.2756 20.0322 26.2756C19.3319 26.2756 18.9633 25.8694 18.9633 25.0941C18.9633 23.2112 20.5114 19.7407 26.2244 8.70149V8.51687H25.6346C16.715 21.439 13.2134 26.2756 10.6333 26.2756C9.93302 26.2756 9.56442 25.8694 9.56442 25.0941C9.56442 23.2112 11.1125 19.7407 16.8255 8.70149V8.51687H16.3095L8 17.3777L8.33172 17.6362L15.13 10.8059H15.2406C10.4859 19.9991 9.04841 23.3219 9.04841 25.0941C9.04841 26.1278 9.63816 26.7556 10.6333 26.7556ZM28.9887 19.6299C28.8044 19.0022 28.6938 18.19 28.6938 17.3039C28.6938 13.095 31.0898 8.47995 33.2643 8.47995C33.9647 8.47995 34.37 8.99685 34.37 9.91986C34.37 12.0612 32.2322 15.9379 28.9887 19.6299Z" fill="black" stroke="black" stroke-width="1.63815" stroke-linejoin="round"/>
</g>
<defs>
<filter id="filter0_d_559_9462" x="0.0397949" y="0.039856" width="46.2346" height="34.6759" filterUnits="userSpaceOnUse" color-interpolation-filters="sRGB">
<feFlood flood-opacity="0" result="BackgroundImageFix"/>
<feColorMatrix in="SourceAlpha" type="matrix" values="0 0 0 0 0 0 0 0 0 0 0 0 0 0 0 0 0 0 127 0" result="hardAlpha"/>
<feOffset/>
<feGaussianBlur stdDeviation="1"/>
<feComposite in2="hardAlpha" operator="out"/>
<feColorMatrix type="matrix" values="0 0 0 0 0 0 0 0 0 0 0 0 0 0 0 0 0 0 0.2 0"/>
<feBlend mode="normal" in2="BackgroundImageFix" result="effect1_dropShadow_559_9462"/>
<feBlend mode="normal" in="SourceGraphic" in2="effect1_dropShadow_559_9462" result="shape"/>
</filter>
</defs>
</svg>
