<svg width="20" height="25" viewBox="0 0 20 25" fill="none" xmlns="http://www.w3.org/2000/svg">
<path d="M13.8721 6.45117C13.2861 6.45117 12.7393 6.54102 12.2314 6.7207C11.7314 6.90039 11.2744 7.08008 10.8604 7.25977C10.4463 7.43164 10.0869 7.51758 9.78223 7.51758C9.46191 7.51758 9.10645 7.43555 8.71582 7.27148C8.3252 7.09961 7.90332 6.93164 7.4502 6.76758C7.00488 6.60352 6.52832 6.52148 6.02051 6.52148C5.05957 6.52148 4.13379 6.7832 3.24316 7.30664C2.35254 7.83008 1.62207 8.60352 1.05176 9.62695C0.481445 10.6504 0.196289 11.9121 0.196289 13.4121C0.196289 14.3496 0.305664 15.2871 0.524414 16.2246C0.743164 17.1621 1.03613 18.0488 1.40332 18.8848C1.77051 19.7207 2.17676 20.459 2.62207 21.0996C3.2002 21.9043 3.7627 22.5957 4.30957 23.1738C4.86426 23.752 5.50488 24.041 6.23145 24.041C6.70801 24.041 7.12207 23.9629 7.47363 23.8066C7.8252 23.6504 8.19629 23.4902 8.58691 23.3262C8.98535 23.1699 9.48145 23.0918 10.0752 23.0918C10.5283 23.0918 10.9072 23.1387 11.2119 23.2324C11.5166 23.3262 11.7939 23.4316 12.0439 23.5488C12.3018 23.6738 12.5713 23.7832 12.8525 23.877C13.1338 23.9707 13.4736 24.0176 13.8721 24.0176C14.3955 24.0176 14.8643 23.877 15.2783 23.5957C15.7002 23.3223 16.0869 22.9668 16.4385 22.5293C16.7979 22.0918 17.1455 21.6348 17.4814 21.1582C17.8486 20.6191 18.1455 20.1035 18.3721 19.6113C18.6064 19.1113 18.7783 18.7051 18.8877 18.3926C18.9971 18.0723 19.0557 17.8965 19.0635 17.8652C19.04 17.8574 18.8682 17.7715 18.5479 17.6074C18.2354 17.4355 17.876 17.166 17.4697 16.7988C17.0713 16.4316 16.7197 15.9512 16.415 15.3574C16.1182 14.7637 15.9697 14.0371 15.9697 13.1777C15.9697 12.4277 16.0869 11.7832 16.3213 11.2441C16.5635 10.6973 16.8447 10.248 17.165 9.89648C17.4854 9.53711 17.7705 9.26367 18.0205 9.07617C18.2783 8.88867 18.4268 8.7832 18.4658 8.75977C18.0752 8.19727 17.6494 7.75977 17.1885 7.44727C16.7275 7.13477 16.2744 6.9082 15.8291 6.76758C15.3838 6.62695 14.9854 6.54102 14.6338 6.50977C14.29 6.4707 14.0361 6.45117 13.8721 6.45117ZM13.0518 4.55273C13.4111 4.12305 13.7041 3.62695 13.9307 3.06445C14.1572 2.49414 14.2705 1.9082 14.2705 1.30664C14.2705 1.13477 14.2588 0.982422 14.2354 0.849609C13.6494 0.873047 13.0361 1.04883 12.3955 1.37695C11.7627 1.70508 11.2393 2.11523 10.8252 2.60742C10.4893 2.98242 10.1924 3.45117 9.93457 4.01367C9.67676 4.57617 9.54785 5.1543 9.54785 5.74805C9.54785 5.8418 9.55176 5.92773 9.55957 6.00586C9.5752 6.08398 9.58691 6.13867 9.59473 6.16992C9.69629 6.19336 9.80176 6.20508 9.91113 6.20508C10.4346 6.20508 10.9893 6.04883 11.5752 5.73633C12.1689 5.42383 12.6611 5.0293 13.0518 4.55273Z" fill="white"/>
</svg>
